<?xml version="1.0" standalone="no"?>
<!DOCTYPE svg PUBLIC "-//W3C//DTD SVG 1.1//EN" "http://www.w3.org/Graphics/SVG/1.1/DTD/svg11.dtd" >
<svg xmlns="http://www.w3.org/2000/svg" xmlns:xlink="http://www.w3.org/1999/xlink" version="1.1" viewBox="-10 0 665 1000">
  <g transform="matrix(1 0 0 -1 0 800)">
   <path fill="currentColor"
d="M609.857 397.429q0 -4.70117 -1.52051 -10.2686q-1.51953 -5.56738 -3.46484 -10.4209q-1.94531 -4.85352 -6.17969 -11.8779q-4.23438 -7.02539 -7.16895 -11.5859q-2.93457 -4.56152 -9.09277 -12.8027q-6.1582 -8.24121 -9.29102 -12.2686
q-3.13281 -4.02832 -10.4248 -13.2441q-7.29199 -9.2168 -10 -12.6738q-29.1895 -39.0859 -73.1572 -76.5713q-43.9688 -37.4863 -78.0957 -59.5635q-34.1279 -22.0771 -91.2617 -56.4189q-57.1338 -34.3428 -81.2002 -50.0186q-16.418 -10.752 -47.498 -31.9785
t-43.4854 -28.9893q-12.4053 -7.7627 -30.2646 -15.7959q-17.8584 -8.0332 -31.6084 -8.9502q-9.22852 0 -15.7578 6.53027q-6.53027 6.5293 -6.53027 15.7559l0.00195312 0.285156q4.1709 12.4316 10.8574 23.7148q1.2998 2.86035 2.71387 11.8975
q1.41309 9.03711 4.38086 15.5381q2.96777 6.5 9.19043 8.27832q3.54004 0.976562 15.2998 -1.31836q11.7598 -2.29395 17.8438 -0.110352q4.48633 1.64746 44.1992 13.9072q39.7129 12.2598 58.3721 20.6641q51.5879 22.8418 119.479 63.6943
q67.8926 40.8525 112.234 75.7344q21.0088 19.1035 46.123 49.9102q25.1143 30.8066 39.5918 55.2324q14.0225 25.6338 14.0225 54.8516q0 1.17285 -0.0224609 2.29199q1.2373 11.1445 -6.01758 29.4043q-7.25488 18.2607 -17.6973 22.5957
q-17.4482 5.45508 -35.7256 5.45508q-27.1855 0 -51.7031 -11.7412q-12.2617 -6.24609 -25.9873 -20.9482q-13.7266 -14.7031 -13.7266 -23.623q0.313477 -6.31055 5.00098 -10.998q4.68848 -4.68848 10.999 -5.00195q9 0 14.8574 14.2852q5.85645 14.2861 18.2852 14.2861
q0.564453 0.03125 1.14941 0.03125q8.53223 0 14.7256 -6.03613q6.19238 -6.03613 6.41113 -14.5664q0 -15.0771 -21.165 -30.5381q-21.165 -15.4619 -32.835 -15.4619q-13.1074 0 -22.3477 6.20508t-14.1807 13.6523q-4.94043 7.44629 -16.7119 13.6514
q-11.7715 6.20508 -29.3311 6.20508q-32.6611 -1.18848 -64.2861 -9.42773q-4.2998 -1.6377 -7.35156 -3.41504t-4.59473 -3.01465q-1.54199 -1.23828 -2.35449 -3.03125q-0.813477 -1.79199 -0.935547 -2.4502q-0.123047 -0.65918 -0.0146484 -2.35645
q0.108398 -1.69727 0.108398 -1.73242q0 -1.25098 7.14258 -12.4648q7.14258 -11.2139 7.14258 -14.3926q0 -14.6094 -13.4131 -20.1621q-13.4141 -5.55273 -26.3008 -5.55273q-26.8574 0 -26.8574 16q0 3.89355 6.42871 16.8213q6.42871 12.9287 6.42871 16.6074
q0 8.03613 -15.5352 34.876q-15.5352 26.8389 -25.8936 26.8389q-13.2568 0 -29.4043 -23.4697q-16.1475 -23.4707 -18.5957 -33.6738q-1.00488 -4.31055 -0.486328 -8.42285t-0.741211 -10.3916q-1.25977 -6.2793 -5.05859 -11.4707q-13.6045 -12.3818 -32 -12.5713
q-36.5713 0 -36.5713 25.4287q0 7.28223 3.06641 10.6357q3.06641 3.35449 11.9629 6.82324q8.89648 3.46777 13.542 6.25488q25.1631 22.8984 38.2861 54.2861q4.80371 8.0791 11.0977 20.9131t9.41113 17.7578t10.0527 9.26855q6.93652 4.3457 17.1523 4.3457
q10.1484 0 18.5752 -3.92773q8.42676 -3.92871 12.3105 -7.45215q3.88477 -3.52344 12.5732 -13.9854q8.68848 -10.4619 12.2559 -14.3486q17.9941 -19.9941 44.8574 -22.1426q26.8623 -2.14941 88.5713 6.14258q17.832 2.03418 28.9854 13.8262
q11.1533 11.792 25.6484 27.4902q14.4951 15.6982 37.3662 24.1123q17.2314 8.21777 36.2852 9.42773q3.60059 0.15332 7.23145 0.15332q20.0303 0 46.29 -7.41211q26.2607 -7.41113 43.3359 -17.8838q13.3574 -8.07617 22.8105 -24.8398q9.45312 -16.7627 9.45312 -32.3721
q0 -2.96973 -0.263672 -5.93066z" />
  </g>

</svg>
