<?xml version="1.0" standalone="no"?>
<!DOCTYPE svg PUBLIC "-//W3C//DTD SVG 1.1//EN" "http://www.w3.org/Graphics/SVG/1.1/DTD/svg11.dtd" >
<svg xmlns="http://www.w3.org/2000/svg" xmlns:xlink="http://www.w3.org/1999/xlink" version="1.1" viewBox="-10 0 593 1000">
  <g transform="matrix(1 0 0 -1 0 800)">
   <path fill="currentColor"
d="M156.721 516.286q26.6436 0 37.2256 -3.35352q10.583 -3.35352 19.918 -18.6465q10.1484 -15.9844 18.3164 -31.4502q8.16797 -15.4668 17.6523 -35.0049q9.4834 -19.5381 16.6025 -32.9736q7.25195 -7.54395 17.7139 -7.54395q10.4629 0 17.7148 7.54395
q3.33691 4.13477 13.0332 16.3477q9.69629 12.2139 16.7705 20.957q7.0752 8.74219 17.6748 21.5889q10.5996 12.8467 18.9902 22.0957q8.39062 9.24902 17.2549 18.3711q8.86426 9.12109 15.9316 14.5186q7.06738 5.39844 11.7734 6.69238q24.458 2.13574 49 2.13574
q24.541 0 49 -2.13574q5.11719 -0.710938 10.3291 -0.931641q5.21289 -0.219727 7.33203 -0.201172q2.12012 0.0185547 4.06055 -0.740234q1.93945 -0.758789 2.39453 -2.5332q0.455078 -1.77344 0.455078 -5.59375q0 -13.7598 -9.82129 -17.7842t-24.9287 -2.62207
q-15.1074 1.40234 -17.8213 0.691406q0 -328.856 -9.14355 -378.285q-5.21777 -25.7188 -55.7139 -24.5713q-5.64844 0.12793 -15.6885 -0.389648q-10.04 -0.518555 -16.6982 -0.591797q-6.65723 -0.0742188 -13.6611 0.750977q-7.00391 0.826172 -10.458 4.00293
q-3.45312 3.17676 -3.20898 8.79883q0.279297 6.42871 8.24121 9.32129q7.96191 2.89258 17.5889 3.65625t18.5547 6.72754q8.92773 5.96387 10.7588 17.7236q5.22852 33.4092 7.74805 83.9326q2.52051 50.5225 3.93164 118.42q1.41113 67.8975 2.60547 95.3613v57.1426
q-29.1475 -13.957 -48.2852 -40q-13.1904 -16.2246 -55.3281 -71.332q-42.1367 -55.1074 -56.958 -72.9531q-4.37305 -5.71582 -11.5713 -5.71582q-7.19824 0 -11.5713 5.71582l-88.5713 172.857q-1.43262 -219.547 -3.42871 -424.857q0 -23.5488 20.46 -25.2002
q23.1143 -1.86621 34.7578 26.1865q1.06152 2.55762 1.9248 5.29883q3.90137 13.9014 4.39258 27.4287q0.491211 13.5283 -4.39258 18q-14.2852 7.42969 -14.2852 24.2861q0 28.5713 26.8564 28.5713q15.9727 0 22.2715 -17.208q6.2998 -17.208 6.2998 -55.0781
q-2.70215 -27.7822 -22.542 -55.7432q-19.8408 -27.96 -45.1719 -39.6846q-16.0527 -11.0947 -35.5713 -11.0947t-35.5713 11.0947q-8.48633 5.1709 -12.3076 18.6455q-3.82031 13.4736 -3.48145 29.375q0.338867 15.9023 0.645508 33.6934l7.42871 414.286
q-57.1426 -5.96484 -57.1426 12q-0.121094 5.64258 1.93945 9.36914t6.36719 5.86621q4.30664 2.13867 10.8857 3.16211q6.57812 1.02246 15.4932 1.25781t20.1914 0.15332q11.2773 -0.0820312 24.9795 -0.151367q13.7031 -0.0703125 29.8574 0.342773z" />
  </g>

</svg>
