<?xml version="1.0" standalone="no"?>
<!DOCTYPE svg PUBLIC "-//W3C//DTD SVG 1.1//EN" "http://www.w3.org/Graphics/SVG/1.1/DTD/svg11.dtd" >
<svg xmlns="http://www.w3.org/2000/svg" xmlns:xlink="http://www.w3.org/1999/xlink" version="1.1" viewBox="-10 0 828 1000">
  <g transform="matrix(1 0 0 -1 0 800)">
   <path fill="currentColor"
d="M750.781 310q6.54395 0 13.1289 -9.07031t6.58496 -16.3584q0 -6.10742 -8.02246 -12.9111q-8.02246 -6.80273 -11.6914 -6.80273q-7.3125 0 -14.5137 9.62305q-7.20117 9.62207 -7.20117 13.8057q1.63086 7.35938 7.99316 13.7217q6.3623 6.3623 13.7217 7.99219z
M712.495 401.714v-4q-1.0293 -9.38867 -9.71387 -12.6875q-8.68555 -3.29883 -18.8574 -2.14746q-10.1719 1.15039 -19.4287 -0.307617q-7.62109 -1.0332 -15.5674 -23.4512q-7.94629 -22.417 -21.0557 -75.1924q-13.1104 -52.7754 -18.8057 -72.7852
q-20.9961 -74.9834 -43.7559 -130.322q-22.7607 -55.3379 -40.2441 -60.249q-65.1074 -14.3154 -131.714 -17.1426q-24.7246 -2.64941 -49.5693 -2.64941q-33.9639 0 -67.5732 4.93457q-27.7207 6.44922 -50.5752 30.8936q-22.8535 24.4443 -27.4248 52.5352
q-2.43164 14.3691 -8.49902 70.0576q-6.06738 55.6875 -11.501 83.6572q-39.7598 -47.4854 -72.5723 -100q-3.66699 -7.7207 2.76367 -14.4287q6.43164 -6.70898 16.3838 -10.8789q9.95215 -4.16992 18.6885 -10.3447q8.73633 -6.1748 8.73633 -12.6338
q0 -14.8574 -24.5723 -14.8574q-33.2207 6.12402 -65.4277 16.2861q-5.91016 1.76367 -9.44043 5.54102t-3.75586 9.75q-0.225586 5.97168 3.22559 13.2119q3.4502 7.24023 12.6328 16.6758q9.18262 9.43555 23.3379 19.3926q13.7754 9.7959 42.9785 59.2324
q29.2041 49.4365 28.4492 77.9102q-4.87891 7.64844 -13.7139 9.71484q-15.2686 2.18066 -31.6973 -6.52539q-16.4287 -8.70703 -19.4453 -9.18945q-16.8447 -2.69434 -22.8574 12.5723q-1.58008 4.27246 1.12695 8.63184q2.70801 4.35938 8.92578 8.16016t13.3984 7.16211
q7.18066 3.36133 16.3271 6.40039q9.14648 3.03906 15.8125 5.0625q6.66602 2.02441 13.7539 3.96191q7.08691 1.93848 8.36914 2.33496q34.1973 10.4766 56.3984 -10.832q22.2012 -21.3076 29.3164 -56.8818q0.355469 -1.81445 4.76562 -33.9521
q4.41016 -32.1387 9.5127 -65.3945q5.10352 -33.2568 13.6123 -69.3828q8.50879 -36.126 16.9668 -51.2705q5.9707 -10.5635 18.6943 -19.2695q12.7246 -8.70605 24.7334 -10.4453q20.8789 -3.16113 42 -3.16113t42 3.16113q4.62891 0.356445 13.8682 0.958984
t11.6904 0.84668q2.45117 0.244141 8.59766 1.22852q6.14648 0.985352 8.52148 2.24609q2.37598 1.26172 7.26855 3.74805q4.89355 2.48633 9.03125 5.88477q4.13867 3.39844 9.87988 8.51562q21.1777 18.665 68.5713 171.429q12.6406 40.4072 25.0332 84.0605
q12.3936 43.6533 18.0283 61.3076q5.63477 17.6543 11.5098 27.4893q9.73047 15.5693 68.2861 18.5713q46.875 2.40332 44.5713 -13.1436z" />
  </g>

</svg>
