<?xml version="1.0" standalone="no"?>
<!DOCTYPE svg PUBLIC "-//W3C//DTD SVG 1.1//EN" "http://www.w3.org/Graphics/SVG/1.1/DTD/svg11.dtd" >
<svg xmlns="http://www.w3.org/2000/svg" xmlns:xlink="http://www.w3.org/1999/xlink" version="1.1" viewBox="-10 0 638 1000">
  <g transform="matrix(1 0 0 -1 0 800)">
   <path fill="currentColor"
d="M274.854 3.71387q-58.4717 1.34961 -99.8545 43.6982q-41.3818 42.3477 -41.3818 100.835q0 2.56934 0.0927734 5.18164q-0.856445 43.9023 12.9053 87.7812q13.7607 43.8779 28 80.6279q14.2383 36.75 14.2383 62.4482q0.529297 4.68945 0.529297 9.40234
q0 20.2246 -12.4609 41.5791t-30.0684 31.3037q-15.666 8.7666 -29.2637 5.27246t-20.5586 -10.2363q-6.96094 -6.74219 -17.0762 -15.9688q-10.1143 -9.22754 -18.8164 -11.9248q-14.7959 -3.94531 -16 8.5q-1.2041 12.4463 8 20.0723q7.70605 7.15527 19.9951 19.2402
q12.29 12.085 17.3984 16.6172q5.1084 4.53223 13.5928 9.86523q8.48438 5.33203 17.585 7.99121q26.3906 7.51074 46.2734 -2.09766q19.8838 -9.6084 30.4004 -31.2295t15.4932 -45.9756t4.97656 -50.4111q-0.131836 -36.4062 -18.8174 -109.278
q-18.6855 -72.873 -14.8975 -112.722q5.37598 -56.5518 37.1895 -94.4189q31.8125 -37.8672 74.5254 -37.8672q71.1309 0 113.47 49.0723q42.3379 49.0723 60.2441 130.356q12.9062 43.249 2.67871 123.607q-10.2275 80.3574 -5.25 125.535
q0.553711 12.0615 8.08789 25.2881q7.53418 13.2266 17.626 19.8545q11.875 7.68359 33.2188 11.2773t38.0391 0.68457q16.6963 -2.91016 15.8857 -11.9619q-1.14648 -9.45508 -9.09277 -13.0146t-17.1855 -3.15332q-9.23828 0.407227 -18.4844 -3.24902
q-9.24609 -3.65527 -12.3809 -13.1543q-8.35645 -25.8828 -5.75684 -78.4648q2.60059 -52.583 5.41895 -94.5928q2.81738 -42.0107 -11.0898 -90.6562q-28.916 -85.6855 -82.4854 -137.25q-53.5693 -51.5654 -126.372 -65.6074q-14.1387 -2.83105 -28.5713 -2.85742z
M399.14 198q-7.69727 -19.126 -27.7051 -33.6084q-20.0068 -14.4834 -40.5801 -15.8203q-27.3662 -2.10449 -54.6826 10.8662q-27.3174 12.9707 -27.3174 33.1338q0.392578 9.61133 9.96387 12.4639q9.57227 2.85352 16.6074 -1.03516q2.80859 -1.17676 28.5391 -17.208
q25.7314 -16.0322 39.4609 -14.5059q23.2324 2.74512 30.7139 32.2852q7.48242 29.54 -9.57129 46q-7.67773 7.28125 -24.9258 22.4688q-17.248 15.1865 -24.2744 22.5918q-7.02637 7.40527 -17.1426 20.6211q-10.1162 13.2168 -14.3311 27.3926
q-4.21582 14.1758 -5.04004 32.0684q0.361328 28.9268 21.0381 50.8604q20.6777 21.9326 49.5332 23.9971q5.8125 0.336914 11.668 0.336914q29.3457 0 57.4746 -8.33691q7.59766 -3.66211 7.59766 -12.0967q0 -6.44238 -5.02637 -10.4746
q-4.84277 -3.66504 -33.3125 2.3291q-28.4707 5.99414 -36.9727 0.52832q-8.29883 -6.60645 -14.1719 -18.7891q-5.87305 -12.1816 -5.87305 -22.7891q0 -7.95605 2.33008 -15.5654q3.36621 -20.5205 31.2051 -47.4717q27.8379 -26.9521 34.7949 -39.6709
q9.10156 -19.1143 9.10156 -40.2852q0 -21.1719 -9.10156 -40.2861z" />
  </g>

</svg>
