<?xml version="1.0" standalone="no"?>
<!DOCTYPE svg PUBLIC "-//W3C//DTD SVG 1.1//EN" "http://www.w3.org/Graphics/SVG/1.1/DTD/svg11.dtd" >
<svg xmlns="http://www.w3.org/2000/svg" xmlns:xlink="http://www.w3.org/1999/xlink" version="1.1" viewBox="-10 0 729 1000">
  <g transform="matrix(1 0 0 -1 0 800)">
   <path fill="currentColor"
d="M133.627 514.286q0.821289 0 31.4639 -0.857422q30.6426 -0.857422 37.6787 -0.857422q0.882812 0 12.2607 0.19043q11.3789 0.191406 15.1768 -0.0966797q3.79688 -0.287109 13.8945 -1.10938q10.0986 -0.821289 14.5713 -3.13477q4.47363 -2.31445 10.6416 -5.86816
t8.66895 -9.6123q2.5 -6.05859 2.5 -14.083q0 -13.7061 -16.0908 -36.3057q-16.0908 -22.5986 -15.623 -49.4092q0 -27.3662 28.7285 -51.7646q28.7295 -24.3984 54.4141 -25.0918q17.9443 0 31.126 4.12402q13.1826 4.12402 23.3555 14.5195
q10.1738 10.3955 14.6445 16.7305q4.47168 6.33496 13.7314 21.7686q9.32031 15.9873 15.917 40.3994q6.59668 24.4131 6.59668 42.9189q0 10.6699 -1.37109 21.2529q0 9.53223 2.66211 13.7646q2.66113 4.23242 13.0527 10.8066q8.62305 5.53418 27.6719 7.4502
q19.0479 1.91504 38.8467 1.29102q19.7979 -0.625 41.1953 0.401367q24.8018 2.37598 49.7148 2.37598q24.9141 0 49.7139 -2.37598q4.38867 -1.89453 6.63281 -5.10449q2.24512 -3.21094 2.56445 -5.19141q0.319336 -1.98145 -0.0107422 -6.29102
q-0.329102 -4.31055 -0.329102 -4.55566q0 -11.2129 -6.19336 -16.918q-6.19336 -5.70605 -15.8047 -13.7822t-15.1455 -22.4424q-26.3721 -72.5518 -73.4199 -170.581q-47.0469 -98.0293 -87.1514 -163.99q-35.0898 -49.54 -68.7881 -74.6133
q-33.6982 -25.0723 -82.3545 -21.958q-25.5518 1.73242 -55.6328 22.9512t-30.0811 38.1914q-0.126953 1.43359 -0.126953 2.88281q0 13.0742 9.24512 22.6934q9.24609 9.62012 22.3096 10.1377q17.6104 0 27.8271 -5.53613t12.7451 -23.0352q0 -1.5 -1.71387 -11.6426
q-1.71484 -10.1436 -1.71484 -12.9287q-0.262695 -1.66797 -0.262695 -3.36816q0 -8.98926 6.3623 -15.3516q6.36133 -6.3623 15.3516 -6.3623q1.56934 0 3.12012 0.224609q24.8711 0.254883 44.5713 15.4287q34.9082 33.4072 59.7139 74.8574
q52.1318 99.8662 89.1436 206.285q3.53027 11.7676 15.168 46.1904q11.6377 34.4238 21.0918 62.4775q9.4541 28.0527 9.4541 29.6182q0 8.66211 -3.80664 13.3984q-3.80664 4.73633 -6.62305 5.73438t-12.0645 1.29297q-9.24707 0.293945 -10.6484 0.431641
q-12.9668 1.27148 -21.1768 -3.15625q-8.20898 -4.42773 -13.6807 -20.8438q-8.43848 -42.4717 -21.7139 -83.7148q-13.4453 -35.4248 -49.7773 -60.5391q-36.332 -25.1152 -74.2227 -25.1748q-9.53906 -1.0625 -19.1494 -1.0625q-21.2275 0 -48.8516 8.18066
q-27.623 8.18066 -45.4277 19.7393q-21.3926 13.5312 -32.3496 42.5176q-10.957 28.9863 -11.9678 47.1543t0.03125 34.3281q2.91992 38.7871 -33.7139 42.8564q-13.1787 1.46484 -51.958 2.46191q-38.7793 0.998047 -44.6133 2.10938q-5.22754 0.704102 -8.92773 4.93555
q-3.69922 4.23047 -3.69922 9.50586q0 0.649414 0.0556641 1.27344q0 10.6318 9.24902 15.4277q9.24805 4.7959 19.3223 4.00098q2.53516 0 27.0352 -3.14258q24.5 -3.14355 27.25 -3.14355z" />
  </g>

</svg>
