<?xml version="1.0" standalone="no"?>
<!DOCTYPE svg PUBLIC "-//W3C//DTD SVG 1.1//EN" "http://www.w3.org/Graphics/SVG/1.1/DTD/svg11.dtd" >
<svg xmlns="http://www.w3.org/2000/svg" xmlns:xlink="http://www.w3.org/1999/xlink" version="1.1" viewBox="-10 0 324 1000">
  <g transform="matrix(1 0 0 -1 0 800)">
   <path fill="currentColor"
d="M128.5 -97.5q-35.5 33.5 -35.5 82.5q0 21 6.5 44.5t18.5 58.5q7 20 13 39.5t6 32.5q0 62 -92 85l4 32q39 11 63.5 31t24.5 48q0 14 -6 35.5t-14 43.5q-24 66 -24 100q0 50 36.5 83t99.5 33q28 0 64 -7l5 -7l-10 -41q-29 5 -44 5q-30 0 -44.5 -18.5t-14.5 -46.5
q0 -25 13 -81q14 -64 14 -88q0 -40 -21 -64t-52 -33v-6q73 -26 73 -102q0 -27 -14 -93q-13 -58 -13 -82q0 -29 15 -47.5t46 -18.5q18 0 46 6l5 -8l-9 -39q-29 -11 -65 -11q-59 0 -94.5 33.5z" />
  </g>

</svg>
