<?xml version="1.0" standalone="no"?>
<!DOCTYPE svg PUBLIC "-//W3C//DTD SVG 1.1//EN" "http://www.w3.org/Graphics/SVG/1.1/DTD/svg11.dtd" >
<svg xmlns="http://www.w3.org/2000/svg" xmlns:xlink="http://www.w3.org/1999/xlink" version="1.1" viewBox="-10 0 359 1000">
  <g transform="matrix(1 0 0 -1 0 800)">
   <path fill="currentColor"
d="M203.715 656.287q34.3232 -0.629883 58.6143 -24.5215q24.292 -23.8926 24.292 -57.0205q0 -1.53711 -0.0605469 -3.07129q0.5 -24.7861 -7.52832 -49.5762q-8.02832 -24.792 -16.3359 -45.5703q-8.30664 -20.7773 -8.30664 -35.3125q-0.31543 -2.66895 -0.31543 -5.3584
q0 -11.4014 7.27246 -23.4531q7.27148 -12.0508 17.5469 -17.6787q9.13184 -4.91016 16.9551 -2.94531t11.7988 5.80078q3.97559 3.83691 9.92285 8.99805q5.94922 5.16211 11.3301 6.64648q8.75586 2.33398 9.46094 -4.72559q0.704102 -7.06055 -4.79297 -11.3613
q-4.44141 -3.97949 -11.6592 -10.8242q-7.21875 -6.84473 -10.1865 -9.37207q-2.96875 -2.52734 -7.96289 -5.53809q-4.99316 -3.00977 -10.3643 -4.50684q-15.3975 -4.28711 -27.0234 1.11816q-11.625 5.4043 -17.793 17.6025q-6.16699 12.1973 -9.09668 25.9756
q-2.92871 13.7783 -2.92871 28.4961q0.15332 20.6152 10.9727 61.6523q10.8193 41.0361 8.69629 63.6592q-3.00195 31.9932 -21.6797 53.3965q-18.6768 21.4033 -43.6631 21.4033q-41.6367 0 -66.3584 -27.585t-35.1572 -73.4355q-7.49414 -24.5527 -1.5 -69.835
q5.99316 -45.2812 3 -70.9199q-0.288086 -6.83301 -4.68359 -14.3271q-4.39648 -7.49414 -10.3184 -11.25q-6.9248 -4.40234 -19.4219 -6.45605q-12.4961 -2.05371 -22.2773 -0.384766q-9.78223 1.66797 -9.30859 6.84082q0.612305 5.32422 5.23535 7.32812t10.0312 1.77441
q5.40918 -0.228516 10.8262 1.83008t7.24512 7.40625q4.87695 14.7705 3.3584 44.4805q-1.51758 29.7109 -3.16016 53.3467q-1.64355 23.6367 6.46973 51.1309q16.4385 48.3076 47.9902 77.5322q31.5508 29.2256 74.1953 37.1621q8.00098 1.44922 16.1436 1.44922
q0.235352 0 0.525391 -0.000976562zM131.037 546.579q4.37988 10.6768 16.1025 19.0186q11.7217 8.34277 23.9033 9.13281q15.9502 1.18359 31.9795 -6.19727q16.0283 -7.37988 16.0283 -18.7373q-0.228516 -5.39062 -5.83496 -6.95703q-5.60547 -1.56641 -9.83398 0.522461
q-1.60449 0.649414 -16.6318 9.72949q-15.0283 9.08105 -23.041 8.12695q-13.6797 -1.5459 -18.0449 -18.1777q-4.36426 -16.6318 5.70996 -25.8994q4.53809 -4.18164 14.5488 -12.7334q10.0117 -8.55273 14.1475 -12.7686q4.13672 -4.21582 10.0166 -11.667
t8.34668 -15.4707t2.94727 -18.1387q-0.147461 -16.3486 -12.2109 -28.7441q-12.0645 -12.3955 -28.9619 -13.5625q-3.18945 -0.166016 -6.37793 -0.166016q-17.4297 0 -34.1279 4.83008q-4.43262 2.0625 -4.43262 6.81055q0 3.62793 2.93262 5.89746
q2.79492 1.96875 19.4072 -1.44629q16.6133 -3.41504 21.5986 -0.322266q4.89746 3.71875 8.36328 10.6074q3.46582 6.88965 3.46582 12.9033q0 4.4248 -1.32715 8.66113q-1.96289 11.6318 -18.2773 26.8779q-16.3145 15.2451 -20.3955 22.5068
q-5.30957 10.7617 -5.30957 22.6816q0 11.9189 5.30957 22.6816z" />
  </g>

</svg>
