<?xml version="1.0" standalone="no"?>
<!DOCTYPE svg PUBLIC "-//W3C//DTD SVG 1.1//EN" "http://www.w3.org/Graphics/SVG/1.1/DTD/svg11.dtd" >
<svg xmlns="http://www.w3.org/2000/svg" xmlns:xlink="http://www.w3.org/1999/xlink" version="1.1" viewBox="-10 0 478 1000">
  <g transform="matrix(1 0 0 -1 0 800)">
   <path fill="currentColor"
d="M131.5 330.5q-46.5 27.5 -74 74t-27.5 102.5t27.5 102.5t74 74t102.5 27.5t102.5 -27.5t74 -74t27.5 -102.5t-27.5 -102.5t-74 -74t-102.5 -27.5t-102.5 27.5zM317.5 362q38.5 23 61.5 61.5t23 83.5t-23 83.5t-61.5 61.5t-83.5 23t-83.5 -23t-61.5 -61.5t-23 -83.5
t23 -83.5t61.5 -61.5t83.5 -23t83.5 23zM154.725 592.334q-8.13379 0 -10.9678 4.94629q-1.9873 3.46777 2.76074 16.8262q4.74707 13.3584 9.51953 14.8271q2.22168 0.683594 2.75195 -2.65723q0.530273 -3.33984 0.164062 -7.82227q-0.366211 -4.48145 0.814453 -8.35938
t4.51855 -4.01074q7.90918 0 32.4463 -0.395508q24.5371 -0.396484 32.5166 -0.396484q4.3877 0 6.02051 -2.41895q1.63379 -2.41992 1.94727 -7.47266q0.166992 -2.68164 -11.9492 -18.9043q-12.1162 -16.2217 -24.3154 -31.1035l-12.1992 -14.8818h45.7461
q4.98047 0 5.21387 -6.80078t-2.30859 -11.1035q-1.49414 -3.26953 -10.1621 -21.3154t-12.2275 -26.5547q-3.55859 -8.50879 -7.64551 -22.9629q-4.08594 -14.4541 -4.08594 -25.5127q-0.0195312 -0.654297 -0.0195312 -1.32031q0 -9.42383 5.2793 -19.7607
q5.27832 -10.3369 12.7383 -15.5186q28.3154 -14.583 49.4951 -3.16504q20.7715 11.1963 38.6211 64.6914q6.14258 20.6191 11.498 50.4717q5.35645 29.8525 6.78223 51.4141q0.0615234 2.85254 0.0615234 5.68066q0 25.666 -4.93652 50.8018h-7.68652
q-1.75781 0 -3.30078 2.47266t-0.898438 4.94629q0.644531 2.47266 4.19922 2.47266h39.6523q4.28613 0 5.08984 -2.47266q0.802734 -2.47363 -1.05469 -4.94629q-1.8584 -2.47266 -4.03516 -2.47266h-7.40527q4.1582 -30.0449 4.1582 -60.4053
q0 -2.75977 -0.0332031 -5.47461q-0.452148 -26.0469 -8.85645 -60.8271q-8.40527 -34.7793 -19.8291 -57.874q-7.28711 -14.3369 -22.4209 -29.1475t-29.2305 -21.3994q-16.2158 -7.42773 -33.8926 -7.42773q-11.7715 0 -23.1016 3.37207
q-7.17188 2.77832 -12.5059 5.91602q-5.33398 3.13965 -11.8828 9.15332q-6.54883 6.01465 -9.99414 15.8545q-3.44531 9.84082 -3.11426 22.6895q0.416016 16.1787 8.92383 41.7988q8.50684 25.6191 16.8057 43.1494l8.29883 17.5312h-49.6826q-3.36133 0 -5.07422 3.96875
q-1.71387 3.96875 0.199219 8.49414q1.20801 2.68164 13.8398 18.5332t24.6592 30.3623l12.0273 14.5107h-51.9326z" />
  </g>

</svg>
