<?xml version="1.0" standalone="no"?>
<!DOCTYPE svg PUBLIC "-//W3C//DTD SVG 1.1//EN" "http://www.w3.org/Graphics/SVG/1.1/DTD/svg11.dtd" >
<svg xmlns="http://www.w3.org/2000/svg" xmlns:xlink="http://www.w3.org/1999/xlink" version="1.1" viewBox="-10 0 574 1000">
  <g transform="matrix(1 0 0 -1 0 800)">
   <path fill="currentColor"
d="M128 -77.5q-40 25.5 -40 69.5q0 21 12 49.5t28 48.5h16q1 -64 27 -99t69 -35q39 0 59.5 17t28.5 53.5t8 101.5v443q0 10 -4 12t-23 2q-44 0 -67 -39t-23 -106q0 -69 15.5 -116t51.5 -96v-19q-110 7 -181 66t-71 165q0 57 27 103.5t76.5 73t114.5 26.5q31 0 85 -2
q40 -2 51 -2q34 0 133 3l-6 -51l-2 -4q-41 1 -56 -8.5t-17 -36.5q-5 -36 -8 -164.5t-3 -216.5q0 -128 -46.5 -196t-157.5 -68q-57 0 -97 25.5z" />
  </g>

</svg>
