<?xml version="1.0" standalone="no"?>
<!DOCTYPE svg PUBLIC "-//W3C//DTD SVG 1.1//EN" "http://www.w3.org/Graphics/SVG/1.1/DTD/svg11.dtd" >
<svg xmlns="http://www.w3.org/2000/svg" xmlns:xlink="http://www.w3.org/1999/xlink" version="1.1" viewBox="-10 0 785 1000">
  <g transform="matrix(1 0 0 -1 0 800)">
   <path fill="currentColor"
d="M201 168l-41 16l-3 10l438 793l43 -17l3 -12zM223.126 766.571q14.3262 -0.232422 38.0576 -0.335938q37.418 -0.163086 50.1582 -1.7998t13.2129 -8.72168q0.969727 -9.69922 -6.87988 -14.1982q-7.84961 -4.5 -17.9678 -4.62988q-10.1191 -0.128906 -19.2734 -1.78125
q-9.15332 -1.65137 -10.165 -6.24707l-12.2852 -120.857l302.285 33.7139q0.964844 13.0254 3.04297 32.6855q2.07812 19.6592 10.3906 55.2012q8.31348 35.542 18.8525 41.2568q14.4307 6.20703 30.1426 6.20703q15.7129 0 30.1436 -6.20703
q3.09473 -1.38574 5.35059 -4.38965q2.25586 -3.00293 3.39355 -7.86621t1.87891 -9.44336q0.740234 -4.58008 0.507812 -11.7256t-0.399414 -11.9336q-0.167969 -4.78809 -1.16406 -12.8477q-0.996094 -8.05859 -1.46582 -11.6865q-0.46875 -3.62695 -1.62207 -11.2314
t-1.33691 -8.87598q-12.083 -99.4727 -36.3604 -239.024t-46.4971 -237.262q-3.6748 -19.7119 -57.1426 -24.5713q-121.398 -11.5049 -177.981 -24.1465t-87.4473 -30.1396q-22.752 -12.8984 -54.7168 -38.0947q-31.9648 -25.1953 -58.5664 -58.5723
q-26.6016 -33.376 -18.1455 -52.7607q7.08691 -17.1934 25.3623 -23.165q18.2754 -5.9707 34.9902 -2.90918q16.7148 3.0625 25.3623 9.78809q10.5732 7.98828 5.0791 21.1006t-12.0635 24.2754t6.98438 27.1953q7.33301 9.37402 44.5713 2.71484
q37.2373 -6.65918 43.7139 -24.7148q9.19336 -25.6621 -30.1367 -54.8633q-39.3301 -29.2021 -77.5771 -40.5654q-21.71 -9.38574 -45.3584 -9.38574q-33.3711 0 -61.499 17.957q-13.4775 8.82617 -23.0166 26.4746q-9.53809 17.6484 -9.53809 33.7598
q0 22.2539 12.5547 40.623q19.3379 39.6523 78.7539 76.6826q59.415 37.0303 124.104 60.46q43.5127 15.7549 106.025 29.3613t93.377 24.2305t35.1689 28.9805q24.5059 92.8623 35.4287 188.285l21.7139 167.429q-189.921 -23.7373 -295.429 -35.7139
q-8.79395 -136.799 -22.8564 -156q-9.77051 -13.2988 -25.9609 -15.0781q-16.1895 -1.78027 -28.1748 7.01367t-11.293 22.6357q6.33691 134.912 10.8857 212.183q4.5498 77.2705 5.11426 90.6738q0.321289 5.17676 -8.87988 5.56738q-9.20117 0.389648 -20.3711 -1.95996
q-11.1689 -2.34961 -20.5312 2.37988q-9.36133 4.72949 -9.36133 18.585q-0.338867 16.2852 94.8574 16.2852zM716.841 359.714q9.41992 -0.941406 9.78516 -18.8926t-3.5 -36.25q-5.03125 -34.3438 -25 -40.7139t-34.4287 24.4287q-2.56445 8.08789 -2.56445 16.5771
q0 22.7109 16.0732 38.7842t38.7842 16.0732q0.438477 0 0.850586 -0.00683594z" />
  </g>

</svg>
