<?xml version="1.0" standalone="no"?>
<!DOCTYPE svg PUBLIC "-//W3C//DTD SVG 1.1//EN" "http://www.w3.org/Graphics/SVG/1.1/DTD/svg11.dtd" >
<svg xmlns="http://www.w3.org/2000/svg" xmlns:xlink="http://www.w3.org/1999/xlink" version="1.1" viewBox="-10 0 566 1000">
  <g transform="matrix(1 0 0 -1 0 800)">
   <path fill="currentColor"
d="M54 43q46 9 61.5 26.5t15.5 59.5l1 404q0 32 -7.5 43t-29.5 11q-13 0 -39 -2l-3 6l7 50l28 -1l100 -1q43 0 127 8l-5 -54q-41 -6 -54 -16t-15 -36q-1 -10 -2 -19.5t0 -14.5h80q107 0 163 -43t56 -126q0 -52 -32.5 -96t-87.5 -70t-119 -26h-71v-33q0 -36 8 -48t33 -12
q24 0 51 3l3 -5l-9 -54q-96 3 -140 3q-50 0 -126 -11zM402 240.5q27 30.5 27 82.5q0 63 -40.5 92t-127.5 29q-15 0 -19.5 -2t-5.5 -9q-5 -120 -7 -214q17 -6 45.5 -10.5t48.5 -5.5q52 7 79 37.5z" />
  </g>

</svg>
