<?xml version="1.0" standalone="no"?>
<!DOCTYPE svg PUBLIC "-//W3C//DTD SVG 1.1//EN" "http://www.w3.org/Graphics/SVG/1.1/DTD/svg11.dtd" >
<svg xmlns="http://www.w3.org/2000/svg" xmlns:xlink="http://www.w3.org/1999/xlink" version="1.1" viewBox="-10 0 973 1000">
  <g transform="matrix(1 0 0 -1 0 800)">
   <path fill="currentColor"
d="M313.466 371.429q27.7295 2.13281 55.3232 -10.8555q27.5938 -12.9893 26.3906 -33.4307q-0.390625 -9.77734 -10.1074 -12.5713q-9.71582 -2.79395 -16.749 1.14258q-3.13672 1.29688 -28.8564 17.3516q-25.7207 16.0557 -39.4297 14.3633
q-23.6211 -2.74219 -31.0352 -32.4648q-7.41504 -29.7217 9.89258 -46.3926q7.98047 -7.66992 24.8643 -22.6465q16.8828 -14.9766 24.1641 -22.6201q7.28125 -7.64258 17.2803 -20.7812q9.99805 -13.1377 14.29 -27.4199q4.29102 -14.2812 5.11523 -32.2461
q-0.478516 -29.0371 -21.3223 -50.9697q-20.8447 -21.9336 -49.8203 -23.8877q-6.32129 -0.40625 -12.6748 -0.40625q-29.1416 0 -57.04 8.40625q-7.75488 3.74219 -7.75488 12.3516q0 6.39453 4.89844 10.5059q4.93262 3.50488 33.627 -2.5625
q28.6943 -6.06738 37.2295 -0.581055q8.3584 6.67773 14.2734 18.9736q5.91504 12.2959 5.91504 22.9941q0 7.74512 -2.18848 15.1758q-3.36914 20.6953 -31.4512 47.8174q-28.083 27.1221 -35.1201 39.8965q-9.11426 19.2617 -9.11426 40.5713q0 21.3115 9.11426 40.5713
q7.94727 19.625 28.541 34.1914q20.5938 14.5674 41.7451 15.5234zM889.751 55.4287q12.6074 -0.398438 15.4707 -13.3682q2.8623 -12.9707 -3.22559 -26.0254q-6.08887 -13.0557 -15.3877 -13.749q-306.108 7.14258 -342.857 7.14258q-4.16699 -0.553711 -8 -2.28613
q-6.40234 -3.49414 -13.4277 -5.42871q-26.4912 -7.71387 -46.4824 1.91211q-19.9912 9.625 -30.585 31.4131q-10.5938 21.7891 -15.6211 46.3818q-5.02637 24.5918 -5.02637 50.8652q0.259766 35.7012 19.0352 109.075q18.7754 73.375 14.9648 114.067
q-5.3584 57.2344 -37.4014 95.332q-32.042 38.0967 -74.8838 38.0967q-71.7949 0 -114.532 -49.3662q-42.7373 -49.3662 -60.6113 -131.205q-12.9111 -43.6797 -2.53516 -124.607q10.375 -80.9277 5.39258 -126.536q-0.132812 -12.2363 -7.24805 -25.9648
q-7.11621 -13.7295 -17.0381 -20.8916q-11.8672 -7.81934 -33.3594 -11.4678q-21.4912 -3.64844 -38.3281 -0.683594q-16.8369 2.96387 -16.0264 12.1514q0.956055 9.45996 8.81836 13.0605q7.86133 3.60156 17.1318 3.24805q9.27051 -0.352539 18.6172 3.35059
q9.34766 3.70312 12.5752 13.1973q8.35645 25.8809 5.75684 78.7832q-2.59961 52.9023 -5.41797 95.291q-2.81836 42.3887 11.0898 91.3545q28.623 86.0811 82.6895 138.032q54.0654 51.9512 127.311 66.2539q14.1748 2.44922 28.5713 2.57129
q59.1689 -1.13477 101.045 -43.8213t41.876 -101.866q0 -2.16504 -0.0634766 -4.3125q-0.0175781 -50.4414 -16 -98.2861q7.10059 6.33984 15.9727 13.1045q8.87305 6.76465 21.6738 16.0771q12.8008 9.31152 21.4961 15.9619q38.8242 30.1729 97.4238 67.0908
q58.6006 36.918 102.576 58.9092q47.458 27.5186 98 48.8564q4.76367 2.4502 9.4502 -2.32715q4.68555 -4.77832 5.00488 -10.9639q0.319336 -6.18457 -4.45508 -10.1377q-65.6416 -36.7812 -155.049 -94.293q-89.4062 -57.5117 -150.094 -101.992
q19.7139 0 55.8574 -0.761719q36.1426 -0.761719 65.7139 -0.761719q29.5723 0 55.8574 1.52344q15.999 0.716797 25.9287 -9.57129q9.92871 -10.2881 -1.07129 -23.2861q-15.6611 -15.8516 -44.4053 -44.8184q-28.7451 -28.9668 -52.332 -52.8398
q-23.5879 -23.873 -44.4062 -45.1992q-22.8936 -22.8936 -14.2021 -25.083q1.36816 -0.344727 3.3457 -0.344727q70.6943 -2.29004 281.428 -10.8574zM455.466 134.571q-0.311523 -3.64648 -0.311523 -7.30469q0 -20.5869 12.6484 -42.3887t30.5205 -32.0205
q9.8877 -5.9834 21.4463 -5.9834q16.5576 0 28.5537 11.4121q23.2471 26.2314 68.3955 72.542q45.1484 46.3096 63.0322 65.7432q24.0518 25.1426 7.71484 25.1426h-154.571q-4.44629 0.383789 -8.91113 0.383789q-17.6094 0 -34.2324 -5.81152
q-16.2314 -10.6582 -23.7139 -28.5723q-9.31152 -25.7715 -10.5713 -53.1426z" />
  </g>

</svg>
