<?xml version="1.0" standalone="no"?>
<!DOCTYPE svg PUBLIC "-//W3C//DTD SVG 1.1//EN" "http://www.w3.org/Graphics/SVG/1.1/DTD/svg11.dtd" >
<svg xmlns="http://www.w3.org/2000/svg" xmlns:xlink="http://www.w3.org/1999/xlink" version="1.1" viewBox="-10 0 459 1000">
  <g transform="matrix(1 0 0 -1 0 800)">
   <path fill="currentColor"
d="M387.205 264.571q-8.59375 -28.8027 -16.2217 -38.0312q-7.62793 -9.22949 -23.207 -3.96875q-11.6025 3.79688 -14.7852 11.0361q-3.18359 7.23828 0.213867 20.6787h-223.714q-7.04297 -21.1309 -14.416 -28.0635q-7.37207 -6.93262 -21.2988 -2.22266
q-14.2432 4.81738 -15.6064 17.1426q-1.36426 12.3252 8.17773 38.5713q0.212891 0.607422 0.630859 1.80371q3.25 9.30273 4.80664 13.5449q1.55566 4.24121 4.24219 10.6895q2.68555 6.44922 4.51758 8.95605t4.71777 5.78906q2.88574 3.2832 5.81836 3.91309
t6.84375 0.603516q3.91113 -0.0253906 8.70898 -1.58496q12.7998 -4.2666 15.7861 -11.6787t-0.928711 -19.1787h223.714q7.74707 21.4189 14.5342 27.5508t20.8945 1.02051q4.35547 -1.13574 7.51367 -2.54785t5.0752 -3.55957q1.91602 -2.14844 3.11035 -4.02637
q1.19336 -1.87793 1.21777 -5.2666q0.0244141 -3.38965 -0.172852 -5.875t-1.49023 -7.25684t-2.30762 -8.00488t-3.05273 -9.52832q-2.03711 -6.29492 -3.32227 -10.5059z" />
  </g>

</svg>
