<?xml version="1.0" standalone="no"?>
<!DOCTYPE svg PUBLIC "-//W3C//DTD SVG 1.1//EN" "http://www.w3.org/Graphics/SVG/1.1/DTD/svg11.dtd" >
<svg xmlns="http://www.w3.org/2000/svg" xmlns:xlink="http://www.w3.org/1999/xlink" version="1.1" viewBox="-10 0 543 1000">
  <g transform="matrix(1 0 0 -1 0 800)">
   <path fill="currentColor"
d="M252.354 336.286q10.0361 0 49.1074 -2.71387q39.0713 -2.71484 40.3213 -2.71484q2.92871 0 29.2148 2.71484q26.2852 2.71387 27.9287 2.71387q16.3125 0 32.7227 -3.77832q16.4111 -3.7793 32.3633 -16.3486q15.9531 -12.5684 18.0566 -32.1592
q0.759766 -7.85938 0.759766 -15.7412q0 -21.041 -5.33105 -41.4014q-2.0498 -12.2285 -7.97656 -21.3213q-5.92773 -9.09277 -17.0586 -14.1318q-11.1299 -5.03809 -18.7432 -8.09863q-7.61426 -3.06055 -23.3203 -4.05957q-15.7061 -1 -19.8154 -1.12305
q-4.1084 -0.123047 -18.5146 -0.123047q-1.85742 0 -54.4287 5.42871t-54.4287 5.42871q-0.494141 0 -31.498 0.626953q-31.0029 0.62793 -62.9082 1.12695q-31.9062 0.499023 -37.5938 0.246094q-7.84082 -1.93945 -15.9141 -1.93945q-16.0811 0 -30.3711 7.36816
q-8.92578 6.59473 -8.92578 17.6934q0 0.876953 0.0683594 1.73438q0.701172 13.5195 10.6631 24.5703t23.3369 13.1445q2.20605 0 13.2734 -9.08203q11.0684 -9.08105 17.8691 -10.3467q10.2383 -1.90527 51.6338 -7.03809q41.3945 -5.13379 51.7949 -5.5332
l107.143 -3.71484q1.50977 0 7.73926 0.731445q6.22949 0.730469 16.1406 1.9668q9.91211 1.23535 15.5488 1.87402q4.3877 0.522461 7.93945 1.94922t5.96289 2.87305q2.41211 1.44629 4.38574 4.54004q1.97461 3.09473 3.02051 4.89258q1.04688 1.79883 2.06543 6.125
q1.01953 4.3252 1.32324 6.04004q0.304688 1.71582 0.991211 6.83789t0.882812 6.45605q0.111328 1.44922 0.111328 2.90625q0 13.7705 -9.65918 24.8066q-9.66016 11.0352 -23.3086 12.8584q-0.0800781 0.0078125 -93.1436 3.14258q-1.5293 0 -15.2607 -0.710938
q-13.7314 -0.709961 -25.1309 -0.491211q-11.3984 0.21875 -25.8672 1.59375q-14.4697 1.37402 -25.1992 6.15918q-10.7305 4.78516 -15.3984 12.5928q-5.19727 8.31445 0.19043 20.4199t17.2373 4.72266q23.8086 -11.3799 50 -14.5713v0.857422z" />
  </g>

</svg>
