<?xml version="1.0" standalone="no"?>
<!DOCTYPE svg PUBLIC "-//W3C//DTD SVG 1.1//EN" "http://www.w3.org/Graphics/SVG/1.1/DTD/svg11.dtd" >
<svg xmlns="http://www.w3.org/2000/svg" xmlns:xlink="http://www.w3.org/1999/xlink" version="1.1" viewBox="-10 0 516 1000">
  <g transform="matrix(1 0 0 -1 0 800)">
   <path fill="currentColor"
d="M200 388.5q-16 17.5 -16 44.5q0 29 18.5 48.5t48.5 19.5q29 0 45.5 -17.5t16.5 -44.5q0 -30 -18.5 -49t-49.5 -19q-29 0 -45 17.5zM17 232l13 67l237 -1q76 0 215 6l6 -11l-9 -69l-227 -1l-228 -1zM200 37.5q-16 17.5 -16 43.5q0 30 18.5 49t48.5 19q29 0 45.5 -17.5
t16.5 -44.5q0 -29 -18.5 -48t-49.5 -19q-29 0 -45 17.5z" />
  </g>

</svg>
