<?xml version="1.0" standalone="no"?>
<!DOCTYPE svg PUBLIC "-//W3C//DTD SVG 1.1//EN" "http://www.w3.org/Graphics/SVG/1.1/DTD/svg11.dtd" >
<svg xmlns="http://www.w3.org/2000/svg" xmlns:xlink="http://www.w3.org/1999/xlink" version="1.1" viewBox="-10 0 697 1000">
  <g transform="matrix(1 0 0 -1 0 800)">
   <path fill="currentColor"
d="M555 285q1 17 1 51q0 87 -8 171l84 14l7 -9q-15 -115 -36 -214l-35 -16zM186.507 514.286q7.51855 -1.87988 13.5381 -8.18652q6.02051 -6.30664 1.31934 -14.957q-3.38574 -6.22949 -20.5879 -10.3154t-18.8408 -11.6846q-1.53418 -7.92773 15.4951 -27.249
q17.0293 -19.3223 31.0762 -19.3223q40.8486 -1.77539 153.601 -4.99121q112.752 -3.21484 138.971 -4.15137q13.3711 -0.477539 28.7705 -10.7021q15.3994 -10.2256 13.8018 -21.0127q-6.27637 -40.6533 -25.4199 -162.796q-19.1426 -122.144 -25.4375 -162.918
q-7.32227 -46.8574 -28.5713 -46.8574q-39.0361 0 -161.393 2.14258q-122.357 2.14355 -161.179 2.14355q-12.9951 -0.263672 -26.3896 -8.63477q-13.3936 -8.37109 -19.3252 -19.9365q-3.46094 -7.33789 -0.75 -23.6787t-1.82129 -22.6074q-6.52441 -12.4111 -20 -16.2852
q-3.91602 -1.58496 -8.14258 -1.58496q-4.22559 0 -8.14355 1.58496q-8.42383 6.59375 -12.2852 16.5713q-2.79297 7.97559 -2.79297 16.4287q0 8.4541 2.79297 16.4277q16.9658 25.7734 50.4512 47.957q33.4863 22.1846 63.834 27.7578q21.0303 1.81055 115.394 0
q94.3633 -1.81152 133.179 0q10.6328 0 17.1738 9.78125q6.54004 9.78125 6.54004 18.79q6.42188 52.1494 35.7139 241.143q3.7168 18.5322 2.12598 30.6836q-1.59082 12.1504 -3.49707 18.875t-6.44531 9.93359q-4.54004 3.20996 -6.7207 3.8584
q-2.17969 0.649414 -4.31934 0.649414q-43.3535 0.666992 -154.444 4.9082q-111.091 4.24023 -129.556 4.80664q-22.0635 0.856445 -47.3535 29.5312q-25.291 28.6758 -21.2178 48.1826q3.49707 14.5742 41.4668 31.4424q37.9688 16.8672 49.3896 14.2725z" />
  </g>

</svg>
