<?xml version="1.0" standalone="no"?>
<!DOCTYPE svg PUBLIC "-//W3C//DTD SVG 1.1//EN" "http://www.w3.org/Graphics/SVG/1.1/DTD/svg11.dtd" >
<svg xmlns="http://www.w3.org/2000/svg" xmlns:xlink="http://www.w3.org/1999/xlink" version="1.1" viewBox="-10 0 800 1000">
  <g transform="matrix(1 0 0 -1 0 800)">
   <path fill="currentColor"
d="M661.062 668.857h-0.571289q10.7969 3.74512 17.8213 -11q7.02539 -14.7461 -3.82129 -21.2861q-21.2715 -12.8057 -82.9287 -49.4736q-61.6582 -36.667 -91.4844 -54.9824q-29.8262 -18.3145 -78.751 -49.2363q-48.9258 -30.9219 -88.6729 -59.0283t-77.3057 -57.5645
q15.7627 0 121.964 -2.42871q106.202 -2.42871 121.75 1q22.123 1.18945 35.7861 -12.8926q13.6631 -14.083 -1.5 -31.9648q-28.5664 -29.582 -60.9355 -62.5225q-32.3691 -32.9414 -71.9385 -72.9541q-39.5693 -40.0137 -61.126 -61.9521
q-25.1074 -25.9717 -23.3057 -31.5371q1.16699 -3.60547 8.73438 -3.60547q49.8984 -1.62402 386.571 -14.5713q17.2363 -0.663086 21.1338 -18.3564t-4.45801 -35.0967q-8.35645 -17.4043 -20.9619 -17.4043q-398.229 9.71387 -469.143 9.71387
q-39.2832 0.894531 -39.8018 9.47363q-0.19043 3.1582 3.23047 7.38379q39.9121 50.3096 122.798 135.945q82.8857 85.6348 98.6309 102.912q23.667 26.1162 19.5303 31.4912q-2.15039 2.79395 -9.24512 2.79395h-212q-2.28223 0 -11.7949 0.441406t-15.0088 0.323242
q-5.49512 -0.119141 -12.6875 -2.01953t-11.0801 -5.8877q-1.68262 -1.75293 -10.4658 -10.5566q-8.7832 -8.80273 -11.7832 -12.2197t-8.96777 -11.7588q-5.96777 -8.34082 -7.33887 -13.998q-1.37109 -5.65625 -1.22168 -13.79t4.06348 -15.9619
q3.11133 -6.22266 12.2676 -11.6621q9.15527 -5.43848 17.917 -8.53418q8.76172 -3.09668 16.3271 -7.9043q7.56543 -4.80859 7.49414 -9.76953q-0.0703125 -4.96094 -8.57812 -14.1299q-50.8262 -46.2676 -90.8564 -35.7148q-33.0352 8.86328 -39.5723 43.1787
q-6.53613 34.3154 11.001 64.8213q11.5928 23.5977 30.1494 47.5879q18.5557 23.9902 31.6553 38.5527q13.0986 14.5615 43.6816 39.8789q30.582 25.3174 39.1299 31.833q8.54688 6.51465 45.0977 34.1475q53.6328 41.1201 134.5 91.3486q80.8682 50.2285 141.5 80.0801
q65.1816 38.5674 134.571 68.8574zM186.204 563.714v1.14355q2.20898 0.197266 4.44629 0.197266q13.1553 0 26.4189 -8.42969q13.2637 -8.42871 18.8496 -20.3389q12.6621 -22.7051 -13.123 -47.1133t-62.0195 -21.459q-29.3232 2.42871 -17.085 42.4785
q11.127 36.416 35.0459 50.4238q3.86523 2.26367 7.4668 3.09766zM707.919 348.571q10.7178 3.44531 18.5322 -6.4375t10.0391 -21.5625q5.04785 -24.2305 -13.8262 -54.3398q-20.9551 -33.4316 -40.7451 -6.51758q-9.41504 15.0742 -9.41504 32.8467
q0 16.2295 10.376 32.6406q10.377 16.4111 25.0391 23.3701z" />
  </g>

</svg>
