<?xml version="1.0" standalone="no"?>
<!DOCTYPE svg PUBLIC "-//W3C//DTD SVG 1.1//EN" "http://www.w3.org/Graphics/SVG/1.1/DTD/svg11.dtd" >
<svg xmlns="http://www.w3.org/2000/svg" xmlns:xlink="http://www.w3.org/1999/xlink" version="1.1" viewBox="-10 0 611 1000">
  <g transform="matrix(1 0 0 -1 0 800)">
   <path fill="currentColor"
d="M403.999 156q-23 -23 -51.5 -40.5t-51.5 -24.5q-50 0 -81.5 26t-31.5 67q0 21 7 38.5t26 42.5t59 67l53 -1q-41 -48 -55.5 -73.5t-14.5 -48.5t13.5 -36.5t37.5 -13.5q16 0 36.5 6.5t36.5 16.5zM533.068 342.857q-12.7617 -41.9951 -23.8184 -55.499
q-11.0566 -13.5029 -33.3242 -6.21582q-17.4053 5.73145 -22.2148 16.3223q-4.80957 10.5898 0.5 30.249h-326q-10.2021 -30.832 -21.0928 -41.085q-10.8916 -10.2539 -31.1924 -3.48633q-20.708 6.90234 -22.6787 25q-1.97168 18.0977 11.8213 56.7148
q4.86426 14.2002 7.1748 20.626t6.29395 16.2031q3.98242 9.77832 6.67773 13.5244q2.69434 3.74609 6.94336 8.69141q4.24805 4.94531 8.56641 5.8623t10.0723 0.880859q5.75391 -0.0371094 12.8428 -2.35938q18.791 -6.12793 23.3213 -17.001
q4.53027 -10.8721 -1.32129 -28.1426h326.571q11.4258 31.3076 21.2217 40.4502t30.207 2.40723q7.03027 -2.13086 11.7812 -5.00781q4.75195 -2.87598 7.75293 -5.62109t3.87891 -7.78516q0.878906 -5.04004 1.07617 -8.60742q0.197266 -3.56836 -1.63184 -11.1738
q-1.82812 -7.60449 -3.26953 -12.3975q-1.44238 -4.79297 -4.8125 -15.3652t-5.34668 -17.1846z" />
  </g>

</svg>
