<?xml version="1.0" standalone="no"?>
<!DOCTYPE svg PUBLIC "-//W3C//DTD SVG 1.1//EN" "http://www.w3.org/Graphics/SVG/1.1/DTD/svg11.dtd" >
<svg xmlns="http://www.w3.org/2000/svg" xmlns:xlink="http://www.w3.org/1999/xlink" version="1.1" viewBox="-10 0 771 1000">
  <g transform="matrix(1 0 0 -1 0 800)">
   <path fill="currentColor"
d="M386.205 264.571q-8.59375 -28.8027 -16.2217 -38.0312q-7.62793 -9.22949 -23.207 -3.96875q-11.6025 3.79688 -14.7852 11.0361q-3.18359 7.23828 0.213867 20.6787h-223.714q-7.04297 -21.1309 -14.416 -28.0635q-7.37207 -6.93262 -21.2988 -2.22266
q-14.2432 4.81738 -15.6064 17.1426q-1.36426 12.3252 8.17773 38.5713q0.212891 0.607422 0.630859 1.80371q3.25 9.30273 4.80664 13.5449q1.55566 4.24121 4.24219 10.6895q2.68555 6.44922 4.51758 8.95605t4.71777 5.78906q2.88574 3.2832 5.81836 3.91309
t6.84375 0.603516q3.91113 -0.0253906 8.70898 -1.58496q12.7998 -4.2666 15.7861 -11.6787t-0.928711 -19.1787h223.714q7.74707 21.4189 14.5342 27.5508t20.8945 1.02051q4.35547 -1.13574 7.51367 -2.54785t5.0752 -3.55957q1.91602 -2.14844 3.11035 -4.02637
q1.19336 -1.87793 1.21777 -5.2666q0.0244141 -3.38965 -0.172852 -5.875t-1.49023 -7.25684t-2.30762 -8.00488t-3.05273 -9.52832q-2.03711 -6.29492 -3.32227 -10.5059zM531 497.429q73.3613 -68.1387 134.856 -147.143q16.1182 -25.4668 27.5264 -64.8213
q11.4072 -39.3535 11.4072 -69.4922q0 -29.0889 -6.64746 -57.4014q-7.44336 -38.8506 -36.7432 -80.708q-29.3008 -41.8574 -63.2568 -62.1494q-33.2803 -16.4082 -70.3799 -16.4082q-13.0391 0 -25.9062 2.12305q-61.9014 24.1143 -116.856 61.4287
q-10.7041 7.57715 -17.8525 5.2832q-7.14844 -2.29297 -10.3818 -8.30859q-3.23242 -6.0166 -6.40723 -11.7969t-5.93066 -5.17773q-10.8281 3.05176 -11.4277 14.2852q0 18.8418 59.4277 57.1436q30.7588 24.0664 64 44.5713q8.59082 0 16.4385 -5.61426t7.84766 -11.8145
q-16.7119 -18.6055 -36.8574 -33.4287q33.1064 -32.5029 75.7148 -50.8574q19.1377 -8.41895 40.04 -8.41895q14.1406 0 32.0439 6.15039q17.9023 6.15039 29.0586 14.8398q12.5303 17.9414 21.3984 46.127t8.86816 50.0684q0 11.9609 -1.69531 23.8047
q-1.52051 32.8799 -21.9727 71.2256q-20.4531 38.3457 -48.5576 69.5859q-28.1035 31.2402 -55.9912 57.7832q-27.8867 26.543 -47.2539 41.4033l-19.3672 14.8594q-1.62598 -1.02051 -4.38477 -2.625q-2.75879 -1.60352 -10.2109 -5.10449t-13.6885 -5.36328
q-6.2373 -1.86328 -12.6797 -1.40234t-9.32227 4.78125q-7.08203 10.0439 4.94238 24.7549t25.1631 23.4424t23.6094 14.0879q1.64551 0.841797 24.0469 17.0986q22.4023 16.2559 42 25.8037t27.0957 2.8125q6.6875 -8.41309 1.8623 -18.5078
q-4.8252 -10.0957 -14.2002 -18.5088z" />
  </g>

</svg>
