<?xml version="1.0" standalone="no"?>
<!DOCTYPE svg PUBLIC "-//W3C//DTD SVG 1.1//EN" "http://www.w3.org/Graphics/SVG/1.1/DTD/svg11.dtd" >
<svg xmlns="http://www.w3.org/2000/svg" xmlns:xlink="http://www.w3.org/1999/xlink" version="1.1" viewBox="-10 0 600 1000">
  <g transform="matrix(1 0 0 -1 0 800)">
   <path fill="currentColor"
d="M307.715 652.286q15.8457 -15.084 40.2949 -39.041q24.4482 -23.957 72.5527 -76.0137q48.1045 -52.0576 63.7236 -78.0889q21.1416 -33.3105 36.1035 -84.8076q14.9619 -51.498 14.9619 -90.9521q0 -38.2021 -8.78027 -75.3828q-10.3193 -50.9238 -49.3311 -105.589
q-39.0107 -54.666 -83.8115 -80.9824q-43.502 -21.415 -91.9893 -21.415q-17.2607 0 -34.2969 2.84375q-18.9209 3.68262 -57.2061 23.8252q-38.2861 20.1426 -67.1113 38.4443l-28.8252 18.3018q-4.64258 -3.19922 -11.8428 -7.87109q-7.20117 -4.67188 -21.6475 -11.9717
t-19.6523 -6.15723q-13.4453 3.81055 -14.8574 17.7139q0 23.3926 78.2861 75.1436q40.209 31.2061 84 57.1426q11.0752 0 21.3945 -7.30176q10.3193 -7.30273 10.3193 -15.5557q-21.2217 -23.1553 -46.5713 -41.7139q17.752 -18.0615 46.7178 -38.0693
q28.9648 -20.0078 52.1396 -30.2168q44.4756 -14.1445 80.8213 -7.78613q36.3457 6.35938 51.4639 24.3574q43.4795 49.4082 38.8574 157.429q-2 43.1201 -28.8389 93.3838q-26.8389 50.2646 -63.7139 91.2002q-36.876 40.9355 -73.4658 75.7119t-62 54.2402
l-25.4102 19.4639q-2.12598 -1.33398 -5.7334 -3.43066q-3.60742 -2.09766 -13.3623 -6.68164q-9.75586 -4.58301 -17.9336 -7.0332t-16.6543 -1.88086t-12.3164 6.16895q-21.4521 31.4629 69.4287 83.1436q1.41309 0.807617 32.6484 23.3594
q31.2363 22.5518 55.4648 33.7568q24.2285 11.2061 34.1729 2.02637q8.86719 -11.3545 2.64551 -24.624q-6.22266 -13.2695 -18.4336 -24.1797z" />
  </g>

</svg>
