<?xml version="1.0" standalone="no"?>
<!DOCTYPE svg PUBLIC "-//W3C//DTD SVG 1.1//EN" "http://www.w3.org/Graphics/SVG/1.1/DTD/svg11.dtd" >
<svg xmlns="http://www.w3.org/2000/svg" xmlns:xlink="http://www.w3.org/1999/xlink" version="1.1" viewBox="-10 0 490 1000">
  <g transform="matrix(1 0 0 -1 0 800)">
   <path fill="currentColor"
d="M250 497.429q73.3613 -68.1387 134.856 -147.143q16.1182 -25.4668 27.5264 -64.8213q11.4072 -39.3535 11.4072 -69.4922q0 -29.0889 -6.64746 -57.4014q-7.44336 -38.8506 -36.7432 -80.708q-29.3008 -41.8574 -63.2568 -62.1494q-33.2803 -16.4082 -70.3799 -16.4082
q-13.0391 0 -25.9062 2.12305q-61.9014 24.1143 -116.856 61.4287q-10.7041 7.57715 -17.8525 5.2832q-7.14844 -2.29297 -10.3818 -8.30859q-3.23242 -6.0166 -6.40723 -11.7969t-5.93066 -5.17773q-10.8281 3.05176 -11.4277 14.2852q0 18.8418 59.4277 57.1436
q30.7588 24.0664 64 44.5713q8.59082 0 16.4385 -5.61426t7.84766 -11.8145q-16.7119 -18.6055 -36.8574 -33.4287q33.1064 -32.5029 75.7148 -50.8574q19.1377 -8.41895 40.04 -8.41895q14.1406 0 32.0439 6.15039q17.9023 6.15039 29.0586 14.8398
q12.5303 17.9414 21.3984 46.127t8.86816 50.0684q0 11.9609 -1.69531 23.8047q-1.52051 32.8799 -21.9727 71.2256q-20.4531 38.3457 -48.5576 69.5859q-28.1035 31.2402 -55.9912 57.7832q-27.8867 26.543 -47.2539 41.4033l-19.3672 14.8594
q-1.62598 -1.02051 -4.38477 -2.625q-2.75879 -1.60352 -10.2109 -5.10449t-13.6885 -5.36328q-6.2373 -1.86328 -12.6797 -1.40234t-9.32227 4.78125q-7.08203 10.0439 4.94238 24.7549t25.1631 23.4424t23.6094 14.0879q1.64551 0.841797 24.0469 17.0986
q22.4023 16.2559 42 25.8037t27.0957 2.8125q6.6875 -8.41309 1.8623 -18.5078q-4.8252 -10.0957 -14.2002 -18.5088z" />
  </g>

</svg>
