<?xml version="1.0" standalone="no"?>
<!DOCTYPE svg PUBLIC "-//W3C//DTD SVG 1.1//EN" "http://www.w3.org/Graphics/SVG/1.1/DTD/svg11.dtd" >
<svg xmlns="http://www.w3.org/2000/svg" xmlns:xlink="http://www.w3.org/1999/xlink" version="1.1" viewBox="-10 0 390 1000">
  <g transform="matrix(1 0 0 -1 0 800)">
   <path fill="currentColor"
d="M97.7002 -78.6621q-36.1738 0 -44.25 19.708q-8.07715 19.708 22.8213 48.9141q14.4766 12.9814 61.6992 50.0596q47.2227 37.0791 79.6494 65.0508q32.4258 27.9707 31.7939 35.6055q-0.6875 8.30078 -70.3389 56.458t-69.9463 58.0527
q-0.244141 8.15918 30.5479 27.0176q30.791 18.8584 62.999 37.3193q32.208 18.4619 34.167 24.9131q2.9209 9.35547 -33.2939 42.2979q-36.2139 32.9434 -73.8887 61.208l-37.6748 28.2646q-0.770508 -0.49707 -2.07031 -1.29785q-1.30078 -0.800781 -5.46973 -3.25977
q-4.16895 -2.45996 -7.75293 -4.27344t-8.92285 -4.33594t-8.97852 -3.44824q-3.63867 -0.926758 -7.91797 -1.61133t-5.74414 1.17676q-8.54492 6.48828 17.2021 27.1816q25.7461 20.6934 57.7852 37.6934q32.04 16.999 39.2979 14.6924q8.80371 -4.4209 5.24902 -11.2969
q-3.55566 -6.87598 -12.4023 -13.2607l-8.84668 -6.38574q7.43066 -4.69043 19.7734 -12.6484t43.96 -29.4717q31.6162 -21.5127 55.8711 -39.54t44.3711 -36.6953q20.1162 -18.6689 20.5957 -27.0967q0.737305 -12.9336 -29.9668 -33.9912
q-30.7031 -21.0566 -61.9707 -39.6523q-31.2666 -18.5957 -31.4912 -25.29q-0.227539 -6.78516 31.5898 -28.4219q31.8164 -21.6367 63.583 -45.5283q31.7656 -23.8916 31.3994 -36.1396q-0.369141 -12.3193 -53.1582 -54.3994q-52.7881 -42.0801 -106.637 -82.333
t-55.6338 -47.2412q-1.49121 -5.83496 3.95117 -19.6846t2.28809 -21.6055q-3.15527 -7.75586 -23.668 -7.75586z" />
  </g>

</svg>
