<?xml version="1.0" standalone="no"?>
<!DOCTYPE svg PUBLIC "-//W3C//DTD SVG 1.1//EN" "http://www.w3.org/Graphics/SVG/1.1/DTD/svg11.dtd" >
<svg xmlns="http://www.w3.org/2000/svg" xmlns:xlink="http://www.w3.org/1999/xlink" version="1.1" viewBox="-10 0 713 1000">
  <g transform="matrix(1 0 0 -1 0 800)">
   <path fill="currentColor"
d="M401.001 213l-39 -261q44 -28 67 -47.5t23 -44.5t-18.5 -47t-48 -35t-59.5 -13q-27 0 -49.5 10.5t-22.5 28.5q0 16 30 59h9q1 -27 15 -41.5t38 -14.5q19 0 32 9.5t13 24.5q0 16 -22.5 33.5t-62.5 40.5l50 304q33 32 45 -6zM109.712 514.286l484.571 1.42773
q7.07129 0 11.3018 8.56152q4.22949 8.56055 9.01562 11.1641t27.6826 -8.01074q25.6455 -14.3438 -10.4932 -29.5889q-30.0967 -12.6973 -70.0781 -12.6973q-22.0381 -79.3018 -58.8926 -150.622t-78.7324 -123.164q-41.8789 -51.8428 -89.1572 -95.5879
q-47.2793 -43.7441 -90.8086 -72.1201q-43.5283 -28.376 -82.999 -48.2529q-39.4717 -19.877 -66.418 -28.4932q-26.9473 -8.61621 -40.4209 -8.61621q11.749 8.47363 50.2256 31.8613q38.4766 23.3867 67.8828 42.9922q29.4053 19.6045 73.4238 61.5518
q44.0186 41.9482 78.1523 90.0244q34.1348 48.0762 70.0117 125.759t60.3037 171.239l-257.143 -5.71387q-7.11133 -34.2852 -14.2539 -88.1426t-10.7305 -90.5713l-3.58691 -36.7148q11.1523 -10.2969 16.2861 -16.2852q2.00293 -3.60449 0.475586 -9.33301
q-1.52637 -5.72852 -5.80859 -10.2861q-4.2832 -4.55762 -7.52441 -2.66699q-44.6357 27.4668 -89.7148 53.7139q-4.0957 2.14355 -2.10645 10.7861t6.67871 8.64258q10.8965 -1.84277 21.1426 -6l22.5713 187.144q-7.52051 -0.283203 -18.8486 -0.0869141
q-11.3271 0.196289 -31.6357 5.12598q-20.3086 4.92871 -23.2295 14.9609q-2.78906 10.0303 -2.85352 16.1875q-0.0654297 6.15723 2.51562 8.50977q2.58203 2.35352 6.45312 2.64551q3.87207 0.291992 9.76855 -1.21094t11.5957 -3.26758t12.8027 -3.31445
q7.10254 -1.5498 12.5742 -1.5498z" />
  </g>

</svg>
