<?xml version="1.0" standalone="no"?>
<!DOCTYPE svg PUBLIC "-//W3C//DTD SVG 1.1//EN" "http://www.w3.org/Graphics/SVG/1.1/DTD/svg11.dtd" >
<svg xmlns="http://www.w3.org/2000/svg" xmlns:xlink="http://www.w3.org/1999/xlink" version="1.1" viewBox="-10 0 645 1000">
  <g transform="matrix(1 0 0 -1 0 800)">
   <path fill="currentColor"
d="M342 0l-11 -36q5 -3 31 -19.5t42 -35.5t16 -37q0 -25 -18.5 -47t-47.5 -35t-59 -13q-27 0 -50 11t-23 28q0 16 30 59h9q1 -27 15.5 -41.5t38.5 -14.5q19 0 32 9.5t13 24.5q0 16 -22.5 33.5t-63.5 40.5l23 78zM565.286 516.857q6.26172 0 11.3545 -12.5186
t5.00488 -23.249q-0.0869141 -10.7305 -4.64551 -12.5186l-219.143 4.28613v-306.571q22.7109 -9.63281 38.7842 -33.9092q16.0732 -24.2773 16.0732 -48.9463q0 -37.2598 -26.3701 -63.6299t-63.6299 -26.3701q-37.2607 0 -63.6299 26.3701
q-26.3701 26.3701 -26.3701 63.6299q0 24.6699 16.0732 48.9463q16.0723 24.2764 38.7832 33.9092l2.85742 303.714l-188.571 1.42871q-10.5947 -20.0039 -22.2861 -22q-9.44043 -1.61133 -19.0059 2.71973t-9.56543 11.8516q11.0986 35.7773 34 65.4287
q6.92969 7.30664 17 7.30664t17 -7.30664q1.14258 -1.65137 1.14258 -4.79395t-0.571289 -5.45996l-0.571289 -2.31738h446.286zM320.143 21.7139q23.167 0 30.583 15.8936q7.41699 15.8926 7.41699 45.5352t-7.41699 45.5361q-7.41602 15.8926 -30.583 15.8926
t-30.583 -15.8926q-7.41699 -15.8936 -7.41699 -45.5361t7.41699 -45.5352q7.41602 -15.8936 30.583 -15.8936z" />
  </g>

</svg>
