<?xml version="1.0" standalone="no"?>
<!DOCTYPE svg PUBLIC "-//W3C//DTD SVG 1.1//EN" "http://www.w3.org/Graphics/SVG/1.1/DTD/svg11.dtd" >
<svg xmlns="http://www.w3.org/2000/svg" xmlns:xlink="http://www.w3.org/1999/xlink" version="1.1" viewBox="-10 0 520 1000">
  <g transform="matrix(1 0 0 -1 0 800)">
   <path fill="currentColor"
d="M86 41l33 155l-105 -1l-4 10l15 51l106 -1l11 55l11 48l-103 -1l-4 11l15 51l103 -1l33 151l54 6l10 -6l-36 -152h50l51 -1l33 153l54 6l9 -6l-36 -152l104 1l4 -11l-17 -50h-104l-7 -34l-15 -69l103 1l4 -10l-16 -51l-102 1l-32 -152l-53 -9l-8 7l33 155l-64 1l-37 -1
l-32 -153l-53 -9zM304 310l10 48l-63 1l-38 -1l-8 -35l-15 -68h49l53 -1z" />
  </g>

</svg>
