<?xml version="1.0" standalone="no"?>
<!DOCTYPE svg PUBLIC "-//W3C//DTD SVG 1.1//EN" "http://www.w3.org/Graphics/SVG/1.1/DTD/svg11.dtd" >
<svg xmlns="http://www.w3.org/2000/svg" xmlns:xlink="http://www.w3.org/1999/xlink" version="1.1" viewBox="-10 0 971 1000">
  <g transform="matrix(1 0 0 -1 0 800)">
   <path fill="currentColor"
d="M168.089 712.857q1.03613 0 43.5361 -1.28516q42.5 -1.28613 52.75 -1.28613q2.19531 0 17.0996 0.294922t20.918 -0.0654297t19.4756 -1.46191t20.0928 -4.29883t14.9619 -8.14453q8.33203 -4.94727 11.8916 -13.4297q3.56055 -8.4834 3.56055 -19.752
q0 -17.7021 -11.2656 -33.4746t-22.3262 -36.4795t-10.6943 -50.6172q0 -38.1133 40.0693 -72.0225q40.0693 -33.9102 75.9307 -34.835q20.1465 -0.575195 37.1104 4.68652t26.2363 9.92969t21.5352 19.8076q12.2627 15.1387 14.9229 19.3926
q2.65918 4.25391 14.4814 23.6123q12.7178 21.9854 21.7188 55.5195q9.00098 33.5352 9.00098 58.9336q0 15.6992 -2.14844 31.2607q0 13.1982 3.78027 19.1768q3.78125 5.97852 18.2197 15.1094q11.958 7.71484 34.6221 10.167q22.665 2.45117 61.8027 2.2373
q39.1387 -0.213867 53.29 0.453125q9.8623 0 44.4014 1.58691q34.54 1.58789 60.3389 1.58789t33.5449 -3.1748q4.93945 -2.02441 7.97754 -4.89355t3.99902 -6.4375q0.961914 -3.56836 1.16602 -6.11621q0.205078 -2.54785 -0.182617 -6.36914
q-0.388672 -3.82031 -0.388672 -4.75586q0 -15.5469 -8.6582 -23.417t-22.1123 -19.0703t-21.2295 -31.2266q-64.5938 -169.274 -127.328 -294.287q-62.7334 -125.013 -94.6719 -168.855q-23.5576 -33.1055 -42.5957 -54.8281q-19.0391 -21.7227 -44.9463 -42.6885
q-25.9072 -20.9648 -56.4736 -30.1416t-66.2695 -6.91309q-35.5996 2.3877 -77.6572 32.0898q-42.0576 29.7012 -42.0576 53.624q-0.152344 1.86133 -0.152344 3.72461q0 18.4023 13.0205 31.71t31.418 13.708q24.3018 0 38.6797 -7.5166q14.3779 -7.51758 18.4629 -31.0547
q0 -2.10742 -2.57129 -16.1787t-2.57129 -18.1064q-0.296875 -2.10254 -0.296875 -4.23047q0 -12.5381 8.87402 -21.4121q8.87305 -8.87402 21.4111 -8.87402q1.86621 0 3.72559 0.230469q34.3594 0.348633 61.7148 21.1426q48.623 46.5244 83.1426 104.286
q30.0156 57.5801 66.4316 141.713t57.8545 145.43q4.74609 15.1426 21.1152 63.5225q16.3691 48.3809 29.4834 87.5264q13.1152 39.1455 13.1152 41.2373q0 9.80469 -2.56445 15.9111q-2.56445 6.10547 -8.29785 8.52441t-10.1621 3.15039
q-4.42773 0.731445 -13.0977 0.708008q-8.66992 -0.0224609 -12.1641 0.277344q-18.0596 1.54785 -29.5205 -4.55469q-11.46 -6.10254 -19.0508 -28.874q-11.8271 -59.0938 -30 -116.571q-19.0205 -48.3447 -69.249 -82.835t-102.18 -34.8799
q-15.2012 -1.95215 -30.5166 -1.95215q-28.9629 0 -66.7334 11.0361q-37.7715 11.0371 -62.1777 26.6309q-23.0293 14.4922 -37.8486 41.0088t-18.5088 51.3486q-3.68945 24.8311 -5.75879 48.0264t0.401367 31.0449q3.77539 54.1191 -46.8574 59.4287
q-18.9023 1.98145 -71.9092 2.83496q-53.0059 0.853516 -60.6621 2.02148q-7.25293 0.999023 -12.3848 6.8877q-5.13281 5.8877 -5.13281 13.209q0 0.949219 0.0888672 1.90332q0 14.7871 12.8691 21.5977q12.8691 6.80957 26.5596 5.25977q3.35742 0 37.5 -4.42871
t37.9287 -4.42871z" />
  </g>

</svg>
