<?xml version="1.0" standalone="no"?>
<!DOCTYPE svg PUBLIC "-//W3C//DTD SVG 1.1//EN" "http://www.w3.org/Graphics/SVG/1.1/DTD/svg11.dtd" >
<svg xmlns="http://www.w3.org/2000/svg" xmlns:xlink="http://www.w3.org/1999/xlink" version="1.1" viewBox="-10 0 699 1000">
  <g transform="matrix(1 0 0 -1 0 800)">
   <path fill="currentColor"
d="M79 -72l-5 13q131 198 214 329l259 408l48 -21l6 -17q-179 -269 -263 -403q-86 -137 -210 -331zM64.5 362.5q-36.5 43.5 -36.5 116.5q0 75 42.5 123.5t111.5 48.5q67 0 102 -44.5t35 -109.5q0 -76 -41 -127t-112 -51q-65 0 -101.5 43.5zM240 415.5q25 17.5 25 60.5
q0 41 -26.5 67t-72.5 26q-40 0 -62 -21t-22 -56q0 -47 28 -70.5t69 -23.5q36 0 61 17.5zM425 32q-37 44 -37 116q0 76 43 124t112 48q66 0 101 -44.5t35 -109.5q0 -76 -41 -127t-111 -51q-65 0 -102 44zM600 84.5q25 17.5 25 60.5q0 41 -26 67.5t-73 26.5q-39 0 -61.5 -21
t-22.5 -57q0 -47 28.5 -70.5t69.5 -23.5q35 0 60 17.5z" />
  </g>

</svg>
