<?xml version="1.0" standalone="no"?>
<!DOCTYPE svg PUBLIC "-//W3C//DTD SVG 1.1//EN" "http://www.w3.org/Graphics/SVG/1.1/DTD/svg11.dtd" >
<svg xmlns="http://www.w3.org/2000/svg" xmlns:xlink="http://www.w3.org/1999/xlink" version="1.1" viewBox="-10 0 479 1000">
  <g transform="matrix(1 0 0 -1 0 800)">
   <path fill="currentColor"
d="M45 44q57 7 57 58v254q-1 24 -13.5 31.5t-50.5 9.5l-4 6l7 41l61 11v6q0 85 29.5 148.5t83.5 98t126 34.5q30 0 62 -5.5t53 -14.5l3 -12q-17 -33 -33 -75l-12 -3q-20 16 -51.5 26.5t-58.5 10.5q-55 0 -80.5 -41t-27.5 -131l-5 -393q0 -27 9.5 -39t30.5 -12q23 0 43 2
l2 -4l-7 -54q-52 3 -109 3q-58 0 -121 -5z" />
  </g>

</svg>
