<?xml version="1.0" standalone="no"?>
<!DOCTYPE svg PUBLIC "-//W3C//DTD SVG 1.1//EN" "http://www.w3.org/Graphics/SVG/1.1/DTD/svg11.dtd" >
<svg xmlns="http://www.w3.org/2000/svg" xmlns:xlink="http://www.w3.org/1999/xlink" version="1.1" viewBox="-10 0 729 1000">
  <g transform="matrix(1 0 0 -1 0 800)">
   <path fill="currentColor"
d="M464 73q-42 -40 -93.5 -62.5t-103.5 -22.5q-100 0 -159 46t-59 126q0 57 37.5 100t91.5 66v7q-42 44 -61.5 81.5t-19.5 74.5q0 46 27 83t74.5 58t108.5 21q44 0 72 -7t56 -16l3 -16l-49 -81l-13 -1q-33 30 -55 40.5t-51 10.5q-39 0 -61 -19.5t-22 -53.5q0 -45 28 -85
t105 -106l164 -141q17 37 17 81q0 55 -17 81t-53 26q-18 0 -38.5 -4t-23.5 -4l-14 54q0 2 17.5 9t40.5 8l205 12q75 5 80 11l11 -24l-15 -39q-7 -14 -20.5 -18.5t-49.5 -4.5h-90l-3 -7q16 -16 25 -39.5t9 -48.5q0 -64 -40 -127l139 -117v-16q-9 -8 -34.5 -24t-39.5 -20
q-24 15 -126 108zM428 105l-214 191q-33 -18 -53 -48.5t-20 -64.5q0 -57 41.5 -89.5t114.5 -32.5q74 0 131 44z" />
  </g>

</svg>
