<?xml version="1.0" standalone="no"?>
<!DOCTYPE svg PUBLIC "-//W3C//DTD SVG 1.1//EN" "http://www.w3.org/Graphics/SVG/1.1/DTD/svg11.dtd" >
<svg xmlns="http://www.w3.org/2000/svg" xmlns:xlink="http://www.w3.org/1999/xlink" version="1.1" viewBox="-10 0 566 1000">
  <g transform="matrix(1 0 0 -1 0 800)">
   <path fill="currentColor"
d="M459 307.5q53 -43.5 53 -117.5q0 -61 -35 -106.5t-98 -70.5t-144 -25q-70 0 -160 18l-6 8q4 40 4 80l-2 90l9 8l56 3q-1 -72 29 -105.5t95 -33.5t99 31t34 93t-36 90t-112 28l-26 -1l-6 7l5 45l177 205h-175q-32 0 -48 -8t-23.5 -29.5t-12.5 -67.5l-67 -3q13 72 15 194
l10 9l166 -9l230 -1l16 -49l-201 -231q101 -8 154 -51.5z" />
  </g>

</svg>
