<?xml version="1.0" standalone="no"?>
<!DOCTYPE svg PUBLIC "-//W3C//DTD SVG 1.1//EN" "http://www.w3.org/Graphics/SVG/1.1/DTD/svg11.dtd" >
<svg xmlns="http://www.w3.org/2000/svg" xmlns:xlink="http://www.w3.org/1999/xlink" version="1.1" viewBox="-10 0 1602 1000">
  <g transform="matrix(1 0 0 -1 0 800)">
   <path fill="currentColor"
d="M242.469 687.429q9.47754 -1.77734 18.293 -11.2529q8.81543 -9.47461 2.56445 -20.4619q-4.36426 -7.66992 -27.7637 -12.9102q-23.3994 -5.23926 -25.665 -15.6611q-2.29297 -10.9561 20.8027 -37.1924t42.626 -26.2363q56.3711 -2.46484 211.896 -6.98438
q155.524 -4.52051 186.104 -5.58691q17.7295 -0.479492 38.5332 -14.4307t18.6094 -28.7119q-7.25293 -46.9033 -20.8506 -133.837q-13.5986 -86.9336 -27.4414 -175.374q-13.8418 -88.4404 -20.8506 -133.646q-10.2988 -64 -38.8574 -64q-53.0361 0 -219.535 2.85742
q-166.5 2.85742 -219.321 2.85742q-17.7295 -0.464844 -35.8955 -12.0176t-26.1045 -27.4111q-4.72949 -10.0146 -1.07129 -32.1787q3.65723 -22.1641 -2.35742 -30.6787q-9.36621 -17.4502 -28.5713 -22.2852q-5.37012 -2.125 -11.1436 -2.125q-5.77246 0 -11.1426 2.125
q-11.0762 9.06738 -16.5713 22.2852q-3.75488 10.8965 -3.75488 22.4287t3.75488 22.4287q23.1533 35.2461 68.9453 65.2998q45.791 30.0537 87.3398 37.2715q27.5273 2.1377 157.036 -0.321289q129.509 -2.45996 181.25 0.321289q14.1152 0.762695 22.208 13.2949
t9.79199 25.8477q11.4766 78.9023 48.5713 327.715q4.93066 25.2178 2.78613 41.7578q-2.14453 16.5391 -4.70117 25.6982q-2.55762 9.1582 -8.6377 13.5332q-6.08105 4.375 -9.02148 5.26465q-2.94141 0.888672 -5.85449 0.888672q-44.3975 0.758789 -115.592 3.25586
q-71.1953 2.49707 -154.244 5.77344t-116.164 4.39941q-29.6797 1.0752 -64.4365 40.1201q-34.7568 39.0459 -28.9922 65.3086q4.25 19.8975 55.9961 42.8301q51.7461 22.9316 67.4326 19.7412zM1069.84 418.571q40.3564 -7.56738 112.705 -18.9668t80.1523 -12.7471
q15.8779 -2.71094 26.4688 -17.9961t12.96 -30.29q5.13965 -32.5547 23.4287 -116q11.3047 -58.877 28.5713 -116.285q11.8369 -33.1904 50.2148 -77.3096q38.3789 -44.1191 60.6426 -44.1191q0.287109 0 5.45996 -0.192383q5.17285 -0.191406 6.51953 0.0751953
t5.67871 1.79297t6.44824 4.4707q2.11621 2.94531 5.08301 8.63477q2.96777 5.68945 5.0957 13.79q2.95898 11.2617 -7.03809 17.7754q-9.99707 6.5127 -23.8652 8.87305q-13.8691 2.36035 -25.7686 9.58203q-11.8994 7.2207 -11.8994 19.4834q0 17.1719 14.1104 35.1572
q14.1094 17.9863 31.0322 17.9863q19.5557 0 33.5586 -17.0576q14.0029 -17.0586 18.9062 -40.335q4.90332 -23.2773 6.95996 -47.3535q2.05664 -24.0752 -2.28125 -38.1113q-8.43848 -26.1436 -33.8525 -44.6455q-25.4141 -18.5029 -52.8848 -18.5029
q-0.438477 0 -0.977539 0.00585938q-31.1455 0 -56.9834 12.9941q-25.8369 12.9941 -45.7559 38.417q-19.9199 25.4238 -33.1182 49.252q-13.1992 23.8281 -28.4277 58.7646q-14.0137 32.0664 -23.3613 71.5215q-9.34766 39.4561 -15.1826 75.7197
q-5.83496 36.2646 -8.88477 47.3311q-1.51074 5.48047 -5.09375 20.2861q-3.58301 14.8066 -5.53613 20.25q-1.95312 5.44238 -6.29492 14.5156q-4.34082 9.07324 -10.542 13.5293q-6.2002 4.45605 -15.1045 6.84668q-45.9688 12.0635 -119.254 26.3496
q-73.2861 14.2861 -123.588 22.54l-50.3018 8.25391q1.44141 -10.998 3.9375 -29.4375t9.57715 -66.8301q7.08008 -48.3916 13.4395 -87.0762q6.36035 -38.6846 13.8975 -74.5791t12.5771 -44.9346q7.47949 -16.3223 25.4775 -28.042q17.999 -11.7197 35.9512 -11.958
q4.30859 0.339844 16.9814 2.51465q12.6738 2.17578 19.0723 2.40332q6.39746 0.227539 13.1426 -4.00098q6.74414 -4.22852 7.94629 -14.3457q1.375 -14.9863 -1.48242 -24.2041q-2.8584 -9.21777 -7.15332 -13.0078t-13.6621 -3.59766q-9.36621 0.191406 -15.4697 1.71387
q-6.10449 1.52246 -18.4883 5.39355q-12.3828 3.87207 -17.1729 5.13086q-36.1768 9.50488 -84.2617 17.2549t-72.5947 3.60254q-20.6279 -3.91504 -47.333 -15.2998q-26.7041 -11.3848 -43.8105 -23.5576q-6.52832 0 -12.0166 2.08105q-5.48926 2.08008 -9.40918 5.25488
q-3.91992 3.17383 -7.0459 8.35938q-3.12695 5.18555 -5.09766 9.93555t-3.38281 11.5381q-1.41309 6.78809 -2.08203 11.6113q-0.669922 4.82324 -1.01562 11.7129q-0.34668 6.88965 -0.363281 10.2852q-0.015625 3.39453 0.0556641 8.88379
q0.0722656 5.48926 0.0722656 6.05176q0 13.7832 6.86816 22.0918t21.7031 3.62305q7.0918 -2.23926 27.8936 -22.6719q20.8008 -20.4326 40.1064 -19.6143q16.749 0.749023 27.3506 6.79785q10.6006 6.04883 14.3193 16.5752q3.71973 10.5254 4.55469 17.0557
t0.670898 16.3291q-0.0380859 2.27441 -0.0380859 3.24219q0 18.7939 -9.71484 91.7227q-9.71387 72.9287 -19.4277 136.46l-9.71484 63.5322q-1.11816 0.125 -3.0625 0.371094q-1.94531 0.246094 -7.86035 1.1875q-5.91602 0.941406 -11.6074 2.06738
q-5.69238 1.12695 -13.3301 3.06152q-7.63867 1.93555 -14.0674 4.11621t-12.7803 5.28418q-6.35059 3.10254 -10.5068 6.51172q-4.15527 3.40918 -6.20898 7.85449q-2.05469 4.44531 -0.862305 9.25977q4.97656 20.0986 13.4287 23.0361t25.4287 -0.75
q3.66406 -0.22168 60.8174 -13.0244q57.1543 -12.8027 130.461 -28.9033q73.3057 -16.1006 107.293 -22.3584zM1218.13 524q0 -14.3584 -15.333 -24.3223t-29.5244 -9.96387q-1.5918 -0.12793 -3.17676 -0.12793q-14.3643 0 -25.8232 10.083
q-11.458 10.084 -13.2852 24.3311q0 16.2842 14.5527 26.5703q14.5537 10.2871 30.3037 10.2871q15.3193 -0.0234375 27.29 -10.8223q11.9717 -10.7998 13.5674 -26.0352h1.42871z" />
  </g>

</svg>
