<?xml version="1.0" standalone="no"?>
<!DOCTYPE svg PUBLIC "-//W3C//DTD SVG 1.1//EN" "http://www.w3.org/Graphics/SVG/1.1/DTD/svg11.dtd" >
<svg xmlns="http://www.w3.org/2000/svg" xmlns:xlink="http://www.w3.org/1999/xlink" version="1.1" viewBox="-10 0 906 1000">
  <g transform="matrix(1 0 0 -1 0 800)">
   <path fill="currentColor"
d="M390.662 761.429q-13.333 -14.0957 -43.0479 -39.4531q-29.7139 -25.3564 -52.7607 -43.666l-23.0479 -18.3096l-13.1436 -196q57.4023 17.5664 90.8223 9q33.4189 -8.56641 29.75 -39q-3.83984 -30.96 -19.6143 -67.0684q-15.7734 -36.1094 -35.543 -65.5293
q-19.7686 -29.4199 -38.9893 -54.416q-19.2207 -24.9971 -32.251 -38.9922l-13.0312 -13.9941l-14.5713 -158.571l142.856 17.1426q23.8711 24.5342 57.1436 32.5713q12.9541 0 16.5713 -9.39258t-4.85742 -22.0361q-3.57227 -5.27637 -10.8613 -16.3691t-11.7559 -17.6582
q-4.46777 -6.56543 -11.3193 -16.1729q-6.85156 -9.60645 -12.0508 -15.3838q-5.2002 -5.77637 -11.2842 -11.5898q-6.08398 -5.8125 -11.6865 -8.49121q-5.60254 -2.67969 -10.7559 -2.62012q-11.0479 0.126953 -12.334 12.8408q-1.28516 12.7148 2.95215 25.3652
l4.23828 12.6514l-290.856 -48.8574q-14.5898 -2.46094 -14.2256 14.1191q0.453125 20.5918 15.8682 27.1309q1.71973 0.730469 3.5 1.03516l85.7139 14l20.5713 244.857q54.5381 -12.7119 98.0146 26.2715t51.4141 96.5859q3.17773 22.6982 -8.27148 32.8516
t-39.7285 4.00586q-21.0811 -5.30664 -47.7861 -18.9521t-43.3564 -27.6201l16 241.144q-27.6768 -10.2148 -57.1426 -11.7148q-4.14551 0 -6.3418 5.76953q-2.19727 5.76953 0.588867 13.3184q2.78516 7.54785 11.1816 11.4834q56.4922 26.5391 96.5684 51.6416
t56.0098 40.1416t31.3203 28.7783t28.1016 20.0107q11.6689 6.93848 29.167 0.160156q16.2559 -6.2959 2.26074 -21.0176zM617.715 666.286q15.8457 -15.084 40.2949 -39.041q24.4482 -23.957 72.5527 -76.0137q48.1045 -52.0576 63.7236 -78.0889
q21.1416 -33.3105 36.1035 -84.8076q14.9619 -51.498 14.9619 -90.9521q0 -38.2021 -8.78027 -75.3828q-10.3193 -50.9238 -49.3311 -105.589q-39.0107 -54.666 -83.8115 -80.9824q-43.502 -21.415 -91.9893 -21.415q-17.2607 0 -34.2969 2.84375
q-18.9209 3.68262 -57.2061 23.8252q-38.2861 20.1426 -67.1113 38.4443l-28.8252 18.3018q-4.64258 -3.19922 -11.8428 -7.87109q-7.20117 -4.67188 -21.6475 -11.9717t-19.6523 -6.15723q-13.4453 3.81055 -14.8574 17.7139q0 23.3926 78.2861 75.1436
q40.209 31.2061 84 57.1426q11.0752 0 21.3945 -7.30176q10.3193 -7.30273 10.3193 -15.5557q-21.2217 -23.1553 -46.5713 -41.7139q17.752 -18.0615 46.7178 -38.0693q28.9648 -20.0078 52.1396 -30.2168q44.4756 -14.1445 80.8213 -7.78613
q36.3457 6.35938 51.4639 24.3574q43.4795 49.4082 38.8574 157.429q-2 43.1201 -28.8389 93.3838q-26.8389 50.2646 -63.7139 91.2002q-36.876 40.9355 -73.4658 75.7119t-62 54.2402l-25.4102 19.4639q-2.12598 -1.33398 -5.7334 -3.43066
q-3.60742 -2.09766 -13.3623 -6.68164q-9.75586 -4.58301 -17.9336 -7.0332t-16.6543 -1.88086t-12.3164 6.16895q-21.4521 31.4629 69.4287 83.1436q1.41309 0.807617 32.6484 23.3594q31.2363 22.5518 55.4648 33.7568q24.2285 11.2061 34.1729 2.02637
q8.86719 -11.3545 2.64551 -24.624q-6.22266 -13.2695 -18.4336 -24.1797z" />
  </g>

</svg>
