<?xml version="1.0" standalone="no"?>
<!DOCTYPE svg PUBLIC "-//W3C//DTD SVG 1.1//EN" "http://www.w3.org/Graphics/SVG/1.1/DTD/svg11.dtd" >
<svg xmlns="http://www.w3.org/2000/svg" xmlns:xlink="http://www.w3.org/1999/xlink" version="1.1" viewBox="-10 0 1037 1000">
  <g transform="matrix(1 0 0 -1 0 800)">
   <path fill="currentColor"
d="M362.828 506.857q17.75 0 85.8213 -4.71484q68.0713 -4.71387 70.1787 -4.71387q5.10742 0 51.0361 4.71387q45.9277 4.71484 48.6777 4.71484q20.207 0 41.6885 -4.07422t44.8604 -13.3604q23.3789 -9.28711 39.5771 -28.4082q16.1982 -19.1201 19.0176 -45.3008
q1.26953 -13.4189 1.26953 -26.9121q0 -36.1162 -8.98438 -71.0879q-3.49316 -20.6279 -13.7871 -36.1758q-10.2949 -15.5488 -27.1875 -24.4473q-16.8936 -8.89941 -32.1602 -14.5t-38.0586 -7.66602t-34.9053 -2.52441q-12.1143 -0.459961 -32.0557 -0.411133
q-4.16992 0.0107422 -6.13086 0.0107422q-3.14355 0 -94.8574 9.42871t-94.8574 9.42871q-0.678711 0 -54.7461 1.18262q-54.0674 1.18359 -109.745 2.11035q-55.6787 0.926758 -65.7939 0.420898q-6.95996 0 -20.4258 -0.941406q-13.4668 -0.941406 -21.2383 -1.02344
q-7.77148 -0.0810547 -18.7266 2.63965q-10.9551 2.72168 -20.1816 9.04004q-16.1133 11.3525 -16.1133 31.0635q0 1.46875 0.113281 2.93652q1.27637 23.5586 18.6885 42.7295q17.4131 19.1699 40.7402 22.6982q4.02246 0 23.4443 -15.4521
q19.4219 -15.4531 31.127 -18.2617q21.6211 -4.1084 91.2861 -12.6289q69.665 -8.52148 89 -9.37109q17.8926 0 101.25 -3.14258q83.3574 -3.14355 85.6074 -3.14355q4.32812 0 68.8564 7.71484q8.67773 1.01074 15.3818 3.28809q6.7041 2.27637 11.3867 7.87305
q4.68262 5.59766 7.54199 8.2666t5.23926 12.1768q2.38086 9.50781 2.99414 11.3799t2.29102 14.1006q1.67676 12.2295 1.7373 12.6289q0.142578 2.16992 0.142578 4.36523q0 23.9512 -16.7852 43.2656q-16.7842 19.3145 -40.501 22.6553q-19.5518 2.03125 -162.285 5.71387
q-2.48242 0 -26.6787 -1.20117q-24.1973 -1.2002 -43.9727 -0.765625q-19.7764 0.43457 -45.1436 2.88281q-25.3662 2.44824 -44.1094 10.8223t-26.9531 21.9766q-8.92773 14.4414 0.501953 35.4258t30.3555 8.00293q40.7871 -19.7061 86.5713 -25.4287zM748.715 653.286
q15.8457 -15.084 40.2949 -39.041q24.4482 -23.957 72.5527 -76.0137q48.1045 -52.0576 63.7236 -78.0889q21.1416 -33.3105 36.1035 -84.8076q14.9619 -51.498 14.9619 -90.9521q0 -38.2021 -8.78027 -75.3828q-10.3193 -50.9238 -49.3311 -105.589
q-39.0107 -54.666 -83.8115 -80.9824q-43.502 -21.415 -91.9893 -21.415q-17.2607 0 -34.2969 2.84375q-18.9209 3.68262 -57.2061 23.8252q-38.2861 20.1426 -67.1113 38.4443l-28.8252 18.3018q-4.64258 -3.19922 -11.8428 -7.87109q-7.20117 -4.67188 -21.6475 -11.9717
t-19.6523 -6.15723q-13.4453 3.81055 -14.8574 17.7139q0 23.3926 78.2861 75.1436q40.209 31.2061 84 57.1426q11.0752 0 21.3945 -7.30176q10.3193 -7.30273 10.3193 -15.5557q-21.2217 -23.1553 -46.5713 -41.7139q17.752 -18.0615 46.7178 -38.0693
q28.9648 -20.0078 52.1396 -30.2168q44.4756 -14.1445 80.8213 -7.78613q36.3457 6.35938 51.4639 24.3574q43.4795 49.4082 38.8574 157.429q-2 43.1201 -28.8389 93.3838q-26.8389 50.2646 -63.7139 91.2002q-36.876 40.9355 -73.4658 75.7119t-62 54.2402
l-25.4102 19.4639q-2.12598 -1.33398 -5.7334 -3.43066q-3.60742 -2.09766 -13.3623 -6.68164q-9.75586 -4.58301 -17.9336 -7.0332t-16.6543 -1.88086t-12.3164 6.16895q-21.4521 31.4629 69.4287 83.1436q1.41309 0.807617 32.6484 23.3594
q31.2363 22.5518 55.4648 33.7568q24.2285 11.2061 34.1729 2.02637q8.86719 -11.3545 2.64551 -24.624q-6.22266 -13.2695 -18.4336 -24.1797z" />
  </g>

</svg>
