<?xml version="1.0" standalone="no"?>
<!DOCTYPE svg PUBLIC "-//W3C//DTD SVG 1.1//EN" "http://www.w3.org/Graphics/SVG/1.1/DTD/svg11.dtd" >
<svg xmlns="http://www.w3.org/2000/svg" xmlns:xlink="http://www.w3.org/1999/xlink" version="1.1" viewBox="-10 0 634 1000">
  <g transform="matrix(1 0 0 -1 0 800)">
   <path fill="currentColor"
d="M228.354 335.286q10.0361 0 49.1074 -2.71387q39.0713 -2.71484 40.3213 -2.71484q2.92871 0 29.2148 2.71484q26.2852 2.71387 27.9287 2.71387q16.3125 0 32.7227 -3.77832q16.4111 -3.7793 32.3633 -16.3486q15.9531 -12.5684 18.0566 -32.1592
q0.759766 -7.85938 0.759766 -15.7412q0 -21.041 -5.33105 -41.4014q-2.0498 -12.2285 -7.97656 -21.3213q-5.92773 -9.09277 -17.0586 -14.1318q-11.1299 -5.03809 -18.7432 -8.09863q-7.61426 -3.06055 -23.3203 -4.05957q-15.7061 -1 -19.8154 -1.12305
q-4.1084 -0.123047 -18.5146 -0.123047q-1.85742 0 -54.4287 5.42871t-54.4287 5.42871q-0.494141 0 -31.498 0.626953q-31.0029 0.62793 -62.9082 1.12695q-31.9062 0.499023 -37.5938 0.246094q-7.84082 -1.93945 -15.9141 -1.93945q-16.0811 0 -30.3711 7.36816
q-8.92578 6.59473 -8.92578 17.6934q0 0.876953 0.0683594 1.73438q0.701172 13.5195 10.6631 24.5703t23.3369 13.1445q2.20605 0 13.2734 -9.08203q11.0684 -9.08105 17.8691 -10.3467q10.2383 -1.90527 51.6338 -7.03809q41.3945 -5.13379 51.7949 -5.5332
l107.143 -3.71484q1.50977 0 7.73926 0.731445q6.22949 0.730469 16.1406 1.9668q9.91211 1.23535 15.5488 1.87402q4.3877 0.522461 7.93945 1.94922t5.96289 2.87305q2.41211 1.44629 4.38574 4.54004q1.97461 3.09473 3.02051 4.89258q1.04688 1.79883 2.06543 6.125
q1.01953 4.3252 1.32324 6.04004q0.304688 1.71582 0.991211 6.83789t0.882812 6.45605q0.111328 1.44922 0.111328 2.90625q0 13.7705 -9.65918 24.8066q-9.66016 11.0352 -23.3086 12.8584q-0.0800781 0.0078125 -93.1436 3.14258q-1.5293 0 -15.2607 -0.710938
q-13.7314 -0.709961 -25.1309 -0.491211q-11.3984 0.21875 -25.8672 1.59375q-14.4697 1.37402 -25.1992 6.15918q-10.7305 4.78516 -15.3984 12.5928q-5.19727 8.31445 0.19043 20.4199t17.2373 4.72266q23.8086 -11.3799 50 -14.5713v0.857422zM399 504.429
q73.3613 -68.1387 134.856 -147.143q16.1182 -25.4668 27.5264 -64.8213q11.4072 -39.3535 11.4072 -69.4922q0 -29.0889 -6.64746 -57.4014q-7.44336 -38.8506 -36.7432 -80.708q-29.3008 -41.8574 -63.2568 -62.1494q-33.2803 -16.4082 -70.3799 -16.4082
q-13.0391 0 -25.9062 2.12305q-61.9014 24.1143 -116.856 61.4287q-10.7041 7.57715 -17.8525 5.2832q-7.14844 -2.29297 -10.3818 -8.30859q-3.23242 -6.0166 -6.40723 -11.7969t-5.93066 -5.17773q-10.8281 3.05176 -11.4277 14.2852q0 18.8418 59.4277 57.1436
q30.7588 24.0664 64 44.5713q8.59082 0 16.4385 -5.61426t7.84766 -11.8145q-16.7119 -18.6055 -36.8574 -33.4287q33.1064 -32.5029 75.7148 -50.8574q19.1377 -8.41895 40.04 -8.41895q14.1406 0 32.0439 6.15039q17.9023 6.15039 29.0586 14.8398
q12.5303 17.9414 21.3984 46.127t8.86816 50.0684q0 11.9609 -1.69531 23.8047q-1.52051 32.8799 -21.9727 71.2256q-20.4531 38.3457 -48.5576 69.5859q-28.1035 31.2402 -55.9912 57.7832q-27.8867 26.543 -47.2539 41.4033l-19.3672 14.8594
q-1.62598 -1.02051 -4.38477 -2.625q-2.75879 -1.60352 -10.2109 -5.10449t-13.6885 -5.36328q-6.2373 -1.86328 -12.6797 -1.40234t-9.32227 4.78125q-7.08203 10.0439 4.94238 24.7549t25.1631 23.4424t23.6094 14.0879q1.64551 0.841797 24.0469 17.0986
q22.4023 16.2559 42 25.8037t27.0957 2.8125q6.6875 -8.41309 1.8623 -18.5078q-4.8252 -10.0957 -14.2002 -18.5088z" />
  </g>

</svg>
