<?xml version="1.0" standalone="no"?>
<!DOCTYPE svg PUBLIC "-//W3C//DTD SVG 1.1//EN" "http://www.w3.org/Graphics/SVG/1.1/DTD/svg11.dtd" >
<svg xmlns="http://www.w3.org/2000/svg" xmlns:xlink="http://www.w3.org/1999/xlink" version="1.1" viewBox="-10 0 840 1000">
  <g transform="matrix(1 0 0 -1 0 800)">
   <path fill="currentColor"
d="M363.321 3.71387q-60.0771 -0.135742 -106.069 31.5986q-45.9922 31.7334 -67.9561 77.9463q-21.9639 46.2139 -22.2598 96.7412q-0.385742 47.8711 11.1592 96.9531q11.5459 49.0811 25.6816 82.415t26.1758 71.835q12.0391 38.501 12.4121 67.3682
q0.957031 7.35059 0.957031 14.7646q0 27.623 -17.0234 56.7822t-41.0771 42.7393q-21.4111 12.0615 -39.8525 7.29004t-27.8262 -14.1123q-9.38477 -9.33984 -23.4863 -21.9863t-26.835 -16.335q-20.5342 -6.12012 -22.1426 10.9648q-1.60742 17.085 11.2861 27.8926
q10.6777 9.91504 27.4883 26.4814t23.8809 22.8545q7.06934 6.28906 18.7979 13.6367t24.4043 11.0273q36.4355 10.4531 63.916 -2.84473q27.4814 -13.2988 42.0293 -43.2344q14.5479 -29.9346 21.4434 -63.6504q6.89648 -33.7148 6.89648 -69.6992
q-0.259766 -48.5547 -26.0059 -149.815q-25.7471 -101.261 -20.5654 -157.041q7.26855 -78.2432 51.5645 -130.55q44.2949 -52.3076 102.722 -52.3076q50.8281 0 92.0664 19.1855q41.2383 19.1865 69.8359 54.1055q28.5967 34.9199 47.7441 78.0645
q19.1484 43.1445 30.9248 96.6445q13.8232 79.0186 8.94141 118.857q-4.88086 39.8379 -11.8828 104.571t-0.772461 121.143q0.655273 16.9648 11.1201 35.6328q10.4639 18.6689 24.5938 28.0811q17.0693 10.7734 46.5205 15.8027q29.4521 5.0293 52.292 0.96582
t21.7588 -16.7686q-1.24121 -12.9893 -11.9736 -17.835q-10.7334 -4.84473 -23.4229 -4.25391t-25.4619 -4.48633q-12.7725 -5.07812 -17.1416 -18.2812q-11.5127 -35.584 -8.1377 -108.053t7.22754 -130.847t-14.8037 -125.958q-39.7295 -118.338 -113.881 -189.726
q-74.1514 -71.3867 -174.69 -90.8457q-20.1006 -3.71484 -40.5723 -3.71484zM534.75 272.571q-10.3984 -26.5771 -38.1914 -46.668q-27.793 -20.0918 -56.3799 -21.9033q-38.5156 -2.81836 -76.4004 14.9326q-37.8848 17.752 -37.8848 45.9248
q0.391602 13.3086 13.7139 17.1787q13.3232 3.86914 23.1426 -1.46484q4.01172 -1.6748 39.5176 -23.7959t54.4824 -19.918q20.6465 2.46094 33.2305 22.9766q12.585 20.5166 11.4443 45.5703t-16.1035 39.7383q-11.3896 11.1719 -33.8564 31.3584
q-22.4668 20.1855 -32.7637 30.9863q-10.2979 10.8008 -23.7295 28.625q-13.4326 17.8242 -19.3926 37.501q-5.96094 19.6777 -7.11426 44.3867q0.335938 40.0986 28.8828 70.4863q28.5469 30.3887 68.5459 33.2275q8.1748 0.487305 16.3975 0.487305
q40.5117 0 79.3164 -11.6299q10.5283 -5.18359 10.5283 -16.918q0 -8.85547 -6.81445 -14.5107q-6.7207 -4.78223 -46.0518 3.56934q-39.332 8.35254 -51.0908 0.716797q-11.5938 -9.16406 -19.7998 -26.1084q-8.20508 -16.9443 -8.20508 -31.7227
q0 -10.8887 3.14746 -21.3115q3.58887 -21.9062 20.5898 -41.5674q17.001 -19.6602 39.0107 -40.2949q22.0098 -20.6357 31.8281 -38.71q12.5371 -26.3691 12.5371 -55.5713q0 -29.2002 -12.5371 -55.5713z" />
  </g>

</svg>
