<?xml version="1.0" standalone="no"?>
<!DOCTYPE svg PUBLIC "-//W3C//DTD SVG 1.1//EN" "http://www.w3.org/Graphics/SVG/1.1/DTD/svg11.dtd" >
<svg xmlns="http://www.w3.org/2000/svg" xmlns:xlink="http://www.w3.org/1999/xlink" version="1.1" viewBox="-10 0 411 1000">
  <g transform="matrix(1 0 0 -1 0 800)">
   <path fill="currentColor"
d="M165.396 -30.2861q-24.8271 0 -30.3213 18.6787q-5.49316 18.6797 15.75 45.0361q8.80371 10.4111 42.0107 45.9043t55.2178 61.5244q22.0098 26.0312 21.6289 33.1426q-0.411133 7.66602 -47.6338 52.6748q-47.2236 45.0088 -47.2236 54.1826q0 9.49707 42.2158 42.9834
t43.499 40.1592q1.26953 6.60352 -23.5166 37.0322q-24.7852 30.4277 -50.2061 57.5547l-25.4209 27.127q-0.525391 -0.459961 -1.41309 -1.19824q-0.886719 -0.738281 -3.73145 -2.99707t-5.29102 -3.90137t-6.09082 -3.91113q-3.64453 -2.26953 -6.13086 -3.02734
t-5.41113 -1.24805q-2.9248 -0.489258 -3.93164 1.42676q-8.10059 10.2734 30.793 44.6738q38.8936 34.3994 47.4932 30.4688q5.93652 -3.97852 3.46094 -10.3281q-2.47656 -6.34863 -8.54004 -12.2959l-6.06348 -5.94727q5.09766 -4.37988 13.5645 -11.8105
q8.46777 -7.42969 30.1689 -27.5137q21.7012 -20.083 38.3613 -36.9062q16.6611 -16.8242 30.5117 -34.2344t14.25 -25.25q0.613281 -12.0205 -20.7988 -31.6514q-21.4121 -19.6318 -43.1641 -36.9824q-21.751 -17.3506 -21.751 -23.6514q0 -6.32031 21.8164 -26.4844
t43.2246 -42.3652q21.4082 -22.2021 20.6729 -33.7217q-0.957031 -15.002 -73.8662 -89.9854q-72.9082 -74.9834 -74.1338 -81.4434q-1.02344 -5.39648 2.73242 -18.3018q3.75684 -12.9053 1.58301 -20.1592t-16.3154 -7.25391h2z" />
  </g>

</svg>
