<?xml version="1.0" standalone="no"?>
<!DOCTYPE svg PUBLIC "-//W3C//DTD SVG 1.1//EN" "http://www.w3.org/Graphics/SVG/1.1/DTD/svg11.dtd" >
<svg xmlns="http://www.w3.org/2000/svg" xmlns:xlink="http://www.w3.org/1999/xlink" version="1.1" viewBox="-10 0 489 1000">
  <g transform="matrix(1 0 0 -1 0 800)">
   <path fill="currentColor"
d="M99 100q82 93 119.5 154t37.5 100q0 33 -18.5 51t-51.5 18q-32 0 -64 -22.5t-54 -60.5h-11l-14 57q31 49 80.5 79.5t99.5 30.5q66 0 106 -34t40 -90q0 -31 -18 -67.5t-61 -90.5t-123 -143l4 -7h128q36 0 55 7.5t30 26.5t20 57l56 6q-21 -98 -29 -171l-13 -9
q-243 8 -329 8l-58 -11l-9 25z" />
  </g>

</svg>
