<?xml version="1.0" standalone="no"?>
<!DOCTYPE svg PUBLIC "-//W3C//DTD SVG 1.1//EN" "http://www.w3.org/Graphics/SVG/1.1/DTD/svg11.dtd" >
<svg xmlns="http://www.w3.org/2000/svg" xmlns:xlink="http://www.w3.org/1999/xlink" version="1.1" viewBox="-10 0 640 1000">
  <g transform="matrix(1 0 0 -1 0 800)">
   <path fill="currentColor"
d="M515.065 514.286v-0.857422q8.17969 2.87402 13.5361 -8.46484q5.35645 -11.3379 -2.96387 -16.3926q-68.7705 -38.6465 -162.53 -98.9199q-93.7607 -60.2744 -157.47 -106.794q20.7617 0 58.8252 -0.761719t69.2061 -0.761719t58.8252 1.52344
q17.0771 0.948242 27.6426 -9.85742q10.5664 -10.8057 -1.07129 -24.4287q-28.2334 -29.2129 -80.2773 -82.0049q-52.0439 -52.791 -68.5791 -69.709q-23.1172 -23.1172 -16.0771 -26.1357q1.68262 -0.72168 4.64844 -0.72168q39.0078 -1.2002 296.571 -11.1426
q13.251 -0.530273 16.2295 -14.085q2.97852 -13.5557 -3.41113 -26.8779q-6.39062 -13.3232 -15.9609 -13.3232q-292.452 7.42871 -360 7.42871q-31.7129 0.881836 -31.0303 8.10742q0.208984 2.20898 2.45898 5.03516q23.3867 28.7539 50.9053 58.3643
q27.5186 29.6094 64.3789 67.1768t54.1436 55.8877q20.7412 22.627 12.9961 25.5742q-1.87012 0.711914 -4.99609 0.711914h-162.856q-1.4502 0 -8.69434 0.319336t-11.4727 0.21875q-4.22754 -0.101562 -9.82227 -1.54004q-5.59473 -1.43945 -8.58203 -4.42676
q-1.00684 -0.921875 -3.09082 -2.81055q-6.78418 -6.15039 -10.3633 -9.63086t-8.92578 -10.0752q-5.34668 -6.5957 -7.32031 -11.7432q-1.97266 -5.14746 -2.12012 -12.0869t3.24805 -13.6533q2.35254 -4.78223 9.35742 -8.95996q7.00488 -4.17871 13.7334 -6.55957
q6.72754 -2.38184 12.5391 -6.08008t5.77832 -7.52051q-0.0332031 -3.82129 -6.55078 -10.8799q-10.5303 -11.3516 -28.9424 -19.3857q-18.4111 -8.0332 -33.8955 -8.0332q-3.46094 0 -6.87598 0.276367q-24.9883 6.64941 -29.8936 32.9277q-4.9043 26.2783 8.46484 49.6436
q11.0723 22.3486 26.1729 42.0635q15.0996 19.7158 39.623 41.1621t36.1719 30.6689q11.6475 9.22266 43.4609 33.248q41.0732 31.8379 103.105 70.6807q62.0322 38.8438 108.608 61.8906q49.8535 29.2881 103.143 51.7148zM152.209 432.857
q1.60254 0.132812 3.20801 0.132812q9.78613 0 19.8965 -6.15039t14.6094 -14.8398q9.95117 -17.9961 -10.5732 -36.5117q-20.5234 -18.5156 -46.5693 -16.3457q-23.9697 1.99805 -12.1074 35.6914q12.7344 31.3545 31.5361 38.0234zM552.209 268
q12.7686 4.58398 22 -21.4287q4.0293 -19.8809 -11.2744 -42.7588q-15.4844 -23.1504 -30.7256 -4.09863q-7.20117 11.5742 -7.20117 25.2061q0 12.4736 7.96973 25.0957t19.2314 17.9844z" />
  </g>

</svg>
