<?xml version="1.0" standalone="no"?>
<!DOCTYPE svg PUBLIC "-//W3C//DTD SVG 1.1//EN" "http://www.w3.org/Graphics/SVG/1.1/DTD/svg11.dtd" >
<svg xmlns="http://www.w3.org/2000/svg" xmlns:xlink="http://www.w3.org/1999/xlink" version="1.1" viewBox="-10 0 433 1000">
  <g transform="matrix(1 0 0 -1 0 800)">
   <path fill="currentColor"
d="M37 -83.5q-16 19.5 -18 66.5l8 9q42 -11 83 -11q46 0 83 15.5t58.5 42t21.5 59.5q0 47 -40 69t-125 23l-7 7l-6 47l65 15q38 17 61 47t23 61q0 28 -20 45.5t-51 17.5q-27 0 -57.5 -13.5t-54.5 -36.5l-11 -1l-14 55q22 18 75 45.5t99 27.5q62 0 99.5 -31t37.5 -83
q0 -40 -30 -78t-80 -62v-6q68 -16 102.5 -48.5t34.5 -78.5q0 -52 -42.5 -104t-109 -85.5t-132.5 -33.5q-37 0 -53 19.5z" />
  </g>

</svg>
