<?xml version="1.0" standalone="no"?>
<!DOCTYPE svg PUBLIC "-//W3C//DTD SVG 1.1//EN" "http://www.w3.org/Graphics/SVG/1.1/DTD/svg11.dtd" >
<svg xmlns="http://www.w3.org/2000/svg" xmlns:xlink="http://www.w3.org/1999/xlink" version="1.1" viewBox="-10 0 469 1000">
  <g transform="matrix(1 0 0 -1 0 800)">
   <path fill="currentColor"
d="M333.5 480.5q42.5 -26.5 66 -75t23.5 -110.5q0 -88 -41 -166t-117.5 -138t-179.5 -94l-9 5l-14 41q95 41 157.5 103t88.5 139l-6 4q-72 -43 -101 -45q-48 0 -87 21.5t-61.5 59.5t-22.5 85q0 56 26.5 101t74 70.5t106.5 25.5q54 0 96.5 -26.5zM276 224q25 9 46 24
q3 21 3 44q0 71 -28.5 112t-78.5 41q-44 0 -69 -29t-25 -81q0 -51 30.5 -85.5t76.5 -34.5q20 0 45 9z" />
  </g>

</svg>
