<?xml version="1.0" standalone="no"?>
<!DOCTYPE svg PUBLIC "-//W3C//DTD SVG 1.1//EN" "http://www.w3.org/Graphics/SVG/1.1/DTD/svg11.dtd" >
<svg xmlns="http://www.w3.org/2000/svg" xmlns:xlink="http://www.w3.org/1999/xlink" version="1.1" viewBox="-10 0 949 1000">
  <g transform="matrix(1 0 0 -1 0 800)">
   <path fill="currentColor"
d="M592.072 64q120.354 22.375 139.715 110.571q3.62695 21.5352 3.62695 43.3721q0 54.2744 -21.627 104.057q-13.04 36.3203 -65.5996 70.4277t-118.257 56.8428q-65.6982 22.7354 -129.533 40.2822q-63.835 17.5459 -107.08 25.7109l-43.2451 8.16504
q-0.980469 -1.6416 -2.6709 -4.30762q-1.68945 -2.66602 -7.21777 -10.9092q-5.5293 -8.24414 -10.5771 -14.4932q-5.04883 -6.24902 -12.7471 -15.0576q-7.69727 -8.80859 -13.7256 -12.6045q-6.02832 -3.79492 -13.5156 -7.13086q-7.48828 -3.33594 -12.1172 1.36035
q-7.32812 4.39648 -7.95605 13.4365t6.79297 24.4863q7.41992 15.4453 12.9326 25.2734q5.5127 9.82812 19.0664 30.5889q13.5547 20.7607 16.5928 25.6426q3.02148 4.69141 9.5752 15.0898q6.55469 10.3994 10.6494 16.7285q4.09473 6.3291 10.3555 15.6934
q6.26074 9.36426 10.9385 15.3037q4.67871 5.93945 10.0059 12.0205q5.32715 6.08008 9.94922 9.38086q4.62207 3.30078 8.52637 4.06934q3.05078 0.944336 6.24707 0.944336q11.1729 0 17.4668 -9.23047q4.33887 -4.74121 2.18359 -13.2002
q-2.15625 -8.45898 -4.64746 -12.9062t-8.34375 -13.71q-5.85254 -9.2627 -8.90625 -15.6113q6.32227 -0.814453 17.3809 -2.45605t45.0684 -8.08984q34.0107 -6.44824 67.167 -14.3311t78.4795 -21.6729t84.5498 -29.5879q39.2256 -15.7979 79.834 -38.6045
q40.6074 -22.8057 69.875 -48.1934q29.2686 -25.3877 49.1328 -58.8838q19.8643 -33.4961 22.7988 -70.1807q4.11816 -50.8633 -3.3252 -91.9033q-7.44336 -41.041 -26.5107 -72.4521q-19.0674 -31.4121 -39.7754 -53.2803q-20.707 -21.8682 -51.8174 -46.3643
q-76.1641 -57.4834 -244.286 -45.7148q-37.96 2.58594 -82.7188 22.5986q-44.7588 20.0137 -88.6572 38.4219q-43.8975 18.4082 -82.9092 18.4082q-18.2529 0 -51.9258 -19.8027q-33.6719 -19.8027 -54.6465 -18.7686q-23.0879 1.60547 -30.9658 15.9209
q-7.87891 14.3145 -6.46191 41.2217q8.41309 34.9561 39.6377 62.665q31.2256 27.71 66.9336 31.9062q30.9463 1.52832 67.8652 -15.5859q36.918 -17.1143 69.8672 -40.5322q32.9482 -23.418 79.5635 -45.8535q46.6143 -22.4365 96.9531 -31.5498
q50.3379 -9.11426 122.036 2.37891zM841.216 108q17.5156 -0.652344 32.668 -13.209q15.1523 -12.5576 19.0459 -29.6484q0 -18.332 -22.498 -31.8799q-22.499 -13.5488 -36.6445 -13.5488q-16.1709 1.23828 -27.6143 13.5918q-11.4443 12.3535 -11.4443 28.5713
q0 2.07031 0.201172 4.12305q0 17.2852 16.0166 29.6426q16.0176 12.3574 30.2695 12.3574z" />
  </g>

</svg>
