<?xml version="1.0" standalone="no"?>
<!DOCTYPE svg PUBLIC "-//W3C//DTD SVG 1.1//EN" "http://www.w3.org/Graphics/SVG/1.1/DTD/svg11.dtd" >
<svg xmlns="http://www.w3.org/2000/svg" xmlns:xlink="http://www.w3.org/1999/xlink" version="1.1" viewBox="-10 0 784 1000">
  <g transform="matrix(1 0 0 -1 0 800)">
   <path fill="currentColor"
d="M240.469 687.429q9.47754 -1.77734 18.293 -11.2529q8.81543 -9.47461 2.56445 -20.4619q-4.36426 -7.66992 -27.7637 -12.9102q-23.3994 -5.23926 -25.665 -15.6611q-2.29297 -10.9561 20.8027 -37.1924q23.0957 -26.2363 42.626 -26.2363
q56.3711 -2.46484 211.896 -6.98438q155.524 -4.52051 186.104 -5.58691q17.7295 -0.479492 38.5332 -14.4307q20.8037 -13.9512 18.6094 -28.7119q-7.25293 -46.9033 -20.8506 -133.837q-13.5986 -86.9336 -27.4414 -175.374q-13.8418 -88.4404 -20.8506 -133.646
q-10.2988 -64 -38.8574 -64q-53.0361 0 -219.535 2.85742q-166.5 2.85742 -219.321 2.85742q-17.7295 -0.464844 -35.8955 -12.0176t-26.1045 -27.4111q-4.72949 -10.0146 -1.07129 -32.1787q3.65723 -22.1641 -2.35742 -30.6787q-9.36621 -17.4502 -28.5713 -22.2852
q-5.37012 -2.125 -11.1436 -2.125q-5.77246 0 -11.1426 2.125q-11.0762 9.06738 -16.5713 22.2852q-3.75488 10.8965 -3.75488 22.4287t3.75488 22.4287q23.1533 35.2461 68.9453 65.2998q45.791 30.0537 87.3398 37.2715q27.5273 2.1377 157.036 -0.321289
q129.509 -2.45996 181.25 0.321289q14.1152 0.762695 22.208 13.2949q8.09277 12.5322 9.79199 25.8477q11.4766 78.9023 48.5713 327.715q4.93066 25.2178 2.78613 41.7578q-2.14453 16.5391 -4.70117 25.6982q-2.55762 9.1582 -8.6377 13.5332
q-6.08105 4.375 -9.02148 5.26465q-2.94141 0.888672 -5.85449 0.888672q-44.3975 0.758789 -115.592 3.25586q-71.1953 2.49707 -154.244 5.77344t-116.164 4.39941q-29.6797 1.0752 -64.4365 40.1201q-34.7568 39.0459 -28.9922 65.3086q4.25 19.8975 55.9961 42.8301
q51.7461 22.9316 67.4326 19.7412z" />
  </g>

</svg>
