<?xml version="1.0" standalone="no"?>
<!DOCTYPE svg PUBLIC "-//W3C//DTD SVG 1.1//EN" "http://www.w3.org/Graphics/SVG/1.1/DTD/svg11.dtd" >
<svg xmlns="http://www.w3.org/2000/svg" xmlns:xlink="http://www.w3.org/1999/xlink" version="1.1" viewBox="-10 0 875 1000">
  <g transform="matrix(1 0 0 -1 0 800)">
   <path fill="currentColor"
d="M818.428 547.714q0 -10.0762 -3.78516 -21.3945q-3.78516 -11.3184 -13.9609 -27.3037t-15.9814 -24.4541q-5.80566 -8.46777 -22.3271 -30.1152q-16.5215 -21.6475 -20.5166 -27.0176q-32.5029 -43.5537 -74.5107 -83.1934q-42.0078 -39.6396 -91.0742 -74.0449
q-49.0654 -34.4062 -90.8184 -60.5518t-98.4111 -59.9883q-56.6582 -33.8438 -89.1855 -55.0791q-21.8584 -14.3018 -54.1494 -36.3447q-32.292 -22.043 -48.9629 -32.9795q-16.6709 -10.9355 -38.0498 -23.3857q-21.3779 -12.4502 -37.4424 -17.8252
q-16.0635 -5.375 -31.1094 -6.03613q-12.6572 0 -21.6143 8.95703q-8.95703 8.95801 -8.95703 21.6143q5.77539 17.043 14.8564 32.5713q1.82715 4.00293 3.7832 16.4619q1.95508 12.458 6.05371 21.3633t12.7354 11.3184q4.61035 1.2998 20.375 -1.9248
q15.7646 -3.22461 25.0527 -0.0751953q8.39648 3.13867 61.8818 19.8115q53.4844 16.6719 78.6904 27.6162q70.3662 31.6621 162.954 88.002q92.5879 56.3389 153.046 104.284q28.7227 26.1953 62.9619 68.4717q34.2393 42.2754 53.8945 75.8145
q18.8594 35.7354 18.8594 76.1416q0 0.320312 -0.00195312 0.714844q1.49609 15.2139 -8.46094 40.2295q-9.95703 25.0166 -24.1104 30.9141q-23.9639 7.46973 -49.0645 7.46973q-37.2822 0 -70.9355 -16.042q-16.918 -8.5752 -35.7451 -28.6807
q-18.8262 -20.1064 -18.8262 -32.4619q0.509766 -8.59766 6.95605 -15.0439q6.44629 -6.44531 15.0439 -6.95605q8.69629 0 13.6729 6.16113q4.97754 6.16016 6.80469 13.5527q1.82812 7.39355 8.07031 13.5537q6.24316 6.16113 17.166 6.16113
q0.993164 0.0703125 2 0.0703125q11.8291 0 20.2002 -8.37109t8.37109 -20.2002q0 -20.7607 -29.21 -41.9863q-29.21 -21.2266 -45.3613 -21.2266q-17.9131 0 -30.5107 8.52637q-12.5977 8.52734 -19.3213 18.7598q-6.72363 10.2314 -22.8311 18.7588
q-16.1074 8.52637 -40.1943 8.52637q-44.8789 -1.61523 -88.2852 -13.1436q-5.94043 -2.18457 -10.1279 -4.56445q-4.18652 -2.37988 -6.28027 -4.1084q-2.09375 -1.72949 -3.17188 -4.11914q-1.07715 -2.38965 -1.20898 -3.42578t0.0429688 -3.27832
q0.174805 -2.24121 0.174805 -2.50391q0 -1.82129 9.71484 -17.0352q9.71387 -15.2148 9.71387 -19.8213q0 -13.8662 -11.6807 -22.3711q-11.6807 -8.50586 -22.3535 -10.4961q-10.6729 -1.99023 -20.252 -1.99023q-0.28418 0 -4.06543 -0.0273438
q-3.78027 -0.0273438 -4.7959 0.00390625q-1.0166 0.0322266 -4.67871 0.236328q-3.66211 0.205078 -5.0791 0.595703q-1.41797 0.390625 -4.54004 1.16016q-3.12109 0.769531 -4.51855 1.85254q-1.39746 1.08301 -3.55762 2.74902q-2.15918 1.66699 -3.11426 3.77441
q-0.955078 2.10645 -1.73145 5.00391q-0.776367 2.89648 -0.776367 6.36523q0 5.35742 8.71484 23.0723q8.71387 17.7139 8.71387 22.6426q0 13.9512 -21.1494 49.833q-21.1484 35.8809 -35.9932 35.8809q-18.4258 0 -40.458 -32.2354q-22.0332 -32.2344 -25.2568 -46.3359
q-1.35059 -5.98828 -0.582031 -11.5664q0.769531 -5.57812 -1.02637 -14.1055q-1.79492 -8.52734 -7.24805 -15.7568q-18.3311 -17.5908 -43.7148 -18.5713q-50.8564 0 -50.8564 35.7148q0 9.8418 4.23438 14.4746q4.23438 4.63184 15.4355 9.24023
q11.2012 4.60938 17.1865 8.57031q14.5928 12.9746 30.248 34.9072q15.6543 21.9336 23.1807 39.9502q6.78516 11.2832 15.415 28.7959q8.62988 17.5117 12.9121 24.3057q4.28125 6.79297 13.7842 12.7031q9.50391 5.90918 23.6035 5.90918q10.0508 0 18.335 -2.46191
q8.28516 -2.46191 16.4648 -8.96875q8.17969 -6.50684 12.8564 -11.0586q4.67676 -4.55078 14.4072 -15.7568q9.73145 -11.207 14.2217 -16.0391q24.7393 -26.9521 61.5361 -30.0713q36.7959 -3.11914 121.321 8.07129q19.5635 2.10938 33.9121 12.9072
q14.3486 10.7969 22.8047 23.7119q8.45703 12.915 26.9902 28.5557t44.0068 25.1104q25.1543 10.9277 52.5713 11.4287q5.00586 0.216797 10.0527 0.216797q27.4062 0 63.3037 -10.1934q35.8984 -10.1924 59.2158 -24.5947q18.127 -11.1104 30.957 -34.0215
q12.8291 -22.9111 12.8291 -44.1729q0 -4.06152 -0.358398 -8.0918z" />
  </g>

</svg>
