<?xml version="1.0" standalone="no"?>
<!DOCTYPE svg PUBLIC "-//W3C//DTD SVG 1.1//EN" "http://www.w3.org/Graphics/SVG/1.1/DTD/svg11.dtd" >
<svg xmlns="http://www.w3.org/2000/svg" xmlns:xlink="http://www.w3.org/1999/xlink" version="1.1" viewBox="-10 0 788 1000">
  <g transform="matrix(1 0 0 -1 0 800)">
   <path fill="currentColor"
d="M502.545 94.5713q8.51074 50 -32 50q-13.9893 0 -29.5664 -17.7754q-15.5762 -17.7744 -15.5762 -31.082q2.9707 -13.8994 15.0254 -25.2012q12.0547 -11.3008 26.1172 -13.3701q13.1172 0 23.2949 12.2715q10.1787 12.2715 12.7051 25.1572zM695.116 637.429
q5.54688 -9.41016 22.0596 -26.6943q16.5117 -17.2832 16.5117 -30.4482q0 -8.99023 -6.3623 -15.3525q-6.3623 -6.3623 -15.3516 -6.3623q-10.9424 0 -35.2949 17.415q-24.3525 17.415 -29.5625 18.585q-38.2148 14.624 -78.5713 21.4287
q-49.0137 -2.62402 -97.4287 -10.5713q-12.2334 -2.00781 -13.5547 -37.1387q-1.32129 -35.1309 4.8125 -70.6475q6.13477 -35.5176 12.4561 -39.9287q4.79395 -3.34473 19.3555 4.71387t41.5752 19.7158q27.0146 11.6572 55.3555 13.8564q51.5488 4.06934 70.3457 -16.8271
q18.7969 -20.8965 18.7969 -56.3154q0 -48.6719 -62.2852 -134.857q-9.00781 -12.4053 -23.7373 -29.5049q-14.7305 -17.1006 -22.2881 -26.5166q-7.55859 -9.41602 -12.5967 -22.8584q-5.03906 -13.4424 -2.52148 -26.834q1.3252 -7.36133 5.89746 -21.4648
q4.57227 -14.1045 7.35742 -24.6113q2.78516 -10.5068 2.23242 -27.6484q-0.553711 -17.1416 -6.91504 -35.1328q-13.4961 -39.1182 -54.7783 -58.127q-41.2832 -19.0088 -75.5078 -14.4443q-31.5986 3.24902 -56.7129 27.8613q-25.1152 24.6113 -29.001 56.1387
q0.507812 15.124 8.20996 33.624q7.70215 18.501 18.0752 29.5186q16.5645 18.4316 44.5254 38.1045q27.96 19.6729 50.9033 29.0381q43.2002 19.5752 95.7432 82.1172t52.543 100.454q-0.666016 20.2031 -15.2324 36.9463q-14.5654 16.7422 -34.4824 20.1973
q-12.7383 0 -36.1016 -18.0713q-23.3623 -18.0713 -49.2256 -36.1436q-25.8633 -18.0713 -44.6729 -18.0713q-0.927734 -0.0419922 -1.87598 -0.0419922q-15.8105 0 -27.9854 11.1465t-13.5674 26.8955l2.57129 178.857l-213.428 2.57129
q-3.14453 -85.8037 -3.71484 -131.714v-160.572l37.8223 2.5q23.1885 -1.52832 21.3203 -13.3564q-1.03418 -5.69141 -11.7676 -10.1006q-10.7324 -4.40918 -38.9404 -12.085q-28.208 -7.67578 -45.8633 -13.5293q-4.93945 -1.63086 -14.7148 -5.04004
q-9.77539 -3.40918 -17.2852 -5.95703q-7.51074 -2.54785 -17.3057 -5.69043q-9.79395 -3.1416 -17.1553 -4.92188q-7.36133 -1.78125 -14.2959 -2.92578q-6.93555 -1.14551 -11.2686 -0.429688t-5.68848 3.25098q-5.71484 10.2852 9.71387 23.3564t33.7139 21
l18.2861 7.92871q2 136.388 2 188.286v124.857q-5.43945 2.21289 -13.5029 6.08496q-8.0625 3.87207 -21.5654 14.7822t-13.5029 20.5615q-0.0185547 0.423828 -0.0185547 0.888672q0 8.63477 6.11133 14.7461q6.11035 6.11133 14.7451 6.11133
q0.575195 0 1.16211 -0.0322266q14.9072 -1.63965 32.4385 -16.6768q17.5322 -15.0371 27.2764 -15.0371q28.3027 0 124.786 -1.7168q96.4824 -1.7168 155.855 -0.28125q59.373 1.43652 99.6436 7.99805q15.0703 2.46387 28.2051 14.9678q13.1338 12.5039 20.9072 25.6572
q7.77344 13.1523 19.1553 22.8877q11.3818 9.73438 24.0186 7.91504q10.5332 -1.51465 20.085 -6.34473t15.4248 -8.88184q5.87305 -4.05176 13.8926 -14.6836q8.01953 -10.6318 10.5205 -14.374q2.5 -3.74219 10.6064 -17.9541q8.10645 -14.2119 9.18457 -16.0469
h-0.571289z" />
  </g>

</svg>
