<?xml version="1.0" standalone="no"?>
<!DOCTYPE svg PUBLIC "-//W3C//DTD SVG 1.1//EN" "http://www.w3.org/Graphics/SVG/1.1/DTD/svg11.dtd" >
<svg xmlns="http://www.w3.org/2000/svg" xmlns:xlink="http://www.w3.org/1999/xlink" version="1.1" viewBox="-10 0 788 1000">
  <g transform="matrix(1 0 0 -1 0 800)">
   <path fill="currentColor"
d="M202.715 714.286q37 0 51.8301 -4.69727q14.8301 -4.69629 28.7412 -26.1602q14.1602 -21.999 25.665 -43.8223q11.5049 -21.8242 24.4795 -48.6416q12.9736 -26.8184 22.998 -45.5361q9.95312 -9.5625 23.7539 -9.5625q15.4404 0 25.6748 11.5625
q123.228 160.599 153.429 166.857q34.1504 2.98828 68.4287 2.98828q34.2773 0 68.4277 -2.98828q8.24512 -1.1543 16.9102 -1.32422q8.66504 -0.169922 11.0732 -0.552734q2.4082 -0.383789 4.07031 -2.84961q1.66113 -2.46484 1.66113 -8.98828
q0 -19.085 -15.4072 -25.3125q-15.4072 -6.22754 -31.6611 -3.08984q-16.2539 3.1377 -26.0742 -0.168945q0 -457.143 -12.5723 -526.286q-6.84277 -36.0215 -77.4277 -34.2852q-7.83887 0.192383 -21.9219 -0.523438q-14.083 -0.716797 -23.501 -0.817383
q-9.41797 -0.101562 -19.2471 1.05957q-9.82812 1.16016 -14.5176 5.62793t-3.95605 12.3672q0.837891 9.0332 12.0361 13.0195q11.1982 3.98535 24.4365 4.93945q13.2393 0.955078 25.5107 9.1582q12.2705 8.2041 14.874 24.5977q7.14844 46.5918 10.6357 116.492
q3.48633 69.9014 5.49121 165.205q2.00391 95.3037 3.58691 132.874v78.5713q-16.915 -7.87598 -36.6709 -24.1162q-19.7568 -16.2412 -30.7568 -31.3125q-19.2275 -23.1543 -77.623 -99.6553t-78.6631 -100.345q-5.99902 -8 -16 -8q-10.001 0 -16 8l-123.714 240.286
q-2.00879 -305.134 -6.28613 -591.429q0 -29.8848 25.0254 -34.6787q27.6318 -5.29297 45.3496 25.1582q4.79004 8.2334 7.625 18.3779q5.55469 18.8359 6.21387 37.6426q0.660156 18.8057 -6.21387 25.2139q-20 11.4297 -20 34q0 40.5713 36 40.5713
q24.7363 0 31.8643 -22.5371q7.12695 -22.5371 6.42188 -78.0342q-1.00781 -79.248 -92 -133.714q-22.5059 -16.3125 -50.3027 -16.3125q-26.4277 0 -48.2695 14.8838q-11.9453 7.43262 -17.3652 26.2646q-5.41895 18.8311 -4.9834 40.9941
q0.435547 22.1641 0.920898 47.0273q2.03125 52.6982 4.6748 196.912q2.64258 144.215 4.26953 262.079l1.62695 117.865q-0.998047 -0.116211 -2.74023 -0.293945q-1.74316 -0.176758 -7.08398 -0.5625q-5.34082 -0.384766 -10.5283 -0.577148
q-5.18652 -0.191406 -12.2383 -0.106445q-7.05078 0.0849609 -13.1045 0.603516q-6.05371 0.518555 -12.2383 1.79883q-6.18555 1.2793 -10.5283 3.23242q-4.34375 1.95312 -7.08398 5.15137t-2.74023 7.3252q0.121094 8.01562 3.22754 13.3828
q3.10645 5.36816 9.30078 8.52539q6.19336 3.15723 15.5322 4.72168q9.33887 1.56348 21.9258 1.97168q12.5859 0.40918 28.4775 0.27832q15.8906 -0.129883 35.1895 -0.361328q19.2979 -0.231445 42.0615 0.0537109z" />
  </g>

</svg>
