<?xml version="1.0" standalone="no"?>
<!DOCTYPE svg PUBLIC "-//W3C//DTD SVG 1.1//EN" "http://www.w3.org/Graphics/SVG/1.1/DTD/svg11.dtd" >
<svg xmlns="http://www.w3.org/2000/svg" xmlns:xlink="http://www.w3.org/1999/xlink" version="1.1" viewBox="-10 0 693 1000">
  <g transform="matrix(1 0 0 -1 0 800)">
   <path fill="currentColor"
d="M629.491 122.571q-30.0977 -22.0654 -67.0156 -58.9834t-58.9844 -67.0166q-4.72266 -7.55859 -33.1426 12.5713q-12.8594 8.90332 -15.8213 19.6787t3.25 13.4648q16.9443 11.4023 32.2852 24.8564l-155.429 155.429l-142.856 -142.857q15.1309 -13.5488 32 -24.8564
q7.91699 -5.27832 -12.5713 -33.1436q-9.84961 -13.3945 -20.2148 -16.1426q-10.3643 -2.74707 -12.9287 3.57129q-22.0654 30.0977 -58.9834 67.0166q-36.918 36.918 -67.0166 58.9834q-7.55664 4.72461 12.5713 33.1436q8.90332 12.8594 19.6797 15.8213
q10.7764 2.96094 13.4639 -3.25q11.4111 -16.79 24.8564 -32l142.857 142.856l-131.143 130.857q-13.1826 -15.3096 -24.5713 -32q-4.72363 -7.55762 -33.1436 12.5713q-12.8594 8.90332 -15.8203 19.6787q-2.96191 10.7754 3.24902 13.4648
q30.0986 22.0654 67.0166 58.9834q36.918 36.918 58.9834 67.0166q5.2793 7.91699 33.1436 -12.5723q13.4043 -9.85547 16.1426 -20.25q2.73828 -10.3936 -3.57129 -13.1777q-14.8203 -10.498 -31.7148 -24.8574l130.571 -130.571l140.572 140.571
q-15.3721 13.2988 -32.2861 24.5713q-7.55762 4.72461 12.5713 33.1426q8.90332 12.8594 19.6787 15.8213q10.7754 2.96191 13.4639 -3.25q22.1152 -29.998 59.0332 -66.832q36.918 -36.834 66.9668 -58.8818q7.96582 -5.64258 -12.5713 -33.4287
q-7.91016 -10.9531 -19.0352 -14.5361q-11.125 -3.58203 -14.1074 1.96484q-10.5605 15.1807 -24.8574 32l-139.714 -140.286l155.429 -155.428q13.5566 15.1387 24.8564 32q4.59082 4.30078 10.8936 1.64258q6.30273 -2.6582 22.25 -14.2148
q10.7832 -7.93457 14.1074 -19.0352q3.32422 -11.1016 -2.39355 -14.1074z" />
  </g>

</svg>
