<?xml version="1.0" standalone="no"?>
<!DOCTYPE svg PUBLIC "-//W3C//DTD SVG 1.1//EN" "http://www.w3.org/Graphics/SVG/1.1/DTD/svg11.dtd" >
<svg xmlns="http://www.w3.org/2000/svg" xmlns:xlink="http://www.w3.org/1999/xlink" version="1.1" viewBox="-10 0 781 1000">
  <g transform="matrix(1 0 0 -1 0 800)">
   <path fill="currentColor"
d="M484.172 51.7139q94.8887 14.4238 109.143 88.2861q2.94922 17.3008 2.94922 34.8506q0 43.5557 -17.5205 83.4355q-10.2402 29.2803 -52.2637 56.707q-42.0244 27.4277 -94.6855 45.6572q-52.6621 18.2295 -103.861 32.2764q-51.1982 14.0469 -85.9082 20.5605
l-34.71 6.5127q-0.758789 -1.31348 -2.07031 -3.44629q-1.3125 -2.13281 -5.60938 -8.72852q-4.29785 -6.59668 -8.24316 -11.5977q-3.94531 -5.00195 -9.97266 -12.0527t-10.7969 -10.0928q-4.77051 -3.04297 -10.7178 -5.7207t-9.73242 1.06738
q-4.31641 2.54199 -5.69629 7.2002q-1.37988 4.6582 0.694336 11.7324q2.0752 7.0752 4.65625 13.4453q2.58203 6.37109 8.55664 16.2812t9.86914 16.0342q3.89453 6.12402 11.1201 16.9102q7.22656 10.7871 9.94238 14.9678q3.58594 5.24121 11.3652 17.124
q7.77832 11.8818 12.7764 19.1143q4.99707 7.23242 11.5342 15.8662q6.53711 8.63379 11.8848 13.2861t9.58203 5.4668q2.53711 0.820312 5.19434 0.820312q8.93164 0 13.9492 -7.3916q3.23438 -4.3584 1.52246 -11.1426q-1.71191 -6.78516 -3.70117 -10.2861
t-6.54102 -10.7148q-4.55078 -7.21387 -6.99512 -12.4287q8.30078 -1.04102 22.624 -3.21582q14.3232 -2.17578 55.8379 -10.9482q41.5146 -8.77148 79.4902 -19.7588q37.9766 -10.9883 84.8008 -30.5498q46.8252 -19.5615 81.1357 -42.3604
q34.3105 -22.7979 59.126 -56.1484q24.8164 -33.3506 27.5566 -71.0186q1.97168 -14.5322 1.97168 -29.2109q0 -49.0908 -29.208 -102.647q-29.208 -53.5576 -70.4775 -80.1416q-60.5469 -45.9434 -196.286 -36.8564q-35.3652 2.45801 -100.414 33.2285
q-65.0479 30.7715 -103.586 30.7715q-14.7324 0 -41.8232 -15.9404q-27.0898 -15.9395 -43.8906 -15.2031q-30.9629 1.4248 -28.5713 45.4287q6.86426 27.9883 31.9785 50.1719q25.1143 22.1846 53.7354 25.543q24.9121 1.29883 54.4502 -12.416
q29.5391 -13.7158 55.8496 -32.5352q26.3105 -18.8193 63.6523 -36.8408q37.3428 -18.0215 77.8604 -25.335q40.5186 -7.31348 98.4736 1.9834zM684.172 87.1426v-1.42871q13.7598 -0.379883 25.8984 -10.0908t15.5303 -23.0518q0 -14.75 -18.0205 -25.6602
q-18.0215 -10.9111 -29.4082 -10.9111q-12.9473 1.1416 -22.1104 11.1484q-9.16309 10.0078 -9.16309 23.0049q0 1.49805 0.130859 2.98926q0 13.9609 12.8398 23.9805q12.8389 10.0195 24.3027 10.0195z" />
  </g>

</svg>
