<?xml version="1.0" standalone="no"?>
<!DOCTYPE svg PUBLIC "-//W3C//DTD SVG 1.1//EN" "http://www.w3.org/Graphics/SVG/1.1/DTD/svg11.dtd" >
<svg xmlns="http://www.w3.org/2000/svg" xmlns:xlink="http://www.w3.org/1999/xlink" version="1.1" viewBox="-10 0 727 1000">
  <g transform="matrix(1 0 0 -1 0 800)">
   <path fill="currentColor"
d="M107.791 448.286q259.301 -2.85156 340 0q101.429 0 159.143 3.14258q5.69238 0 16.9541 1.51953t19.2285 2.0625q7.9668 0.542969 15.9902 -0.581055q8.02344 -1.125 11.2051 -6.98926q3.18164 -5.86328 0.908203 -16.583q-2.22949 -10.5664 -5.5293 -14.1943
q-3.29883 -3.62793 -6.44629 -2.65723q-3.14746 0.97168 -7.8125 -1.39648q-4.66504 -2.36719 -8.7832 -10.3232q-2.26367 -4.90332 -4.39062 -16.8027q-2.12695 -11.8994 -5.50488 -33.9189q-3.37793 -22.0195 -6.67578 -39.2783q-1.74414 -25.1797 -15.1436 -46.5723
q-6.80566 -12.1982 -45.1729 -16.6475q-38.3672 -4.44824 -73.4639 -2.99023t-39.6484 3.92383q-7.49219 4.06348 -10.3496 23.6348t-1.96777 37.1113l0.888672 17.54q-33.1494 -1.7041 -36.5713 4q-3.15039 4.21094 -2.32129 10.7139q0.828125 6.50293 6.89258 7.28613
q34.2852 5.14258 70.2852 5.14258q1.22656 0 5.89453 0.136719q4.66895 0.137695 8.1377 0.111328q3.46875 -0.0263672 8.60059 -0.239258q5.13184 -0.212891 8.75293 -1.04395q3.62012 -0.831055 7.02637 -2.16309t4.98828 -3.7373q1.58301 -2.40625 1.17188 -5.63574
q0 -4.57129 -7.71387 -7.57129q-7.71484 -3 -15.4297 -3.71484l-7.71387 -0.713867q-0.579102 -7.03223 -0.579102 -14.0732q0 -19.9424 4.5791 -39.3555q1.50586 -4.0166 3.5293 -6.24707q2.02246 -2.23047 5.92871 -2.97656t6.82031 -0.776367
q2.91406 -0.0302734 10.1123 0.383789q7.19824 0.414062 11.8945 0.473633q10.5947 0.133789 14.2383 0.833008q3.64258 0.699219 9.07812 7.14648q5.43652 6.44727 8.99316 19.2998q3.55664 12.8525 9.40527 39.0059q5.90625 28.2988 7.71387 57.1426
q0 7.33398 -5.69531 12.6357q-5.69434 5.30273 -17.3047 8.03711q-11.6113 2.73438 -22.3818 4.31836q-10.7705 1.58398 -28.0254 1.67871q-17.2559 0.0947266 -26.6621 -0.0927734q-9.40723 -0.188477 -25.3936 -0.800781q-6.48926 -0.249023 -9.39355 -0.347656
q-33.1436 -1.01562 -73.6436 -1.01562t-64.4277 0.507812l-23.9287 0.507812l-28.5723 -380.571l160.857 -3.14258q15.7432 49.4307 30 50.2852q8.07422 0.40332 12.3594 -1.76367q4.28516 -2.16797 4.40332 -6.80566q0.118164 -4.63867 -0.53125 -7.99219
q-0.650391 -3.35352 -3.07129 -9q-2.41992 -5.64648 -2.58887 -6.15234q-2.01562 -6.63965 -5.82129 -20.7949q-3.80566 -14.1543 -6.62402 -23.6084q-2.81934 -9.45312 -6.62793 -19.9473t-7.92773 -15.9287q-4.11914 -5.43457 -8.42773 -5.43457
q-12.6982 0 -16.6982 7.85645q-4 7.85742 -1.65137 15.7148l2.34961 7.85645q-39.5137 2.28613 -83.4277 2.28613l-183.429 -2q-0.0410156 0 -3.00684 -0.314453q-2.96582 -0.314453 -6.54883 -0.467773q-3.58398 -0.15332 -8.3584 -0.108398t-9.05273 0.970703
q-4.2793 0.926758 -7.97363 2.55078q-3.69336 1.62402 -5.7793 4.84961q-2.08496 3.22559 -1.85156 7.66211q0 9.97656 3.77637 13.8506q3.77734 3.87305 14.7949 4.7207l69.7139 3.14355l30.2861 380l-131.144 1.71387q-13.7363 -25.4316 -25.1426 -26.8574
q-30.7246 -3.45605 0 43.1436q2.93848 4.15137 10.4648 18.2441q23.6963 44.3662 36.4512 44.0674q6.64746 -0.15625 12.2266 -9.45508q2.15918 -4.06348 -1.26953 -13.4199q-3.42871 -9.35742 -7.93652 -16.6826z" />
  </g>

</svg>
