<?xml version="1.0" standalone="no"?>
<!DOCTYPE svg PUBLIC "-//W3C//DTD SVG 1.1//EN" "http://www.w3.org/Graphics/SVG/1.1/DTD/svg11.dtd" >
<svg xmlns="http://www.w3.org/2000/svg" xmlns:xlink="http://www.w3.org/1999/xlink" version="1.1" viewBox="-10 0 564 1000">
  <g transform="matrix(1 0 0 -1 0 800)">
   <path fill="currentColor"
d="M504.714 366.857q0.0078125 -0.871094 0.0078125 -1.57812q0 -30.7266 -16.2432 -66.9307q-16.2432 -36.2041 -39.1934 -56.6348q-15.3447 -12.6162 -39.873 -24.8379q-24.5283 -12.2217 -43.8408 -16.876q-24.5234 -6.33887 -49.7148 -8.85742l-16.2852 -159.143
q2.87891 -0.195312 7.10059 -0.9375t10.9414 -5.3623q6.71973 -4.62109 5.95801 -11.9863q-0.8125 -7.30762 -5.35352 -11.5762q-4.54102 -4.26855 -12.8408 -5.3252q-8.30078 -1.05566 -14.8115 -1.04297q-6.51074 0.0136719 -17.2988 1.05273
q-10.7881 1.03809 -14.2666 1.17773q-12.0615 0 -23.4023 1.0127q-11.3408 1.01367 -22.4238 3.31836q-11.084 2.30469 -17.1025 6.94141q-6.01855 4.63574 -4.5 11.0137q2.41309 10.2852 10.9844 15.1426q8.57129 4.85645 15.9355 4.57129l7.36523 -0.286133
l13.1436 144.857l-109.144 -4q-1.53906 -3.64648 -4.28125 -8.87207t-10.7705 -12.6367q-8.02734 -7.41211 -15.5195 -4.49121q-29.709 11.8164 -7.14258 60q7.8457 17.8311 13.1162 27.248q5.26953 9.41699 14.3398 16.2656q9.06934 6.84961 19.4014 3.62891
q11.8096 -3.55566 14.4521 -12.627q2.64258 -9.07129 -0.619141 -16.3643l-3.26172 -7.29395q42.9561 0.00683594 93.4287 3.71387l2.85645 33.4287q-1.56738 0.00488281 -3.8916 0.572266q-2.32422 0.568359 -6.2168 5.71191q-3.8916 5.14453 -3.8916 14.2871
q0 13.4434 18.7148 15.8926q18.7139 2.4502 34.1426 -1.03516q2.96094 -0.237305 8.94141 -0.655273q12.874 -0.899414 19.3467 -1.71191q6.47363 -0.8125 14.9727 -3.05469q8.5 -2.24316 11.6943 -6.69238q3.19434 -4.44922 2.1875 -11.3145
q-0.295898 -7.26172 -5.64941 -12.4004q-5.35352 -5.13965 -12.6211 -5.13965q-1.01074 0 -2.01465 0.111328l-2.28613 -21.4287q6.42285 0 28.5713 4.28613q50.1396 9.26758 71.2822 21.7344q21.1426 12.4678 26.1465 43.6943q4.78027 29.4209 -3.59375 52.7334
t-24.876 37.9434q-16.5029 14.6318 -42.123 25.1377q-25.6191 10.5059 -50.5215 15.5898q-24.9023 5.08301 -54.8857 8.02441l-171.429 19.4287q-0.932617 -2.55957 -2.86816 -6.35449q-1.93555 -3.79395 -9.31152 -10.1484t-16.3916 -6.35449q-18.2852 0 -18.2852 20.2852
q1.95117 26.1387 13.4277 49.7148q14.0967 34.7676 41.4287 24q13.2852 -4.58301 13.2852 -18.6367q0 -7.2666 -4.71387 -12.792l248.286 -30.5713q22.4883 -2.81055 44.7891 -9.57617t45.3545 -18.749t37.4043 -32.3408q14.3506 -20.3574 14.4521 -45.9053z" />
  </g>

</svg>
