<?xml version="1.0" standalone="no"?>
<!DOCTYPE svg PUBLIC "-//W3C//DTD SVG 1.1//EN" "http://www.w3.org/Graphics/SVG/1.1/DTD/svg11.dtd" >
<svg xmlns="http://www.w3.org/2000/svg" xmlns:xlink="http://www.w3.org/1999/xlink" version="1.1" viewBox="-10 0 711 1000">
  <g transform="matrix(1 0 0 -1 0 800)">
   <path fill="currentColor"
d="M567.396 478.571q15.4736 -171.63 -5.71484 -234q-33.5479 -100.008 -96.2256 -160.354q-62.6768 -60.3467 -147.488 -76.7891q-17.0332 -2.81055 -34.2861 -3.14258q-68.6377 1.35938 -117.215 50.9082q-48.5781 49.5488 -48.5781 118.201q0 2.60547 0.0791016 5.17578
q0 110.14 62.2861 303.429q-81.4287 0 -109.144 -4.28613q-12.6084 0 -20.2852 20.2861q-2.88574 7.62695 4.31543 14.1504q7.20117 6.52441 15.9697 5.84961q60.7871 -4.28516 121.715 -4.28516q60.9277 0 121.714 4.28516q8.11523 0 12.2051 -4.2334
q4.08887 -4.2334 8.08105 -15.7666q3.53613 -10.2158 -3.50195 -15.626q-7.03809 -5.40918 -16.7842 -4.66016q-39.9385 3.55078 -98 4q-45.9746 -203.341 -37.7139 -291.143q6.20508 -66.1172 43.5664 -110.345q37.3613 -44.2266 86.7188 -44.2266
q82.959 0 132.416 57.3232q49.457 57.3223 70.4414 152.105q16.5898 75.1865 -4.57129 232.571h-24q-20.3955 -2.2666 -38.2871 -27.7695q-17.8906 -25.5029 -34.5684 -60.2705q-16.6787 -34.7686 -26.8594 -46.2461q-17.248 -15.1025 -38 -24.8564
q-3.74707 -1.33203 -19.2139 -8.11523q-15.4668 -6.78223 -22.5752 -8.44043q-7.10938 -1.65723 -18.1836 1.53027q-11.0742 3.18652 -18.5986 15.0254q-5.85645 9.91211 12 20.8564q24.0566 14.0908 49.4287 25.7148q12.4014 8.39551 24.791 24.3008
q12.3896 15.9053 17.4951 29.9844q4.21582 19.0059 16.6895 42.4463q12.4736 23.4395 25.8818 37.5537q10.5234 10.1602 38.2861 14.2227q27.7627 4.06348 43.999 4.06348h131.144q14.4756 0 18.6826 -4.98047t4.45996 -15.877q0.380859 -16.3447 -82.5713 -18.5713z" />
  </g>

</svg>
