<?xml version="1.0" standalone="no"?>
<!DOCTYPE svg PUBLIC "-//W3C//DTD SVG 1.1//EN" "http://www.w3.org/Graphics/SVG/1.1/DTD/svg11.dtd" >
<svg xmlns="http://www.w3.org/2000/svg" xmlns:xlink="http://www.w3.org/1999/xlink" version="1.1" viewBox="-10 0 563 1000">
  <g transform="matrix(1 0 0 -1 0 800)">
   <path fill="currentColor"
d="M498.002 98.2861q-23.3252 -17.1162 -51.7041 -45.9141t-45.1533 -52.3721q-3.79199 -5.68945 -25.7139 9.71387q-7.65137 5.37695 -10.75 14.3574q-3.09863 8.98047 1.03613 11.3574q12.8301 8.73438 24.5713 18.8574l-119.715 119.714l-110.285 -110.286
q14.5664 -12.2168 24.5713 -19.1426q3.90039 -4.45898 2.80469 -7.50781q-1.09473 -3.0498 -8.07422 -12.2715q-2.84961 -3.7666 -4.44531 -5.93457q-7.64062 -10.3838 -15.6426 -12.3213q-8.00293 -1.93848 -10.0713 2.89258q-16.8789 23.2188 -45.2588 51.5977
q-28.3789 28.3789 -51.5986 45.2598q-5.78711 3.6543 9.71484 25.7139q5.38184 7.6582 14.2139 10.75q8.83301 3.0918 11.2148 -1.03613q8.75488 -12.9258 19.1426 -24.5713l110.571 111.429l-101.143 100.857q-10.1553 -11.7168 -18.8574 -24.5713
q-3.69238 -5.8457 -25.4287 9.42871q-7.65137 5.37598 -10.75 14.3564t1.03613 11.3574q23.1328 17.0352 51.5117 45.498q28.3799 28.4629 45.3447 51.6445q3.39355 4.69922 21.9697 -7.30078q2.43555 -1.57324 3.74512 -2.41309q10.3652 -6.65039 12.4639 -15.1074
q2.09863 -8.45703 -2.75 -10.6074q-11.3721 -8.21289 -24.5713 -18.8564l100.857 -100.857l108.571 108.286q-11.5693 10.3711 -24.5713 18.8564q-5.70215 3.60156 9.42871 25.7148q5.36816 7.8457 14.3564 10.8213q8.98828 2.97461 11.3574 -1.39258
q17.0791 -23.0869 45.542 -51.4668q28.4629 -28.3789 51.6006 -45.3906q6.17676 -4.11816 -9.71387 -25.7148q-7.65625 -10.4053 -15.6426 -12.4639q-7.98633 -2.05859 -10.0713 2.75q-8.875 12.9619 -19.1436 24.8574l-108.571 -108.286l119.715 -120
q12.2236 14.5762 19.1426 24.5713q1.50781 2.17773 3.06543 2.8584q1.55859 0.679688 3.97559 -0.333984q2.41797 -1.0127 4.43164 -2.34082q2.01367 -1.32715 6.375 -4.37891q4.3623 -3.05176 7.86621 -5.2334q10.3838 -6.46484 12.4287 -14.9639t-3 -10.4639z" />
  </g>

</svg>
