<?xml version="1.0" standalone="no"?>
<!DOCTYPE svg PUBLIC "-//W3C//DTD SVG 1.1//EN" "http://www.w3.org/Graphics/SVG/1.1/DTD/svg11.dtd" >
<svg xmlns="http://www.w3.org/2000/svg" xmlns:xlink="http://www.w3.org/1999/xlink" version="1.1" viewBox="-10 0 437 1000">
  <g transform="matrix(1 0 0 -1 0 800)">
   <path fill="currentColor"
d="M375 98l14 -40q-39 -29 -78 -49.5t-66 -20.5h-13l-14 -139l-44 -5l-6 7l15 144q-72 18 -112 75.5t-40 142.5q0 65 25.5 119t70.5 89t103 44l19 187l44 6l6 -9l-18 -181q59 -2 108 -19l4 -8q-18 -69 -22 -146l-51 -3v32q0 27 -12.5 46t-34.5 27l-33 -327q6 -1 19 -1
q27 0 56.5 9.5t53.5 22.5zM149 151.5q15 -40.5 43 -61.5l31 309q-44 -8 -66.5 -46.5t-22.5 -103.5q0 -57 15 -97.5z" />
  </g>

</svg>
