<?xml version="1.0" standalone="no"?>
<!DOCTYPE svg PUBLIC "-//W3C//DTD SVG 1.1//EN" "http://www.w3.org/Graphics/SVG/1.1/DTD/svg11.dtd" >
<svg xmlns="http://www.w3.org/2000/svg" xmlns:xlink="http://www.w3.org/1999/xlink" version="1.1" viewBox="-10 0 532 1000">
  <g transform="matrix(1 0 0 -1 0 800)">
   <path fill="currentColor"
d="M344 -6q-27 6 -65 17q-43 12 -71 18t-54 6q-48 0 -95 -33l-9 5l-17 45q99 65 99 151v46q-1 23 -13 30.5t-50 9.5l-4 6l7 42l60 10v19q0 66 27.5 119t75.5 83t107 30q31 0 61 -4t46 -11l5 -11l-27 -77l-19 -3q-64 35 -106 35q-40 0 -60 -27.5t-22 -84.5l-3 -73q74 0 157 3
l3 -4l-10 -60q-78 3 -152 3l-2 -70q-2 -37 -16.5 -69t-39.5 -53l55 11q22 0 49.5 -5t34.5 -6q52 -10 75 -10q64 0 70 75l21 -1q17 -32 17 -69q0 -43 -24.5 -71t-60.5 -28q-23 0 -50 6z" />
  </g>

</svg>
