<?xml version="1.0" standalone="no"?>
<!DOCTYPE svg PUBLIC "-//W3C//DTD SVG 1.1//EN" "http://www.w3.org/Graphics/SVG/1.1/DTD/svg11.dtd" >
<svg xmlns="http://www.w3.org/2000/svg" xmlns:xlink="http://www.w3.org/1999/xlink" version="1.1" viewBox="-10 0 489 1000">
  <g transform="matrix(1 0 0 -1 0 800)">
   <path fill="currentColor"
d="M76 162l-34 53q11 9 67 63q-22 35 -22 78t24 80l-72 70l3 14l52 37q11 -14 67 -71q35 22 78 22q42 0 77 -22l69 76l15 -3l37 -54l-71 -68q25 -36 25 -81q0 -42 -21 -76l72 -67l-3 -13l-53 -40l-66 68q-37 -24 -81 -24t-82 24l-67 -69zM305.5 289.5q27.5 27.5 27.5 66.5
t-27.5 66.5t-66.5 27.5t-66 -27.5t-27 -66.5t27 -66.5t66 -27.5t66.5 27.5z" />
  </g>

</svg>
