<?xml version="1.0" standalone="no"?>
<!DOCTYPE svg PUBLIC "-//W3C//DTD SVG 1.1//EN" "http://www.w3.org/Graphics/SVG/1.1/DTD/svg11.dtd" >
<svg xmlns="http://www.w3.org/2000/svg" xmlns:xlink="http://www.w3.org/1999/xlink" version="1.1" viewBox="-10 0 561 1000">
  <g transform="matrix(1 0 0 -1 0 800)">
   <path fill="currentColor"
d="M157 41q34 5 48 14t17.5 26.5t4.5 59.5l-176 -1l-6 7l6 41h171q-11 32 -19 46l-22 40l-130 -1l-6 7l7 41h101l-12 21q-21 40 -35.5 60.5t-34 34t-49.5 16.5q-1 5 -1 15l7 37q62 -3 99 -3q30 0 79 3.5t52 3.5l5 -10l-4 -41q-35 -4 -45.5 -8t-10.5 -14t14 -40l3 -10
l66 -125l81 147q11 18 11 31q0 6 -6.5 9t-21.5 6l-21 4q1 3 0.5 7t-0.5 5l5 37l24 -1q46 -4 82 -4q33 0 83 3l5 -7l-6 -44q-26 -5 -40 -13.5t-24.5 -21t-28.5 -41.5l-34 -55l106 2l7 -10l-4 -41h-139l-31 -52q-7 -16 -10 -34l177 4l6 -9l-3 -42h-185v-33q0 -35 5.5 -46.5
t24.5 -11.5q5 -1 10 -0.5t9 0.5l30 1l2 -7l-8 -47q-86 3 -124 3q-41 0 -116 -9z" />
  </g>

</svg>
