<?xml version="1.0" standalone="no"?>
<!DOCTYPE svg PUBLIC "-//W3C//DTD SVG 1.1//EN" "http://www.w3.org/Graphics/SVG/1.1/DTD/svg11.dtd" >
<svg xmlns="http://www.w3.org/2000/svg" xmlns:xlink="http://www.w3.org/1999/xlink" version="1.1" viewBox="-10 0 517 1000">
  <g transform="matrix(1 0 0 -1 0 800)">
   <path fill="currentColor"
d="M446 136.5q-29 -43.5 -75 -70.5q1 -6 1 -19q1 -34 -22.5 -69t-64.5 -58t-90 -23q-52 0 -88.5 23t-36.5 56q0 26 6 54.5t14 39.5l17 -1q9 -49 40 -79.5t73 -30.5q29 0 48.5 17.5t19.5 44.5q0 33 -27 60t-83 65q-46 30 -75.5 54.5t-50 57.5t-20.5 74q0 42 28.5 82t76.5 70
q-2 12 -2 19q0 40 21.5 74t58 54t79.5 20t76 -15t33 -34q0 -21 -8 -51.5t-16 -37.5h-16q-13 32 -39.5 53t-54.5 21q-22 0 -36.5 -15.5t-14.5 -39.5q0 -34 27.5 -61t85.5 -66q47 -32 75.5 -55.5t48.5 -55t20 -69.5q0 -45 -29 -88.5zM396 188q0 35 -29.5 65t-89.5 73
q-52 38 -80.5 63.5t-45.5 55.5q-42 -30 -42 -76q0 -37 29 -66.5t91 -75.5q49 -35 79 -61t47 -57q41 32 41 79z" />
  </g>

</svg>
