<?xml version="1.0" standalone="no"?>
<!DOCTYPE svg PUBLIC "-//W3C//DTD SVG 1.1//EN" "http://www.w3.org/Graphics/SVG/1.1/DTD/svg11.dtd" >
<svg xmlns="http://www.w3.org/2000/svg" xmlns:xlink="http://www.w3.org/1999/xlink" version="1.1" viewBox="-10 0 704 1000">
  <g transform="matrix(1 0 0 -1 0 800)">
   <path fill="currentColor"
d="M194 29q-70 41 -110.5 111t-40.5 153t40.5 153t110.5 111t153 41t153 -41t111 -111t41 -153t-41 -153t-111 -111t-153 -41t-153 41zM476.5 67q59.5 35 94.5 95t35 131t-35 131t-94.5 95t-129.5 35t-129.5 -35t-94.5 -95t-35 -131t35 -131t94.5 -95t129.5 -35t129.5 35z
M426.41 583q23.8496 0 29.1729 -18.3516q5.32422 -18.3516 -14.9424 -45.5986q-9.45801 -12.0742 -40.4658 -46.6826q-31.0078 -34.6074 -52.2852 -60.751q-21.2793 -26.1436 -20.8594 -33.4102q0.458984 -7.95215 46.1211 -52.8711t45.9053 -54.1299
q0.257812 -9.7002 -41.125 -43.2598t-42.8379 -40.1006q-1.79199 -8.4043 21.9268 -39.1992q23.7188 -30.7939 48.333 -57.3848l24.6143 -26.5908q0.496094 0.461914 1.33398 1.20605q0.837891 0.742188 3.52832 3.01562q2.69141 2.27344 5.01465 3.92676
q2.32324 1.65234 5.79004 3.93457q3.46582 2.28223 5.85645 3.04297q2.38867 0.760742 5.21289 1.24902q2.82324 0.489258 3.86035 -1.44531q8.52344 -9.11328 -29.0078 -43.7051q-37.5312 -34.5908 -45.7051 -30.9463q-5.72754 4.05566 -3.4082 10.4697t8.08203 12.4053
l5.7627 5.99023q-4.81934 4.38086 -12.832 11.8145q-8.01172 7.43359 -28.585 27.5293q-20.5742 20.0947 -36.4219 36.9336q-15.8486 16.8398 -29.1543 34.2783q-13.3066 17.4365 -13.9707 25.3105q-1.02051 12.0947 19.1211 31.7295q20.1426 19.6338 40.9766 37.0723
q20.834 17.4375 21.0195 23.7666q0.188477 6.44434 -20.71 26.6104q-20.8975 20.165 -41.7539 42.416q-20.8545 22.25 -20.5508 33.7432q0.305664 11.5674 34.9238 50.9023q34.6172 39.335 69.8535 76.8623q35.2363 37.5264 36.3467 43.9346
q0.917969 5.29785 -2.6582 18.2451q-3.5752 12.9473 -1.48438 20.2441q2.09277 7.29688 15.5273 7.29688z" />
  </g>

</svg>
