<?xml version="1.0" standalone="no"?>
<!DOCTYPE svg PUBLIC "-//W3C//DTD SVG 1.1//EN" "http://www.w3.org/Graphics/SVG/1.1/DTD/svg11.dtd" >
<svg xmlns="http://www.w3.org/2000/svg" xmlns:xlink="http://www.w3.org/1999/xlink" version="1.1" viewBox="-10 0 310 1000">
  <g transform="matrix(1 0 0 -1 0 800)">
   <path fill="currentColor"
d="M40.5 353q-11.5 15 -13.5 50l9 9q25 -9 55 -9q39 0 64 16.5t25 41.5q0 28 -23 40.5t-74 12.5l-6 7l-5 39l43 8q22 11 36 27.5t14 34.5q0 17 -11 27t-30 10q-16 0 -35.5 -7t-36.5 -20h-8l-12 44q17 13 53.5 28.5t66.5 15.5q42 0 68.5 -21t26.5 -55q0 -27 -19.5 -50.5
t-52.5 -37.5v-6q46 -14 68 -36t22 -55q0 -30 -27.5 -60.5t-70.5 -49.5t-88 -19q-27 0 -38.5 15z" />
  </g>

</svg>
