<?xml version="1.0" standalone="no"?>
<!DOCTYPE svg PUBLIC "-//W3C//DTD SVG 1.1//EN" "http://www.w3.org/Graphics/SVG/1.1/DTD/svg11.dtd" >
<svg xmlns="http://www.w3.org/2000/svg" xmlns:xlink="http://www.w3.org/1999/xlink" version="1.1" viewBox="-10 0 355 1000">
  <g transform="matrix(1 0 0 -1 0 800)">
   <path fill="currentColor"
d="M63.5 378q-37.5 40 -37.5 107q0 72 43.5 117.5t113.5 45.5q63 0 99.5 -39t36.5 -107q0 -73 -43 -118.5t-113 -45.5q-62 0 -99.5 40zM218.5 408q14.5 22 14.5 65q0 60 -17 90.5t-49 30.5q-28 0 -42.5 -21.5t-14.5 -64.5q0 -60 17 -91t49 -31q28 0 42.5 22z" />
  </g>

</svg>
