<?xml version="1.0" standalone="no"?>
<!DOCTYPE svg PUBLIC "-//W3C//DTD SVG 1.1//EN" "http://www.w3.org/Graphics/SVG/1.1/DTD/svg11.dtd" >
<svg xmlns="http://www.w3.org/2000/svg" xmlns:xlink="http://www.w3.org/1999/xlink" version="1.1" viewBox="-10 0 374 1000">
  <g transform="matrix(1 0 0 -1 0 800)">
   <path fill="currentColor"
d="M164 351q-17 18 -17 46q0 31 19.5 51t51.5 20q30 0 46.5 -18.5t16.5 -46.5q0 -31 -19 -50.5t-51 -19.5q-30 0 -47 18zM140.5 -217.5q-54.5 22.5 -86.5 60.5t-32 84q0 41 16.5 71t41 50.5t71.5 52.5l37 25l3 8l-19 90l4 9l73 18l10 -5l24 -123l-3 -14l-114 -70
q-55 -35 -55 -80q0 -54 51.5 -83t143.5 -34l4 -12l-34 -67l-15 -5q-66 2 -120.5 24.5z" />
  </g>

</svg>
