<?xml version="1.0" standalone="no"?>
<!DOCTYPE svg PUBLIC "-//W3C//DTD SVG 1.1//EN" "http://www.w3.org/Graphics/SVG/1.1/DTD/svg11.dtd" >
<svg xmlns="http://www.w3.org/2000/svg" xmlns:xlink="http://www.w3.org/1999/xlink" version="1.1" viewBox="-10 0 1291 1000">
  <g transform="matrix(1 0 0 -1 0 800)">
   <path fill="currentColor"
d="M412.763 512.286q39.0996 1.7002 76.4434 -15.9082q37.3428 -17.6084 35.5566 -46.3779q-0.391602 -13.3086 -13.7139 -17.1787q-13.3223 -3.86914 -23.1426 1.46484q-3.65234 1.53906 -39.2686 23.7295q-35.6162 22.1895 -54.4463 19.9844
q-20.6533 -2.46191 -33.2324 -22.917q-12.5791 -20.4541 -11.4404 -45.499q1.13867 -25.0459 16.1016 -39.8701q10.8174 -10.3516 33.7852 -30.6123q22.9678 -20.2598 32.9082 -30.6611q9.93945 -10.4014 23.5859 -28.3096q13.6465 -17.9092 19.5361 -37.5186
q5.88867 -19.6094 7.04199 -44.3262q-0.435547 -40.0049 -28.9824 -70.3936q-28.5469 -30.3877 -68.4463 -33.3213q-8.2041 -0.487305 -16.3975 -0.487305q-40.5078 0 -79.3164 11.6299q-10.5283 5.18262 -10.5283 16.9189q0 8.85547 6.81348 14.5098
q6.7207 4.78223 46.0527 -3.56934q39.3311 -8.35156 51.0898 -0.71582q11.5947 9.16309 19.7998 26.1084q8.20605 16.9443 8.20605 31.7227q0 10.8838 -3.14844 21.3115q-3.58887 21.9062 -20.5898 41.5664q-17 19.6602 -39.0107 40.2959q-22.0098 20.6348 -31.8281 38.709
q-12.5439 26.4463 -12.5439 55.7148q0 29.2676 12.5439 55.7139q10.9785 26.8809 39.2734 46.8887q28.2959 20.0078 57.2979 21.3975zM1204.76 78.2861q17.2637 -0.664062 21.1143 -18.5205q3.85156 -17.8574 -4.7041 -35.5303t-21.5527 -17.9492
q-443.624 9.71387 -469.429 9.71387q-5.61133 -0.926758 -10.8564 -3.14258q-9.11328 -5.54883 -19.4287 -8.28613q-36.335 -10.4541 -63.7969 2.85156q-27.4619 13.3066 -42.04 43.2207q-14.5791 29.9141 -21.5137 63.6641q-6.93555 33.749 -6.93555 69.6924
q0.259766 48.5547 26.0068 149.816q25.7461 101.261 20.5645 157.041q-7.27051 78.2734 -51.5771 130.708q-44.3057 52.4346 -102.708 52.4346q-50.8135 0 -91.9746 -19.2158q-41.1621 -19.2158 -69.6846 -54.2334q-28.5215 -35.0186 -47.6201 -78.1328
q-19.0977 -43.1133 -31.0068 -96.7041q-13.9648 -79.0576 -9.14258 -118.856q4.82324 -39.7998 11.8096 -104.571q6.9873 -64.7725 0.761719 -121.144q-0.84668 -16.625 -11.2275 -34.958q-10.3799 -18.333 -24.2012 -27.6133q-17.0693 -10.7734 -46.5205 -15.8027
q-29.4521 -5.0293 -52.292 -0.96582q-22.8398 4.06348 -21.7588 16.7686q1.24121 12.8877 11.9736 17.7207t23.4229 4.29492q12.6904 -0.538086 25.4609 4.64258q12.7715 5.17969 17.1426 18.4844q11.6387 35.6133 8.26465 108.053q-3.37402 72.4404 -7.29102 130.848
q-3.91797 58.4062 14.7402 125.957q39.7285 118.124 113.845 189.476q74.1172 71.3506 174.441 90.8105q19.835 3.65723 40 3.71387q59.9688 0.135742 105.992 -31.5732q46.0234 -31.71 68.0156 -77.9961t21.9922 -96.7158q-0.015625 -69.3154 -21.7139 -135.144
q9.96875 8.94629 21.9883 18.1865q12.0195 9.24023 30.2129 22.4844q18.1934 13.2451 29.2266 21.6152q53.5693 41.4209 134.354 92.1523q80.7852 50.7305 141.361 80.9902q65.707 37.7812 135.714 66.8574q10.7969 3.74609 17.8213 -11q7.02539 -14.7461 -3.82129 -21.2861
q-22.2695 -13.3887 -83.0098 -49.4414q-60.7393 -36.0527 -91.3291 -54.7715q-30.5898 -18.7188 -79.1846 -49.3564q-48.5957 -30.6377 -88.5186 -58.749q-39.9229 -28.1113 -77.3867 -57.3955q27.0371 0 76.6406 -1.01562q49.6035 -1.01562 90.2432 -1.01562
q40.6406 0 76.8311 2.03125q22.0195 0 35.5713 -13.9639q13.5518 -13.9648 -1.28613 -31.751q-34.4043 -35.4697 -99.5605 -101.56t-94.4395 -96.1543q-27.5596 -27.5635 -22.6904 -32.7246q2.0127 -2.13281 7.83398 -2.13281q42.9824 -1.52148 114.92 -4.28516
q71.9375 -2.76465 157.017 -6.0957t114.92 -4.47559zM607.906 187.143q-0.90918 -7.16016 -0.90918 -14.3828q0 -27.5156 16.9258 -56.6191q16.9248 -29.1045 40.8398 -42.7119q13.4902 -8.01074 29.1777 -8.01074q23.7783 0 40.5371 16.8682
q31.8047 35.7402 93.5029 99.0381q61.6982 63.2969 85.9258 89.5332q26.3584 28.1152 18.2725 32.8086q-2.54297 1.47656 -7.70117 1.47656q-53.1426 1.42871 -212.286 1.42871q-6.37695 0.580078 -12.7842 0.580078q-22.7539 0 -44.3584 -7.15137
q-22.1699 -14.7773 -32.2861 -39.4287q-12.8965 -35.6104 -14.8564 -73.4287z" />
  </g>

</svg>
