<?xml version="1.0" standalone="no"?>
<!DOCTYPE svg PUBLIC "-//W3C//DTD SVG 1.1//EN" "http://www.w3.org/Graphics/SVG/1.1/DTD/svg11.dtd" >
<svg xmlns="http://www.w3.org/2000/svg" xmlns:xlink="http://www.w3.org/1999/xlink" version="1.1" viewBox="-10 0 625 1000">
  <g transform="matrix(1 0 0 -1 0 800)">
   <path fill="currentColor"
d="M331.5 4q-35.5 16 -37.5 39q1 18 14 49.5t26 47.5h17q1 -43 25 -68t65 -25q28 0 48.5 22t20.5 52t-23 52t-71 51q-39 24 -63.5 42.5t-41.5 45.5t-17 62q0 33 17 58t50 57q29 29 43 48.5t14 42.5q0 41 -31.5 65t-84.5 24q-55 0 -80 -40.5t-26 -131.5l-5 -393
q-1 -25 8.5 -38t28.5 -13l42 1l3 -4l-8 -53q-74 3 -105 3q-35 0 -72 -1.5t-49 -3.5l6 49q34 4 45.5 18.5t11.5 50.5v243q-2 23 -15 31.5t-49 9.5l-4 6l7 41l61 11q0 135 63.5 211t176.5 76q45 0 83.5 -17.5t61 -47.5t22.5 -65q0 -39 -17.5 -67t-51.5 -63
q-26 -26 -38.5 -44.5t-12.5 -40.5q0 -26 21.5 -44.5t66.5 -44.5q42 -26 67 -44.5t43 -46.5t18 -66q0 -44 -25.5 -81.5t-68.5 -59.5t-94 -22q-50 0 -85.5 16z" />
  </g>

</svg>
