<?xml version="1.0" standalone="no"?>
<!DOCTYPE svg PUBLIC "-//W3C//DTD SVG 1.1//EN" "http://www.w3.org/Graphics/SVG/1.1/DTD/svg11.dtd" >
<svg xmlns="http://www.w3.org/2000/svg" xmlns:xlink="http://www.w3.org/1999/xlink" version="1.1" viewBox="-10 0 839 1000">
  <g transform="matrix(1 0 0 -1 0 800)">
   <path fill="currentColor"
d="M697 -152.5q21 6.5 37 16.5l17 -26q-24 -23 -52 -40.5t-51 -24.5q-50 0 -82 26t-32 67q0 30 17.5 58.5t75.5 89.5l53 -1q-41 -48 -55.5 -73.5t-14.5 -48.5t13.5 -36.5t36.5 -13.5q16 0 37 6.5zM466.906 714.286q60.0352 0 106.112 -31.7158
q46.0771 -31.7148 68.251 -77.6162q22.1738 -45.9023 23.0645 -96.0967q0.386719 -47.8994 -11.1797 -96.9844q-11.5654 -49.084 -25.7607 -82.4736q-14.1943 -33.3906 -26.4443 -72.124q-12.249 -38.7334 -12.9004 -67.8467q-0.958008 -7.35742 -0.958008 -14.7646
q0 -27.6221 17.0234 -56.7822q17.0234 -29.1592 41.0771 -42.7393q21.4111 -12.0615 39.8525 -7.29004t27.8262 14.1123q9.38477 9.33984 23.4863 21.9863t26.835 16.335q20.5352 6.12012 22.1436 -10.9648q1.60742 -17.085 -11.2861 -27.8926
q-10.4355 -9.69043 -27.4912 -26.4434t-24.0625 -22.9307q-7.00586 -6.17773 -18.8125 -13.5605q-11.8076 -7.38379 -24.4912 -11.0654q-36.4404 -10.4551 -63.917 2.80566t-42.0273 43.165t-21.4453 63.6387q-6.89551 33.7334 -6.89551 69.8193
q0.259766 48.5547 26.0059 149.815q25.7471 101.261 20.5654 157.041q-7.26855 78.2432 -51.5645 130.55q-44.2949 52.3076 -102.722 52.3076q-50.8281 0 -92.0664 -19.1855q-41.2383 -19.1865 -69.8359 -54.1055q-28.5967 -34.9199 -47.7441 -78.0645
q-19.1484 -43.1445 -30.9248 -96.6445q-13.8232 -79.0186 -8.94141 -118.857q4.88086 -39.8379 11.8828 -104.571t0.772461 -121.143q-0.397461 -17.3828 -10.9453 -36.4697q-10.5488 -19.0869 -25.0547 -28.6729q-16.8984 -10.8936 -46.3115 -15.9258
q-29.4121 -5.03223 -52.2344 -0.910156q-22.8213 4.12207 -21.7393 16.8359q1.24121 12.9893 11.9736 17.835q10.7334 4.84473 23.4229 4.25391t25.4619 4.48633q12.7725 5.07812 17.1416 18.2812q11.5127 35.584 8.1377 108.053q-3.375 72.4697 -7.22754 130.848
q-3.85254 58.377 14.8037 125.957q39.7646 119.507 113.947 191.356q74.1816 71.8506 174.624 90.6436q19.9951 3.71484 40.5723 3.71484zM295.478 445.429q10.4316 26.6484 38.3086 46.7393q27.877 20.0918 56.5479 21.832q38.5156 2.81836 76.4004 -14.9326
q37.8857 -17.752 37.8857 -45.9248q-0.391602 -13.3086 -13.7139 -17.1787q-13.3232 -3.86914 -23.1436 1.46484q-4.01172 1.6748 -39.5176 23.7959t-54.4824 19.918q-20.6465 -2.46094 -33.2305 -22.9766q-12.584 -20.5166 -11.4434 -45.5703t16.1025 -39.7383
q11.3896 -11.1719 33.8574 -31.3584q22.4668 -20.1855 32.7637 -30.9863q10.2979 -10.8008 23.7295 -28.625q13.4326 -17.8242 19.3926 -37.501q5.96094 -19.6777 7.11426 -44.3867q-0.344727 -40.2002 -28.9756 -70.5889q-28.6299 -30.3877 -68.7393 -33.125
q-8.1748 -0.487305 -16.3975 -0.487305q-40.5117 0 -79.3164 11.6299q-10.5498 5.05273 -10.5498 16.749q0 8.82031 6.83594 14.3936q6.77344 4.9502 46.0996 -3.3291t51.043 -0.670898q11.5361 9.09277 19.7002 25.9238t8.16406 31.5195q0 11.0986 -3.29297 21.6992
q-3.4668 21.915 -20.3906 41.5645q-16.9229 19.6494 -38.9336 40.3008q-22.0098 20.6504 -31.8184 38.707q-12.5371 26.3691 -12.5371 55.5713q0 29.2002 12.5371 55.5713z" />
  </g>

</svg>
