<?xml version="1.0" standalone="no"?>
<!DOCTYPE svg PUBLIC "-//W3C//DTD SVG 1.1//EN" "http://www.w3.org/Graphics/SVG/1.1/DTD/svg11.dtd" >
<svg xmlns="http://www.w3.org/2000/svg" xmlns:xlink="http://www.w3.org/1999/xlink" version="1.1" viewBox="-10 0 633 1000">
  <g transform="matrix(1 0 0 -1 0 800)">
   <path fill="currentColor"
d="M526.999 -158.5q21 6.5 37 16.5l17 -26q-24 -23 -52 -40.5t-51 -24.5q-50 0 -82 26t-32 67q0 30 17.5 58.5t75.5 89.5l53 -1q-41 -48 -55.5 -73.5t-14.5 -48.5t13.5 -36.5t36.5 -13.5q16 0 37 6.5zM349.608 514.286q58.8301 -1.11914 100.467 -43.5547
q41.6357 -42.4355 41.6357 -101.276q0 -2.73047 -0.102539 -5.45508q0.856445 -44.0225 -12.9053 -88.0547q-13.7607 -44.0332 -27.999 -80.9385q-14.2383 -36.9043 -14.2383 -62.7207q-0.541016 -4.74023 -0.541016 -9.5166q0 -20.25 12.4648 -41.6553
q12.4639 -21.4053 30.0762 -31.4004q15.6523 -8.72168 29.0625 -5.23145q13.4092 3.48926 20.2227 10.3027q6.81348 6.81445 17.0088 15.9824q10.1963 9.16797 19.4199 11.8037q15.0078 4.14648 16.2148 -8.39258q1.20703 -12.54 -8.21484 -20.1787
q-7.6123 -7.06836 -19.9844 -19.2256t-17.46 -16.6465t-13.6475 -9.83594t-17.7656 -8.00586q-26.3916 -7.61328 -46.3184 1.98633q-19.9258 9.59863 -30.4971 31.2646q-10.5703 21.665 -15.5918 46.1367q-5.02051 24.4717 -5.02051 50.6123
q0.262695 36.6162 18.8076 109.504q18.5449 72.8867 14.9062 113.067q-5.14648 56.8252 -37.1602 94.8408q-32.0127 38.0156 -74.8398 38.0156q-71.3652 0 -113.739 -48.9961q-42.373 -48.9951 -60.2607 -130.432q-12.8447 -43.6094 -2.57129 -124.036t5.14258 -125.964
q-0.494141 -12.1367 -8.02832 -25.4482q-7.53418 -13.3105 -17.6855 -19.9805q-11.8691 -7.81934 -33.2891 -11.4678q-21.4189 -3.64746 -38.1846 -0.683594t-15.9551 12.1514q1.05078 9.45605 8.97363 13.0156q7.92383 3.55859 17.1943 3.15137
q9.27148 -0.40625 18.5557 3.25q9.28516 3.65625 12.4189 13.1543q8.3584 26.2344 5.75684 79.0049t-5.41797 94.751q-2.81641 41.9814 11.0898 90.8154q28.1768 85.8008 82.2559 137.709q54.0791 51.9072 127.173 66.0049q13.7148 2.57422 27.6699 2.57422
q0.40332 0 0.901367 -0.00195312zM225.037 319.429q7.50781 18.9629 27.5996 33.7803q20.0908 14.8174 40.9717 16.2197q27.3389 2.10254 54.8125 -11.0059t27.4736 -33.2803q-0.391602 -9.5752 -10.001 -12.3574q-9.6084 -2.78125 -16.8564 0.928711
q-2.75 1.15234 -28.5078 17.2812q-25.7588 16.1289 -39.4922 14.4336q-23.4473 -2.74609 -30.9287 -32.2861t9.78613 -46q7.77832 -7.42773 24.9375 -22.6172q17.1602 -15.1904 24.249 -22.6787q7.08984 -7.48828 17.168 -20.7227q10.0791 -13.2344 14.3066 -27.4785
q4.22852 -14.2432 5.05273 -32.2168q-0.25293 -29.0361 -20.9307 -51.0527t-49.6406 -24.0898q-5.46777 -0.293945 -10.9326 -0.293945q-29.875 0 -58.4961 8.5791q-7.59766 3.66211 -7.59766 12.0967q0 6.44238 5.02637 10.4746q4.79102 3.49707 33.2656 -2.56934
q28.4756 -6.06641 37.0195 -0.573242q8.39453 6.60645 14.335 18.8418q5.94043 12.2363 5.94043 22.918q0 7.85938 -2.27539 15.3828q-3.36328 20.6602 -31.3262 47.7383q-27.9639 27.0781 -34.959 39.9766q-9.10059 19.1143 -9.10059 40.2852q0 21.1699 9.10059 40.2861z
" />
  </g>

</svg>
