<?xml version="1.0" standalone="no"?>
<!DOCTYPE svg PUBLIC "-//W3C//DTD SVG 1.1//EN" "http://www.w3.org/Graphics/SVG/1.1/DTD/svg11.dtd" >
<svg xmlns="http://www.w3.org/2000/svg" xmlns:xlink="http://www.w3.org/1999/xlink" version="1.1" viewBox="-10 0 338 1000">
  <g transform="matrix(1 0 0 -1 0 800)">
   <path fill="currentColor"
d="M243.29 631.714q28.7295 0 35.1426 -21.0713t-18 -52.3564q-11.3936 -13.8633 -48.7461 -53.5996q-37.3516 -39.7363 -62.9834 -69.7539q-25.6328 -30.0186 -25.127 -38.3613q0.552734 -9.13086 55.5576 -60.7061q55.0049 -51.5762 55.2988 -62.1514
q0.30957 -11.1377 -49.54 -49.6709q-49.8506 -38.5332 -51.6025 -46.043q-2.15918 -9.65039 26.4131 -45.0078q28.5713 -35.3574 58.2217 -65.8887l29.6514 -30.5322q0.597656 0.53125 1.60645 1.38477q1.00977 0.852539 4.25098 3.46289t6.04004 4.50879
q2.79883 1.89746 6.97461 4.51758t7.05469 3.49414q2.87793 0.873047 6.2793 1.43359q3.40137 0.561523 4.65039 -1.65918q10.2676 -10.4639 -34.9434 -50.1816q-45.21 -39.7168 -55.0566 -35.5322q-6.89941 4.65625 -4.10547 12.0205q2.79395 7.36523 9.73535 14.2441
l6.94238 6.87793q-5.80566 5.03027 -15.457 13.5654t-34.4346 31.6084t-43.874 42.4072q-19.0918 19.335 -35.1201 39.3574q-16.0293 20.0215 -16.8291 29.0615q-1.22949 13.8877 23.0342 36.4316t49.3604 42.5664q25.0967 20.0215 25.3203 27.2881
q0.227539 7.39941 -24.9473 30.5537q-25.1738 23.1543 -50.2969 48.7021q-25.1221 25.5469 -24.7559 38.7441q0.368164 13.2812 42.0693 58.4453q41.7002 45.1641 84.1465 88.252t43.7842 50.4453q1.10547 6.08301 -3.20215 20.9492t-1.78809 23.2441
q2.52051 8.37793 18.7041 8.37793z" />
  </g>

</svg>
