<?xml version="1.0" standalone="no"?>
<!DOCTYPE svg PUBLIC "-//W3C//DTD SVG 1.1//EN" "http://www.w3.org/Graphics/SVG/1.1/DTD/svg11.dtd" >
<svg xmlns="http://www.w3.org/2000/svg" xmlns:xlink="http://www.w3.org/1999/xlink" version="1.1" viewBox="-10 0 399 1000">
  <g transform="matrix(1 0 0 -1 0 800)">
   <path fill="currentColor"
d="M291.433 795.429q36.126 0 44.1426 -26.5713q8.01758 -26.5713 -22.7139 -66q-14.1738 -17.2715 -61.291 -67.6172q-47.1162 -50.3457 -79.1328 -88.0986t-31.0049 -47.999q1.08594 -10.9941 70.251 -76.2295t69.4629 -78.627q0.244141 -10.9639 -30.3369 -36.4688
q-30.5811 -25.5059 -62.6582 -50.4922q-32.0771 -24.9854 -34.1475 -33.6113q-2.79297 -12.6982 33.3496 -57.2695t73.6826 -82.7939l37.5391 -38.2217q0.764648 0.667969 2.05371 1.74219q1.29004 1.07422 5.42285 4.3623q4.13379 3.28711 7.68164 5.68066
q3.54883 2.39355 8.83203 5.70117q5.28223 3.30664 8.87109 4.4209t7.80176 1.84277q4.21387 0.728516 5.62305 -2.03613q8.68359 -8.94629 -16.9482 -37.0156q-25.6309 -28.0693 -57.7227 -51.0156q-32.0918 -22.9473 -39.6152 -19.6826q-8.80371 5.8623 -5.24902 15.1318
q3.55566 9.26953 12.4023 17.9258l8.84668 8.65625q-7.39648 6.34277 -19.6807 17.1064q-12.2852 10.7627 -43.7539 39.8652t-55.6104 53.4971q-24.1416 24.3936 -44.165 49.6709q-20.0244 25.2773 -20.5039 36.7178q-0.736328 17.5479 29.8955 45.9287t61.8271 53.4766
q31.1953 25.0947 31.4199 34.3086q0.227539 9.33594 -31.4473 38.5596q-31.6738 29.2246 -63.2969 61.4521q-31.6221 32.2285 -31.2559 48.8457q0.369141 16.7197 52.9395 73.6191q52.5703 56.8984 106.121 111.238q53.5518 54.3389 55.2256 63.7139
q1.38574 7.76172 -4.08008 26.5117t-2.31641 29.2627q3.14844 10.5117 23.5391 10.5117z" />
  </g>

</svg>
