<?xml version="1.0" standalone="no"?>
<!DOCTYPE svg PUBLIC "-//W3C//DTD SVG 1.1//EN" "http://www.w3.org/Graphics/SVG/1.1/DTD/svg11.dtd" >
<svg xmlns="http://www.w3.org/2000/svg" xmlns:xlink="http://www.w3.org/1999/xlink" version="1.1" viewBox="-10 0 621 1000">
  <g transform="matrix(1 0 0 -1 0 800)">
   <path fill="currentColor"
d="M391.157 72q6.5332 37.1426 -25.4287 37.1426q-10.5195 0 -22.4033 -13.5176q-11.8828 -13.5176 -11.8828 -23.625q2.44531 -10.2754 11.5703 -18.6465t19.5723 -9.9248q10.9795 0 19.0215 9.38184q8.04102 9.38184 9.55078 19.1895zM538.014 485.714
q3.74805 -6.27539 16.1602 -19.9521q12.4111 -13.6768 12.4111 -24.0479l0.00292969 -0.295898q0 -6.74219 -4.77148 -11.5137t-11.5137 -4.77148q-8.96191 0.00976562 -27.8086 13.7227q-18.8457 13.7129 -22.1943 14.8584q-28.8867 11.2344 -59.4287 16.5723
q-37.0596 -1.69434 -73.7139 -7.42871q-13.6494 -3.4375 -9.69531 -55.0088q3.95508 -51.5713 12.5518 -57.5625q3.67383 -2.56055 14.7549 3.53613q11.0811 6.0957 31.6338 14.832q20.5518 8.73633 42.1826 10.2031q67.7148 5.41699 67.7148 -57.1436
q-4.28125 -23.8789 -18.3447 -53.9316q-14.0645 -30.0537 -29.6553 -48.6396q-6.87695 -9.48535 -18.0996 -22.542q-11.2217 -13.0557 -16.9707 -20.2324q-5.75 -7.17676 -9.58203 -17.4014t-1.91895 -20.3955q10.9932 -24.0137 10.9932 -50.4248
q0 -16.5146 -4.42188 -32.4326q-11.083 -23.248 -37.1533 -39.7012t-51.8252 -16.4531q-4.66406 0 -9.30762 0.44043q-25.0537 1.88965 -44.8096 20.8926q-19.7568 19.0029 -22.6191 43.9648q1.1416 27.6846 20.2861 47.7139q12.7705 14.2129 34.3682 29.2812
q21.5986 15.0684 39.3457 22.1475q33.0244 14.9287 73.6553 62.5176q40.6309 47.5898 40.6309 76.3398q-0.189453 15.3594 -10.9883 28.335q-10.7998 12.9756 -25.8691 15.9502q-10.8926 0 -46.25 -27.4277q-35.3564 -27.4287 -52.8926 -27.4287
q-0.779297 -0.0390625 -1.55566 -0.0390625q-11.8926 0 -21.0635 8.38281q-9.17188 8.38281 -10.2383 20.2275l1.71484 136.285h-162.571q-2.28711 -64.3564 -2.85742 -100.571v-122l31.665 1.52344q14.6113 -1.7207 13.1924 -9.80859q-0.777344 -4.40332 -8.84277 -7.74609
t-29.6494 -9.17578t-34.9365 -10.2217q-3.5332 -1.19238 -11.1875 -3.89062q-7.65527 -2.69824 -13.208 -4.59082q-5.55273 -1.89355 -13.1514 -4.34863q-7.59961 -2.45508 -13.1221 -3.79199q-5.52344 -1.33594 -10.8779 -2.24902t-8.65918 -0.392578
q-3.30371 0.520508 -4.36523 2.40723q-4.31738 8 7.46777 18q11.7861 10 25.7305 16l13.9443 6v142.856v96.8574q-37.1426 15.1748 -37.1426 31.7139q-0.0107422 7.20605 4.67676 11.8936q4.68848 4.68848 11.3125 4.68848q0.313477 0 0.582031 -0.00976562
q11.6494 -1.32715 24.5547 -12.8066t21.1592 -11.4795q21.0264 0 94.8906 -1.25391q73.8643 -1.25293 118.886 -0.15918q45.0205 1.09375 75.6523 5.98438q14.4434 2.36816 26.2119 17.0537q11.7686 14.6865 21.957 26.9404t22.4023 10.5771
q13.4678 -1.84863 26.1006 -13.1025q12.6338 -11.2529 18.084 -19.6045q5.45117 -8.35059 16.3867 -27.0068v0.285156z" />
  </g>

</svg>
