<?xml version="1.0" standalone="no"?>
<!DOCTYPE svg PUBLIC "-//W3C//DTD SVG 1.1//EN" "http://www.w3.org/Graphics/SVG/1.1/DTD/svg11.dtd" >
<svg xmlns="http://www.w3.org/2000/svg" xmlns:xlink="http://www.w3.org/1999/xlink" version="1.1" viewBox="-10 0 391 1000">
  <g transform="matrix(1 0 0 -1 0 800)">
   <path fill="currentColor"
d="M300.083 571.429q-10.0312 -10.54 -32.2461 -29.54q-22.2139 -19 -39.4121 -32.7295l-17.1982 -13.7305l-10 -146.571q42.8398 13.1553 67.9287 6.71387t22.0713 -29.2852q-4.44434 -36.6992 -30.5156 -81.6279q-26.0723 -44.9287 -49.9209 -71.5078l-23.8496 -26.5791
l-10.8574 -118l107.429 12.8574q17.417 18.3389 42 24.2852q9.88867 0 12.5723 -7q2.68262 -6.99902 -3.71484 -16.4277q-1.8252 -2.76562 -8.05957 -12.3818q-6.23438 -9.61719 -8.92285 -13.5332t-8.30371 -11.8613q-5.61523 -7.94629 -9.14258 -11.6484
q-3.52637 -3.70312 -8.30371 -8.32812q-4.77637 -4.625 -8.92188 -6.46582q-4.14648 -1.84082 -8.05957 -1.78125q-8.38086 0.126953 -9.30957 9.62695t2.33301 18.9365l3.26172 9.43652l-218.285 -36.5723q-10.8916 -1.75586 -10.6504 10.4688
q1.50391 17.1309 14.3643 21.2461l64 10.2852l15.4287 183.429q40.9502 -9.62305 73.377 19.5957q32.4277 29.2197 38.3369 72.4043q5.16016 36.1113 -35.7139 28.5713q-38.0859 -9.7041 -68.2861 -34.8564l12 180.571q-21.0479 -7.69141 -43.4287 -8.85742
q-3.1084 0 -4.77441 4.34082q-1.66602 4.33984 0.40625 9.98535t8.36816 8.53125q42.2773 19.5273 72.2617 38.2529q29.9834 18.7246 41.9199 30.1143q11.9355 11.3906 23.4639 21.876q11.5283 10.4863 20.9268 15.1855q12.7002 5.22949 25.168 -1.55176
q9.70117 -5.27637 0.259766 -15.877z" />
  </g>

</svg>
