<?xml version="1.0" standalone="no"?>
<!DOCTYPE svg PUBLIC "-//W3C//DTD SVG 1.1//EN" "http://www.w3.org/Graphics/SVG/1.1/DTD/svg11.dtd" >
<svg xmlns="http://www.w3.org/2000/svg" xmlns:xlink="http://www.w3.org/1999/xlink" version="1.1" viewBox="-10 0 490 1000">
  <g transform="matrix(1 0 0 -1 0 800)">
   <path fill="currentColor"
d="M385.662 761.429q-13.333 -14.0957 -43.0479 -39.4531q-29.7139 -25.3564 -52.7607 -43.666l-23.0479 -18.3096l-13.1436 -196q57.4023 17.5664 90.8223 9q33.4189 -8.56641 29.75 -39q-3.83984 -30.96 -19.6143 -67.0684q-15.7734 -36.1094 -35.543 -65.5293
q-19.7686 -29.4199 -38.9893 -54.416q-19.2207 -24.9971 -32.251 -38.9922l-13.0312 -13.9941l-14.5713 -158.571l142.856 17.1426q23.8711 24.5342 57.1436 32.5713q12.9541 0 16.5713 -9.39258t-4.85742 -22.0361q-3.57227 -5.27637 -10.8613 -16.3691t-11.7559 -17.6582
q-4.46777 -6.56543 -11.3193 -16.1729q-6.85156 -9.60645 -12.0508 -15.3838q-5.2002 -5.77637 -11.2842 -11.5898q-6.08398 -5.8125 -11.6865 -8.49121q-5.60254 -2.67969 -10.7559 -2.62012q-11.0479 0.126953 -12.334 12.8408q-1.28516 12.7148 2.95215 25.3652
l4.23828 12.6514l-290.856 -48.8574q-14.5898 -2.46094 -14.2256 14.1191q0.453125 20.5918 15.8682 27.1309q1.71973 0.730469 3.5 1.03516l85.7139 14l20.5713 244.857q54.5381 -12.7119 98.0146 26.2715t51.4141 96.5859q3.17773 22.6982 -8.27148 32.8516
t-39.7285 4.00586q-21.0811 -5.30664 -47.7861 -18.9521t-43.3564 -27.6201l16 241.144q-27.6768 -10.2148 -57.1426 -11.7148q-4.14551 0 -6.3418 5.76953q-2.19727 5.76953 0.588867 13.3184q2.78516 7.54785 11.1816 11.4834q56.4922 26.5391 96.5684 51.6416
t56.0098 40.1416t31.3203 28.7783t28.1016 20.0107q11.6689 6.93848 29.167 0.160156q16.2559 -6.2959 2.26074 -21.0176z" />
  </g>

</svg>
