<?xml version="1.0" standalone="no"?>
<!DOCTYPE svg PUBLIC "-//W3C//DTD SVG 1.1//EN" "http://www.w3.org/Graphics/SVG/1.1/DTD/svg11.dtd" >
<svg xmlns="http://www.w3.org/2000/svg" xmlns:xlink="http://www.w3.org/1999/xlink" version="1.1" viewBox="-10 0 975 1000">
  <g transform="matrix(1 0 0 -1 0 800)">
   <path fill="currentColor"
d="M887.646 0q-250.83 6.29199 -364.285 7.71387q-1.92676 0 -12.7988 -3.97949q-10.873 -3.97852 -15.7734 -4.5918q-10.6953 -1.33691 -2.68262 16.5127q1.22656 2.73242 2.68262 4.91602q23.5137 29.1055 52.0146 59.6709q28.502 30.5654 64.543 67.2305
q36.041 36.6641 54.8711 56.8135q21.1553 22.9941 13.2041 26.0879q-1.85547 0.722656 -4.91797 0.768555h-164.857q-7.11914 0.533203 -14.2852 0.533203q-7.16699 0 -14.2861 -0.533203q-11.6611 -62.5068 -26.5713 -123.714q-3.5332 -14.7773 -45.1426 -18.8574
q-158.235 -14.9912 -206 -42.2852q-32.5 -18.5713 -71.9229 -56.3965q-39.4229 -37.8242 -30.0771 -59.3184q6.53613 -15.0332 21.0352 -19.6143q14.499 -4.58203 26.8809 -1.62891q12.3818 2.9541 19.5117 8.38574q7.94824 6.19531 3.49219 16.4658
q-4.45605 10.2705 -9.45996 19.0693q-5.00391 8.79785 5.96777 21.6084q5.53223 7.27734 34.3574 2.17871q28.8252 -5.09863 33.9287 -19.0361q7.08301 -20.0996 -23.3125 -42.748q-30.3945 -22.6484 -60.1162 -31.5381q-16.7676 -7.31055 -35.0576 -7.31055
q-25.998 0 -47.7998 14.168q-10.2617 7.0498 -17.5254 20.8506q-7.2627 13.8008 -7.2627 26.251q0 16.7822 9.07422 30.8984q14.9873 30.7529 60.7988 59.2471q45.8115 28.4941 96.6299 47.3242q33.6934 12.1934 82.2705 22.793t72.5068 18.8906t27.2227 22.6025
q19.4785 71.9834 28.5713 146l16.5713 129.714q-147.302 -18.876 -228.571 -28.5713q-6.88574 -106.238 -17.7139 -120.857q-11.9805 -15.8975 -31.8574 -10.9287q-19.877 4.96973 -19 22.0723q5.09375 106.627 8.71582 168.416t3.85547 66.7266
q-1.70703 7.04004 -11.8623 3.87305q-10.1553 -3.16699 -22.085 -0.888672q-11.9287 2.27832 -12.0527 15.873q-1.91016 16.042 72.5713 12q7.53711 0 20.8535 0.0625q34.2207 0.161133 45.9727 -1.11426q11.751 -1.27539 12.6025 -7.23438
q1.06641 -7.46387 -4.96094 -10.8633q-6.02637 -3.40039 -13.998 -3.45117q-7.9707 -0.0517578 -15.2344 -1.40625q-7.2627 -1.35449 -8.09277 -5.13672l-9.14258 -93.7139l234.286 26.5713q6.60742 90.3057 25.1426 100.286q11.1396 4.82715 23.2861 4.82715
q12.1455 0 23.2852 -4.82715q12.9951 -5.74707 4 -69.7148q-2.30469 -15.3652 -11.1035 -77.5713q-8.79883 -62.2061 -14.6104 -97.5713l39.1426 28.5713q41.6582 32.1016 104.444 71.4473q62.7852 39.3457 109.842 62.8389q50.4219 29.4336 104.285 52
q8.34863 3.0752 13.7861 -8.35742t-2.92871 -16.5q-69.9971 -39.0049 -165.348 -100.033q-95.3496 -61.0273 -160.081 -108.253q20.9316 0 59.4395 -1.01562t70.0742 -1.01562q31.5654 0 59.6289 2.03125q17.3545 0 27.75 -10.5713t-1.17871 -24.2852
q-28.5605 -29.54 -81.2031 -82.9307q-52.6426 -53.3896 -69.3682 -70.498q-22.0342 -22.0342 -17.0908 -25.7295q1.72852 -1.29199 5.66211 -1.41309l300.572 -11.1436q13.2627 -1.06055 16.1494 -15.3125t-3.63281 -28.041q-6.52051 -13.7891 -16.2314 -13.7891z" />
  </g>

</svg>
