<?xml version="1.0" standalone="no"?>
<!DOCTYPE svg PUBLIC "-//W3C//DTD SVG 1.1//EN" "http://www.w3.org/Graphics/SVG/1.1/DTD/svg11.dtd" >
<svg xmlns="http://www.w3.org/2000/svg" xmlns:xlink="http://www.w3.org/1999/xlink" version="1.1" viewBox="-10 0 771 1000">
  <g transform="matrix(1 0 0 -1 0 800)">
   <path fill="currentColor"
d="M86.2158 680q-24.791 0 -33.4287 14.2861q-6.05664 10.0156 8.41309 48.6006q14.4688 38.585 29.0156 42.8271q6.77246 1.97559 8.38867 -7.67383q1.61621 -9.64844 0.499023 -22.5938q-1.11621 -12.9453 2.48242 -24.1475q3.59863 -11.2012 13.7725 -11.585
q24.1064 0 98.8926 -1.14258t99.1074 -1.14258q13.373 0 18.3506 -6.98926t5.93457 -21.582q0.507812 -7.74609 -36.4199 -54.6035q-36.9287 -46.8564 -74.1113 -89.8408l-37.1826 -42.9844h139.429q15.1816 0 15.8926 -19.6426q0.710938 -19.6436 -7.03516 -32.0723
q-4.55469 -9.44336 -30.9736 -61.5674q-26.4189 -52.123 -37.2676 -76.7002q-10.8486 -24.5762 -23.3037 -66.3262t-12.4551 -73.6914q-0.0595703 -1.88867 -0.0595703 -3.81348q0 -27.2197 16.0908 -57.0762q16.0898 -29.8574 38.8252 -44.8252
q86.3027 -42.1221 150.857 -9.14258q63.3076 32.3418 117.714 186.857q18.7207 59.5557 35.0449 145.781t20.6699 148.504q0.186523 8.23926 0.186523 16.4102q0 74.1318 -15.0439 146.733h-23.4287q-5.35742 0 -10.0596 7.14258t-2.73828 14.2861
q1.96484 7.14258 12.7979 7.14258h120.857q13.0635 0 15.5117 -7.14258q2.44824 -7.14355 -3.21387 -14.2861q-5.66309 -7.14258 -12.2979 -7.14258h-22.5713q12.6748 -86.7812 12.6748 -174.473q0 -7.97266 -0.103516 -15.8135q-1.37598 -75.2354 -26.9932 -175.692
q-25.6162 -100.458 -60.4355 -167.165q-22.2109 -41.4111 -68.3369 -84.1895q-46.127 -42.7783 -89.0918 -61.8105q-49.4238 -21.4531 -103.3 -21.4531q-35.8799 0 -70.4141 9.73926q-21.8574 8.02344 -38.1143 17.0889q-16.2578 9.06641 -36.2178 26.4375
q-19.96 17.3721 -30.4609 45.7949q-10.501 28.4238 -9.49316 65.5361q1.26953 46.7305 27.1982 120.73t51.2227 124.635l25.2939 50.6348h-151.429q-10.2422 0 -15.4639 11.4639q-5.22266 11.4648 0.606445 24.5361q3.68262 7.74609 42.1826 53.5312
q38.5 45.7861 75.1592 87.6992l36.6582 41.9121h-158.285z" />
  </g>

</svg>
