<?xml version="1.0" standalone="no"?>
<!DOCTYPE svg PUBLIC "-//W3C//DTD SVG 1.1//EN" "http://www.w3.org/Graphics/SVG/1.1/DTD/svg11.dtd" >
<svg xmlns="http://www.w3.org/2000/svg" xmlns:xlink="http://www.w3.org/1999/xlink" version="1.1" viewBox="-10 0 927 1000">
  <g transform="matrix(1 0 0 -1 0 800)">
   <path fill="currentColor"
d="M127.69 714.286l659.144 4q8.37695 0 13.1445 7.06641q4.76855 7.06543 7.1123 13.751q2.34277 6.68652 13.4424 6.73047q11.0986 0.0449219 31.7295 -11.5479q31.5332 -17.7627 -8.7002 -37.3193q-40.7842 -19.8242 -100.729 -19.8242
q-29.7725 -107.895 -79.8477 -204.931q-50.0762 -97.0352 -107.089 -167.543q-57.0137 -70.5078 -121.428 -130.003q-64.415 -59.4941 -123.727 -98.0674q-59.3125 -38.5732 -113.066 -65.5938q-53.7539 -27.0215 -90.3662 -38.7275q-36.6113 -11.7061 -54.7627 -11.7061
q16.1943 11.8311 67.8311 43.3945q51.6377 31.5645 91.8496 58.3887t99.7402 83.6992q59.5293 56.875 106.08 122.27t95.3193 170.961q48.7695 105.565 82.0371 232.716l-348.857 -7.42871q-9.65039 -46.7305 -19.3652 -120.016q-9.71387 -73.2861 -14.6035 -123.206
l-4.88867 -49.9209q15.7285 -14.873 22.5723 -22.8574q2.65723 -4.8291 0.560547 -12.6133q-2.09766 -7.78516 -7.88379 -14.0107t-10.1055 -3.66113q-88.7822 53.9326 -122.286 72.8564q-5.59766 3 -2.85645 14.7852q2.74023 11.7861 9.14258 11.7861
q14.7207 -2.44141 28.5713 -8l30.5713 252.857q-10.2412 -0.376953 -25.6553 -0.102539q-15.415 0.275391 -42.9746 6.9668q-27.5605 6.69141 -31.3701 20.2783q-3.85645 13.6475 -3.97266 22.0342q-0.115234 8.3877 3.39453 11.5938q3.51074 3.20605 8.78906 3.61426
q5.27832 0.407227 13.3096 -1.63184q8.03223 -2.03809 15.7861 -4.43262t17.3887 -4.5t17.0186 -2.10547z" />
  </g>

</svg>
