<?xml version="1.0" standalone="no"?>
<!DOCTYPE svg PUBLIC "-//W3C//DTD SVG 1.1//EN" "http://www.w3.org/Graphics/SVG/1.1/DTD/svg11.dtd" >
<svg xmlns="http://www.w3.org/2000/svg" xmlns:xlink="http://www.w3.org/1999/xlink" version="1.1" viewBox="-10 0 472 1000">
  <g transform="matrix(1 0 0 -1 0 800)">
   <path fill="currentColor"
d="M362 42q-50 -42 -134 -49l-15 -144l-44 -5l-5 7l15 140q-38 1 -71.5 9t-56.5 19l-6 11q12 69 13 133l59 5q0 -61 14.5 -85.5t53.5 -28.5l15 155l-15 7q-63 30 -97.5 60.5t-34.5 79.5q0 60 48.5 101t127.5 49l15 146l45 6l6 -9l-15 -141q66 -3 119 -19l5 -10
q-14 -66 -19 -133l-53 -4l-7 4q2 15 2 31q0 29 -12.5 44.5t-40.5 19.5l-15 -148l5 -2q47 -22 76.5 -39t50.5 -43.5t21 -62.5q0 -62 -50 -104zM169.5 347.5q14.5 -15.5 41.5 -30.5l12 125q-30 -5 -49 -21t-19 -39q0 -19 14.5 -34.5zM286.5 75.5q19.5 16.5 19.5 42.5
q0 21 -15 37t-43 31l-14 -132q33 5 52.5 21.5z" />
  </g>

</svg>
