<?xml version="1.0" standalone="no"?>
<!DOCTYPE svg PUBLIC "-//W3C//DTD SVG 1.1//EN" "http://www.w3.org/Graphics/SVG/1.1/DTD/svg11.dtd" >
<svg xmlns="http://www.w3.org/2000/svg" xmlns:xlink="http://www.w3.org/1999/xlink" version="1.1" viewBox="-10 0 870 1000">
  <g transform="matrix(1 0 0 -1 0 800)">
   <path fill="currentColor"
d="M46.6133 636.286q4.29492 9.89355 14.9688 16.8965q10.6738 7.00195 21.46 7.00195q14.4854 0 25.5713 -9.32715q11.9014 -19.8223 51.043 -85.7656t57.4717 -95.7529q18.3311 -29.8096 51.1406 -81.752q32.8105 -51.9414 62.2725 -93.4893t60.6436 -81.2402
q0 28.084 1.0791 79.3545q1.08008 51.2695 1.08008 93.4814t-2.15918 80.3066q-1.12793 21.6475 27.8213 37t47.3213 -1.57129q46.2412 -43.7578 205.143 -200q36.2861 -40.3145 36.2861 -15.1426q3.29004 96.2158 15.4287 401.428q0.663086 17.9033 18.999 21.9502
q18.3359 4.0459 36.3828 -4.66113t18.0469 -21.8604q-10.2861 -393.589 -10.2861 -485.714q-0.27832 -12.5498 -16.8262 -30.2012q-16.5488 -17.6514 -29.1738 -7.51367q-51.9453 41.5898 -143.968 130.592t-101.746 97.9805q-26.3652 23.9668 -32.2432 20.7578
q-3.47168 -1.89648 -3.47168 -9.90137q-1.42871 -55.1426 -1.42871 -220.285q0 -2.38672 -0.441406 -12.2461q-0.441406 -9.86035 -0.322266 -15.5391q0.119141 -5.67773 2.01953 -13.0957t5.8877 -11.4053q1.1543 -1.1543 9.08301 -9.33496
q7.92773 -8.18164 10.6602 -10.5518q2.73145 -2.37109 10.1758 -8.72754q7.44336 -6.35547 12.1445 -8.04199q4.70117 -1.6875 11.751 -4.03906q7.04883 -2.35156 13.8086 -1.17578t13.8057 4.72852q6.77441 3.19727 12.6377 12.665q5.8623 9.46875 9.12598 18.5762
t8.20801 16.958q4.94434 7.84961 9.88184 7.80957q4.93652 -0.0390625 14.1465 -8.86621q48.1445 -52.6982 36.8564 -94.5713q-6.04004 -22.417 -32.1104 -32.9717q-26.0713 -10.5547 -56.0645 -8.53223q-29.9932 2.02148 -52.1104 12.9326
q-13.9697 6.84473 -27.127 14.8379q-13.1582 7.99316 -26.5225 18.9551q-13.3643 10.9629 -23.1738 18.9277q-9.81055 7.96484 -23.4648 22.8311q-13.6553 14.8652 -20.5879 22.0498q-6.93359 7.18555 -21.3486 25.2012q-14.415 18.0166 -18.9414 23.6689
q-4.52637 5.65137 -20.1729 26.0664q-15.6455 20.4141 -18.6611 24.3193q-105.715 142.517 -195.715 295.428q-1.68164 2.79785 -5.06641 8.41309q-19.4443 32.2539 -28.9082 49.2998t-17.0908 39.1602q-7.62695 22.1152 -3.21973 33.6992zM184.042 142.857
q-0.256836 2.55957 -0.256836 5.16211q0 13.332 8.44629 26.9717q8.44727 13.6396 20.3818 19.5801q23.5312 13.291 48.8135 -13.4316q25.2832 -26.7217 22.3291 -64.2822q-2.42676 -30.4277 -44.0234 -17.918q-37.0928 11.1553 -52.085 35.543
q-2.66895 4.34082 -3.60547 8.375zM407.185 685.714q-3.45312 10.7432 6.93848 18.6963q10.3906 7.95312 22.2041 9.87598q24.6484 4.68262 55.2852 -13.6367q36.3594 -21.7402 8.14355 -43.5068q-15.5107 -9.4873 -33.6934 -9.4873q-17.2812 0 -34.5322 11.1514
q-17.251 11.1504 -24.3457 26.9072z" />
  </g>

</svg>
