<?xml version="1.0" standalone="no"?>
<!DOCTYPE svg PUBLIC "-//W3C//DTD SVG 1.1//EN" "http://www.w3.org/Graphics/SVG/1.1/DTD/svg11.dtd" >
<svg xmlns="http://www.w3.org/2000/svg" xmlns:xlink="http://www.w3.org/1999/xlink" version="1.1" viewBox="-10 0 654 1000">
  <g transform="matrix(1 0 0 -1 0 800)">
   <path fill="currentColor"
d="M47.1328 460.857q5.43066 14.2793 22.7148 17.0713t21 -6.5q37.9961 -67.5928 97.3496 -159.679t105.222 -154.607q0 20.2646 0.761719 57.5508q0.761719 37.2852 0.761719 67.8516t-1.52344 57.7412q-0.902344 15.7773 19.9639 26.8926t34.3213 -1.17871
q27.2354 -26.457 77.124 -75.6953q49.8887 -49.2373 71.1621 -70.0186q19.834 -18.9736 23.5947 -17.7666q2.69043 0.864258 2.69043 6.62305q1.28516 36.2539 5.57129 145.254q4.28516 109 5.57227 145.317q0.530273 12.8623 13.7988 15.79
q13.2695 2.92676 26.3066 -3.29297q13.0371 -6.2207 13.0371 -15.6396q-7.42871 -327.923 -7.42871 -352.571q0 -9.88184 -11.9395 -22.9893q-11.9404 -13.1084 -21.2031 -5.58203q-37.7842 30.498 -103.837 94.3633q-66.0527 63.8643 -74.1631 71.3506
q-22.8135 15.333 -25.7148 8v-159.429q0 -1.29883 -0.319336 -8.375q-0.318359 -7.07617 -0.21875 -11.2803t1.54102 -9.78223q1.44043 -5.57715 4.42578 -8.5625q0.712891 -0.711914 6.51367 -6.69141q5.80176 -5.97852 7.70508 -7.61328q1.90234 -1.63574 7.3418 -6.28223
q5.44043 -4.64648 8.80957 -5.83398q3.36914 -1.18848 8.49707 -2.92383t10.0137 -0.896484q4.88477 0.838867 9.97656 3.38477q4.62793 2.35156 8.67676 9.24316t6.3584 13.4814q2.31055 6.58887 5.90625 12.2881q3.59668 5.69824 7.31934 5.66309
q3.72266 -0.0341797 10.5967 -6.39062q11.249 -10.209 19.2109 -28.1865q7.96094 -17.9766 7.96094 -33.1689q0 -3.60742 -0.31543 -7.21582q-6.5918 -24.1719 -42.7139 -29.1787q-36.1221 -5.00586 -59 8.32129q-21.4238 10.8643 -40.3262 25.5459
q-18.9033 14.6816 -40.2188 39.3242q-21.3154 24.6436 -29.6299 35.1846t-32.6826 42.8027q-76.4775 102.961 -141.143 213.715q-2.03809 3.46777 -6.1543 10.4102q-13.3623 22.5371 -19.7715 34.2852q-6.40918 11.7471 -11.4697 26.8154t-2.0332 23.0605zM146.848 104
v0.857422q-0.219727 2.01855 -0.219727 4.04395q0 9.51758 6.00781 19.2998q6.00781 9.78125 14.4971 14.085q17.3174 8.76562 35.5898 -11.5166t16.125 -45.627q-2.00488 -23.6582 -35.1436 -11.8926q-30.4355 12.5088 -36.8564 30.75zM308.275 496
q-2.66992 8.20117 4.8418 14.1074q7.51172 5.90527 16.3018 7.60645q20.0645 4.18066 42.6562 -11.4131q21.7158 -14.9893 3.05762 -29.7295q-11.3379 -7.02344 -24.6758 -7.02344q-12.166 0 -24.5244 7.75098q-12.3594 7.75 -17.6572 18.7012z" />
  </g>

</svg>
