<?xml version="1.0" standalone="no"?>
<!DOCTYPE svg PUBLIC "-//W3C//DTD SVG 1.1//EN" "http://www.w3.org/Graphics/SVG/1.1/DTD/svg11.dtd" >
<svg xmlns="http://www.w3.org/2000/svg" xmlns:xlink="http://www.w3.org/1999/xlink" version="1.1" viewBox="-57 0 498 1000">
  <g transform="matrix(1 0 0 -1 0 800)">
   <path fill="currentColor"
d="M-21 -149q-26 11 -26 26q0 17 7.5 44t15.5 36h13q9 -26 31 -44.5t47 -18.5q23 0 37.5 19.5t17.5 61.5l12 145q8 97 13 151q0 17 -4.5 24t-18 9t-46.5 2l-4 6l7 39l73 11l2 28q3 36 12 69q12 61 59.5 100t107.5 39q36 0 66 -9.5t30 -23.5q0 -16 -7.5 -45.5t-14.5 -38.5
l-14 -1q-16 27 -40.5 44.5t-50.5 17.5q-24 0 -36.5 -15.5t-17 -39t-7.5 -64.5l-5 -64q45 0 82.5 1.5t43.5 1.5l4 -4l-10 -56l-125 2l-17 -196q-5 -70 -18 -134q-7 -39 -31.5 -69.5t-59 -47.5t-71.5 -17q-31 0 -57 11z" />
  </g>

</svg>
