<?xml version="1.0" standalone="no"?>
<!DOCTYPE svg PUBLIC "-//W3C//DTD SVG 1.1//EN" "http://www.w3.org/Graphics/SVG/1.1/DTD/svg11.dtd" >
<svg xmlns="http://www.w3.org/2000/svg" xmlns:xlink="http://www.w3.org/1999/xlink" version="1.1" viewBox="-10 0 1391 1000">
  <g transform="matrix(1 0 0 -1 0 800)">
   <path fill="currentColor"
d="M242.469 687.429q9.47754 -1.77734 18.293 -11.2529q8.81543 -9.47461 2.56445 -20.4619q-4.36426 -7.66992 -27.7637 -12.9102q-23.3994 -5.23926 -25.665 -15.6611q-2.29297 -10.9561 20.8027 -37.1924t42.626 -26.2363q56.3711 -2.46484 211.896 -6.98438
q155.524 -4.52051 186.104 -5.58691q17.7295 -0.479492 38.5332 -14.4307t18.6094 -28.7119q-7.25293 -46.9033 -20.8506 -133.837q-13.5986 -86.9336 -27.4414 -175.374q-13.8418 -88.4404 -20.8506 -133.646q-10.2988 -64 -38.8574 -64q-53.0361 0 -219.535 2.85742
q-166.5 2.85742 -219.321 2.85742q-17.7295 -0.464844 -35.8955 -12.0176t-26.1045 -27.4111q-4.72949 -10.0146 -1.07129 -32.1787q3.65723 -22.1641 -2.35742 -30.6787q-9.36621 -17.4502 -28.5713 -22.2852q-5.37012 -2.125 -11.1436 -2.125q-5.77246 0 -11.1426 2.125
q-11.0762 9.06738 -16.5713 22.2852q-3.75488 10.8965 -3.75488 22.4287t3.75488 22.4287q23.1533 35.2461 68.9453 65.2998q45.791 30.0537 87.3398 37.2715q27.5273 2.1377 157.036 -0.321289q129.509 -2.45996 181.25 0.321289q14.1152 0.762695 22.208 13.2949
t9.79199 25.8477q11.4766 78.9023 48.5713 327.715q4.93066 25.2178 2.78613 41.7578q-2.14453 16.5391 -4.70117 25.6982q-2.55762 9.1582 -8.6377 13.5332q-6.08105 4.375 -9.02148 5.26465q-2.94141 0.888672 -5.85449 0.888672q-44.3975 0.758789 -115.592 3.25586
q-71.1953 2.49707 -154.244 5.77344t-116.164 4.39941q-29.6797 1.0752 -64.4365 40.1201q-34.7568 39.0459 -28.9922 65.3086q4.25 19.8975 55.9961 42.8301q51.7461 22.9316 67.4326 19.7412zM969.523 319.714q30.957 -5.75098 86.7744 -14.4893
q55.8164 -8.7373 60.3682 -9.51074q12.0967 -2.14648 20.4092 -14.0039q8.3125 -11.8584 9.59082 -22.8525q2.84082 -24.4316 18 -88.5713q8.52148 -45.0371 22 -88.8574q9.12793 -25.5107 38.5518 -59.041q29.4248 -33.5303 47.1631 -33.5303q0.258789 0 4.17285 -0.150391
q3.91504 -0.150391 4.97461 0.0507812q1.06055 0.202148 4.35547 1.375q3.2959 1.17285 4.93555 3.44043q1.63965 2.2666 3.91895 6.65234q2.28027 4.38477 3.92773 10.6318q2.29102 8.68652 -5.32324 13.665t-18.2012 6.74121q-10.5869 1.76172 -19.6738 7.25879
t-9.08691 14.9062q0 13.0381 10.7168 26.6621q10.7168 13.623 23.5684 13.623q28.3311 0 39.0566 -39.9922t4.37207 -68.293q-6.3916 -19.9912 -25.7676 -34.1387q-19.377 -14.1484 -40.3643 -14.1484l-0.439453 0.000976562q-23.791 0 -43.5605 9.94043
q-19.7695 9.93945 -35.0225 29.3516q-15.252 19.4121 -25.3711 37.6123q-10.1191 18.2012 -21.7607 44.8105q-25.1602 72.5508 -36 148.571q-1.18848 4.34277 -4.14355 16.4209q-2.95605 12.0781 -4.3291 15.7334q-1.37207 3.65625 -4.72266 10.5254
q-3.35059 6.86816 -7.96289 9.83594q-4.61328 2.96875 -11.4131 4.62695q-35.1748 9.14258 -91.1025 20.2852q-55.9287 11.1436 -94.2705 17.7148l-38.3408 6.57129q26.8848 -206.619 40.8574 -231.143q5.37207 -13.4854 19.4482 -23.0293
q14.0771 -9.54492 28.5928 -9.54492l0.530273 0.00292969q3.50977 0.302734 10.4268 1.625q6.91797 1.32324 11.4434 1.80371q4.52539 0.479492 9.60742 0.0117188q5.08301 -0.46875 7.94629 -3.82031q2.8623 -3.35156 3.43262 -9.62012q1.03223 -11.4873 -1.11426 -18.5605
t-5.5918 -9.92676q-3.44531 -2.85449 -10.4219 -2.8457q-6.97559 0.00878906 -12.0752 1.24805q-5.10059 1.23926 -14.3184 3.88477q-9.21875 2.64551 -13.6211 3.62891q-56.4688 15.7422 -115.09 15.7422q-2.45312 0 -4.91016 -0.0283203
q-37.9111 -6.83789 -69.7139 -28.5713q-4.99023 0 -9.1875 1.58691q-4.19629 1.58789 -7.19629 3.98926t-5.39355 6.375t-3.9043 7.56348q-1.51172 3.58887 -2.5957 8.81445q-1.08398 5.22461 -1.60156 8.86719q-0.516602 3.64258 -0.785156 8.98438t-0.28418 7.90234
t0.0371094 6.88477q0.0537109 4.32324 0.0537109 4.74609q0 10.793 5.40039 17.0195q5.39941 6.22656 17.1709 2.69531q5.95703 -1.78711 21.748 -17.1377q15.791 -15.3496 30.252 -14.8623q35.7959 1.33594 35.1699 42.7988q-0.0273438 1.83105 -0.0273438 2.62988
q0 14.3486 -7.14258 70.0635q-7.14355 55.7139 -14.2861 104.253l-7.14258 48.54q-0.851562 0.0957031 -2.33398 0.283203q-1.48242 0.188477 -5.99121 0.907227q-4.50781 0.719727 -8.8457 1.5791q-4.33789 0.860352 -10.1582 2.33789q-5.81934 1.47656 -10.7178 3.14062
q-4.89746 1.66309 -9.73438 4.03027q-4.83594 2.36621 -7.99902 4.96484q-3.16211 2.59961 -4.7207 5.98633q-1.55859 3.3877 -0.641602 7.05664q3.83105 15.3252 10 17.5361q6.16895 2.20996 18.5713 -0.678711q2.71875 -0.113281 46.2168 -9.88477
q43.4971 -9.77246 99.376 -22.1357q55.8799 -12.3633 81.2646 -17.123zM1083.81 400.286q0 -10.998 -11.7646 -18.6416q-11.7646 -7.64453 -22.5205 -7.64453q-1.82715 -0.224609 -3.66699 -0.224609q-10.9443 0 -19.665 7.68359q-8.71973 7.68359 -10.0967 18.541
q0 12.5381 11.1182 20.5547t23.168 8.0166q0.482422 0.015625 0.985352 0.015625q11.8838 0 21.0547 -8.37598t10.2451 -20.2109z" />
  </g>

</svg>
