<?xml version="1.0" standalone="no"?>
<!DOCTYPE svg PUBLIC "-//W3C//DTD SVG 1.1//EN" "http://www.w3.org/Graphics/SVG/1.1/DTD/svg11.dtd" >
<svg xmlns="http://www.w3.org/2000/svg" xmlns:xlink="http://www.w3.org/1999/xlink" version="1.1" viewBox="-10 0 1222 1000">
  <g transform="matrix(1 0 0 -1 0 800)">
   <path fill="currentColor"
d="M191.507 514.286q7.51855 -1.87988 13.5381 -8.18652q6.02051 -6.30664 1.31934 -14.957q-3.38574 -6.22949 -20.5879 -10.3154t-18.8408 -11.6846q-1.53418 -7.92773 15.4951 -27.249q17.0293 -19.3223 31.0762 -19.3223q40.8486 -1.77539 153.601 -4.99121
q112.752 -3.21484 138.971 -4.15137q13.3711 -0.477539 28.7705 -10.7021q15.3994 -10.2256 13.8018 -21.0127q-6.27637 -40.6533 -25.4199 -162.796q-19.1426 -122.144 -25.4375 -162.918q-7.32227 -46.8574 -28.5713 -46.8574q-39.0361 0 -161.393 2.14258
q-122.357 2.14355 -161.179 2.14355q-12.9951 -0.263672 -26.3896 -8.63477q-13.3936 -8.37109 -19.3252 -19.9365q-3.46094 -7.33789 -0.75 -23.6787t-1.82129 -22.6074q-6.52441 -12.4111 -20 -16.2852q-3.91602 -1.58496 -8.14258 -1.58496q-4.22559 0 -8.14355 1.58496
q-8.42383 6.59375 -12.2852 16.5713q-2.79297 7.97559 -2.79297 16.4287q0 8.4541 2.79297 16.4277q16.9658 25.7734 50.4512 47.957q33.4863 22.1846 63.834 27.7578q21.0303 1.81055 115.394 0q94.3633 -1.81152 133.179 0q10.6328 0 17.1738 9.78125
q6.54004 9.78125 6.54004 18.79q6.42188 52.1494 35.7139 241.143q3.7168 18.5322 2.12598 30.6836q-1.59082 12.1504 -3.49707 18.875t-6.44531 9.93359q-4.54004 3.20996 -6.7207 3.8584q-2.17969 0.649414 -4.31934 0.649414q-43.3535 0.666992 -154.444 4.9082
q-111.091 4.24023 -129.556 4.80664q-22.0635 0.856445 -47.3535 29.5312q-25.291 28.6758 -21.2178 48.1826q3.49707 14.5742 41.4668 31.4424q37.9688 16.8672 49.3896 14.2725zM800.523 319.714q30.957 -5.75098 86.7744 -14.4893q55.8164 -8.7373 60.3682 -9.51074
q12.0967 -2.14648 20.4092 -14.0039q8.3125 -11.8584 9.59082 -22.8525q2.84082 -24.4316 18 -88.5713q8.52148 -45.0371 22 -88.8574q9.12793 -25.5107 38.5518 -59.041q29.4248 -33.5303 47.1631 -33.5303q0.258789 0 4.17285 -0.150391
q3.91504 -0.150391 4.97461 0.0507812q1.06055 0.202148 4.35547 1.375q3.2959 1.17285 4.93555 3.44043q1.63965 2.2666 3.91895 6.65234q2.28027 4.38477 3.92773 10.6318q2.29102 8.68652 -5.32324 13.665t-18.2012 6.74121q-10.5869 1.76172 -19.6738 7.25879
t-9.08691 14.9062q0 13.0381 10.7168 26.6621q10.7168 13.623 23.5684 13.623q28.3311 0 39.0566 -39.9922t4.37207 -68.293q-6.3916 -19.9912 -25.7676 -34.1387q-19.377 -14.1484 -40.3643 -14.1484l-0.439453 0.000976562q-23.791 0 -43.5605 9.94043
q-19.7695 9.93945 -35.0225 29.3516q-15.252 19.4121 -25.3711 37.6123q-10.1191 18.2012 -21.7607 44.8105q-25.1602 72.5508 -36 148.571q-1.18848 4.34277 -4.14355 16.4209q-2.95605 12.0781 -4.3291 15.7334q-1.37207 3.65625 -4.72266 10.5254
q-3.35059 6.86816 -7.96289 9.83594q-4.61328 2.96875 -11.4131 4.62695q-35.1748 9.14258 -91.1025 20.2852q-55.9287 11.1436 -94.2705 17.7148l-38.3408 6.57129q26.8848 -206.619 40.8574 -231.143q5.37207 -13.4854 19.4482 -23.0293
q14.0771 -9.54492 28.5928 -9.54492l0.530273 0.00292969q3.50977 0.302734 10.4268 1.625q6.91797 1.32324 11.4434 1.80371q4.52539 0.479492 9.60742 0.0117188q5.08301 -0.46875 7.94629 -3.82031q2.8623 -3.35156 3.43262 -9.62012q1.03223 -11.4873 -1.11426 -18.5605
t-5.5918 -9.92676q-3.44531 -2.85449 -10.4219 -2.8457q-6.97559 0.00878906 -12.0752 1.24805q-5.10059 1.23926 -14.3184 3.88477q-9.21875 2.64551 -13.6211 3.62891q-56.4688 15.7422 -115.09 15.7422q-2.45312 0 -4.91016 -0.0283203
q-37.9111 -6.83789 -69.7139 -28.5713q-4.99023 0 -9.1875 1.58691q-4.19629 1.58789 -7.19629 3.98926t-5.39355 6.375t-3.9043 7.56348q-1.51172 3.58887 -2.5957 8.81445q-1.08398 5.22461 -1.60156 8.86719q-0.516602 3.64258 -0.785156 8.98438t-0.28418 7.90234
t0.0371094 6.88477q0.0537109 4.32324 0.0537109 4.74609q0 10.793 5.40039 17.0195q5.39941 6.22656 17.1709 2.69531q5.95703 -1.78711 21.748 -17.1377q15.791 -15.3496 30.252 -14.8623q35.7959 1.33594 35.1699 42.7988q-0.0273438 1.83105 -0.0273438 2.62988
q0 14.3486 -7.14258 70.0635q-7.14355 55.7139 -14.2861 104.253l-7.14258 48.54q-0.851562 0.0957031 -2.33398 0.283203q-1.48242 0.188477 -5.99121 0.907227q-4.50781 0.719727 -8.8457 1.5791q-4.33789 0.860352 -10.1582 2.33789q-5.81934 1.47656 -10.7178 3.14062
q-4.89746 1.66309 -9.73438 4.03027q-4.83594 2.36621 -7.99902 4.96484q-3.16211 2.59961 -4.7207 5.98633q-1.55859 3.3877 -0.641602 7.05664q3.83105 15.3252 10 17.5361q6.16895 2.20996 18.5713 -0.678711q2.71875 -0.113281 46.2168 -9.88477
q43.4971 -9.77246 99.376 -22.1357q55.8799 -12.3633 81.2646 -17.123zM914.809 400.286q0 -10.998 -11.7646 -18.6416q-11.7646 -7.64453 -22.5205 -7.64453q-1.82715 -0.224609 -3.66699 -0.224609q-10.9443 0 -19.665 7.68359q-8.71973 7.68359 -10.0967 18.541
q0 12.5381 11.1182 20.5547t23.168 8.0166q0.482422 0.015625 0.985352 0.015625q11.8838 0 21.0547 -8.37598t10.2451 -20.2109z" />
  </g>

</svg>
