<?xml version="1.0" standalone="no"?>
<!DOCTYPE svg PUBLIC "-//W3C//DTD SVG 1.1//EN" "http://www.w3.org/Graphics/SVG/1.1/DTD/svg11.dtd" >
<svg xmlns="http://www.w3.org/2000/svg" xmlns:xlink="http://www.w3.org/1999/xlink" version="1.1" viewBox="-10 0 818 1000">
  <g transform="matrix(1 0 0 -1 0 800)">
   <path fill="currentColor"
d="M390.662 761.429q-13.333 -14.0957 -43.0479 -39.4531q-29.7139 -25.3564 -52.7607 -43.666l-23.0479 -18.3096l-13.1436 -196q57.4023 17.5664 90.8223 9q33.4189 -8.56641 29.75 -39q-3.83984 -30.96 -19.6143 -67.0684q-15.7734 -36.1094 -35.543 -65.5293
q-19.7686 -29.4199 -38.9893 -54.416q-19.2207 -24.9971 -32.251 -38.9922l-13.0312 -13.9941l-14.5713 -158.571l142.856 17.1426q23.8711 24.5342 57.1436 32.5713q12.9541 0 16.5713 -9.39258t-4.85742 -22.0361q-3.57227 -5.27637 -10.8613 -16.3691t-11.7559 -17.6582
q-4.46777 -6.56543 -11.3193 -16.1729q-6.85156 -9.60645 -12.0508 -15.3838q-5.2002 -5.77637 -11.2842 -11.5898q-6.08398 -5.8125 -11.6865 -8.49121q-5.60254 -2.67969 -10.7559 -2.62012q-11.0479 0.126953 -12.334 12.8408q-1.28516 12.7148 2.95215 25.3652
l4.23828 12.6514l-290.856 -48.8574q-14.5898 -2.46094 -14.2256 14.1191q0.453125 20.5918 15.8682 27.1309q1.71973 0.730469 3.5 1.03516l85.7139 14l20.5713 244.857q54.5381 -12.7119 98.0146 26.2715t51.4141 96.5859q3.17773 22.6982 -8.27148 32.8516
t-39.7285 4.00586q-21.0811 -5.30664 -47.7861 -18.9521t-43.3564 -27.6201l16 241.144q-27.6768 -10.2148 -57.1426 -11.7148q-4.14551 0 -6.3418 5.76953q-2.19727 5.76953 0.588867 13.3184q2.78516 7.54785 11.1816 11.4834q56.4922 26.5391 96.5684 51.6416
t56.0098 40.1416t31.3203 28.7783t28.1016 20.0107q11.6689 6.93848 29.167 0.160156q16.2559 -6.2959 2.26074 -21.0176zM583 535.429q73.3613 -68.1387 134.856 -147.143q16.1182 -25.4668 27.5264 -64.8213q11.4072 -39.3535 11.4072 -69.4922
q0 -29.0889 -6.64746 -57.4014q-7.44336 -38.8506 -36.7432 -80.708q-29.3008 -41.8574 -63.2568 -62.1494q-33.2803 -16.4082 -70.3799 -16.4082q-13.0391 0 -25.9062 2.12305q-61.9014 24.1143 -116.856 61.4287q-10.7041 7.57715 -17.8525 5.2832
q-7.14844 -2.29297 -10.3818 -8.30859q-3.23242 -6.0166 -6.40723 -11.7969t-5.93066 -5.17773q-10.8281 3.05176 -11.4277 14.2852q0 18.8418 59.4277 57.1436q30.7588 24.0664 64 44.5713q8.59082 0 16.4385 -5.61426t7.84766 -11.8145
q-16.7119 -18.6055 -36.8574 -33.4287q33.1064 -32.5029 75.7148 -50.8574q19.1377 -8.41895 40.04 -8.41895q14.1406 0 32.0439 6.15039q17.9023 6.15039 29.0586 14.8398q12.5303 17.9414 21.3984 46.127t8.86816 50.0684q0 11.9609 -1.69531 23.8047
q-1.52051 32.8799 -21.9727 71.2256q-20.4531 38.3457 -48.5576 69.5859q-28.1035 31.2402 -55.9912 57.7832q-27.8867 26.543 -47.2539 41.4033l-19.3672 14.8594q-1.62598 -1.02051 -4.38477 -2.625q-2.75879 -1.60352 -10.2109 -5.10449t-13.6885 -5.36328
q-6.2373 -1.86328 -12.6797 -1.40234t-9.32227 4.78125q-7.08203 10.0439 4.94238 24.7549t25.1631 23.4424t23.6094 14.0879q1.64551 0.841797 24.0469 17.0986q22.4023 16.2559 42 25.8037t27.0957 2.8125q6.6875 -8.41309 1.8623 -18.5078
q-4.8252 -10.0957 -14.2002 -18.5088z" />
  </g>

</svg>
