<?xml version="1.0" standalone="no"?>
<!DOCTYPE svg PUBLIC "-//W3C//DTD SVG 1.1//EN" "http://www.w3.org/Graphics/SVG/1.1/DTD/svg11.dtd" >
<svg xmlns="http://www.w3.org/2000/svg" xmlns:xlink="http://www.w3.org/1999/xlink" version="1.1" viewBox="-10 0 722 1000">
  <g transform="matrix(1 0 0 -1 0 800)">
   <path fill="currentColor"
d="M305.084 571.429q-10.0312 -10.54 -32.2461 -29.54q-22.2139 -19 -39.4121 -32.7295l-17.1982 -13.7305l-10 -146.571q42.8398 13.1553 67.9287 6.71387t22.0713 -29.2852q-4.44434 -36.6992 -30.5156 -81.6279q-26.0723 -44.9287 -49.9209 -71.5078l-23.8496 -26.5791
l-10.8574 -118l107.429 12.8574q17.417 18.3389 42 24.2852q9.88867 0 12.5723 -7q2.68262 -6.99902 -3.71484 -16.4277q-1.8252 -2.76562 -8.05957 -12.3818q-6.23438 -9.61719 -8.92285 -13.5332t-8.30371 -11.8613q-5.61523 -7.94629 -9.14258 -11.6484
q-3.52637 -3.70312 -8.30371 -8.32812q-4.77637 -4.625 -8.92188 -6.46582q-4.14648 -1.84082 -8.05957 -1.78125q-8.38086 0.126953 -9.30957 9.62695t2.33301 18.9365l3.26172 9.43652l-218.285 -36.5723q-10.8916 -1.75586 -10.6504 10.4688
q1.50391 17.1309 14.3643 21.2461l64 10.2852l15.4287 183.429q40.9502 -9.62305 73.377 19.5957q32.4277 29.2197 38.3369 72.4043q5.16016 36.1113 -35.7139 28.5713q-38.0859 -9.7041 -68.2861 -34.8564l12 180.571q-21.0479 -7.69141 -43.4287 -8.85742
q-3.1084 0 -4.77441 4.34082q-1.66602 4.33984 0.40625 9.98535t8.36816 8.53125q42.2773 19.5273 72.2617 38.2529q29.9834 18.7246 41.9199 30.1143q11.9355 11.3906 23.4639 21.876q11.5283 10.4863 20.9268 15.1855q12.7002 5.22949 25.168 -1.55176
q9.70117 -5.27637 0.259766 -15.877zM487.001 509.429q73.3613 -68.1387 134.856 -147.143q16.1182 -25.4668 27.5264 -64.8213q11.4072 -39.3535 11.4072 -69.4922q0 -29.0889 -6.64746 -57.4014q-7.44336 -38.8506 -36.7432 -80.708q-29.3008 -41.8574 -63.2568 -62.1494
q-33.2803 -16.4082 -70.3799 -16.4082q-13.0391 0 -25.9062 2.12305q-61.9014 24.1143 -116.856 61.4287q-10.7041 7.57715 -17.8525 5.2832q-7.14844 -2.29297 -10.3818 -8.30859q-3.23242 -6.0166 -6.40723 -11.7969t-5.93066 -5.17773q-10.8281 3.05176 -11.4277 14.2852
q0 18.8418 59.4277 57.1436q30.7588 24.0664 64 44.5713q8.59082 0 16.4385 -5.61426t7.84766 -11.8145q-16.7119 -18.6055 -36.8574 -33.4287q33.1064 -32.5029 75.7148 -50.8574q19.1377 -8.41895 40.04 -8.41895q14.1406 0 32.0439 6.15039
q17.9023 6.15039 29.0586 14.8398q12.5303 17.9414 21.3984 46.127t8.86816 50.0684q0 11.9609 -1.69531 23.8047q-1.52051 32.8799 -21.9727 71.2256q-20.4531 38.3457 -48.5576 69.5859q-28.1035 31.2402 -55.9912 57.7832q-27.8867 26.543 -47.2539 41.4033
l-19.3672 14.8594q-1.62598 -1.02051 -4.38477 -2.625q-2.75879 -1.60352 -10.2109 -5.10449t-13.6885 -5.36328q-6.2373 -1.86328 -12.6797 -1.40234t-9.32227 4.78125q-7.08203 10.0439 4.94238 24.7549t25.1631 23.4424t23.6094 14.0879
q1.64551 0.841797 24.0469 17.0986q22.4023 16.2559 42 25.8037t27.0957 2.8125q6.6875 -8.41309 1.8623 -18.5078q-4.8252 -10.0957 -14.2002 -18.5088z" />
  </g>

</svg>
