<?xml version="1.0" standalone="no"?>
<!DOCTYPE svg PUBLIC "-//W3C//DTD SVG 1.1//EN" "http://www.w3.org/Graphics/SVG/1.1/DTD/svg11.dtd" >
<svg xmlns="http://www.w3.org/2000/svg" xmlns:xlink="http://www.w3.org/1999/xlink" version="1.1" viewBox="-10 0 1015 1000">
  <g transform="matrix(1 0 0 -1 0 800)">
   <path fill="currentColor"
d="M361.828 428.857q17.75 0 85.8213 -4.71484q68.0713 -4.71387 70.1787 -4.71387q5.10742 0 51.0361 4.71387q45.9277 4.71484 48.6777 4.71484q20.207 0 41.6885 -4.07422t44.8604 -13.3604q23.3789 -9.28711 39.5771 -28.4082q16.1982 -19.1201 19.0176 -45.3008
q1.26953 -13.4189 1.26953 -26.9121q0 -36.1162 -8.98438 -71.0879q-3.49316 -20.6279 -13.7871 -36.1758q-10.2949 -15.5488 -27.1875 -24.4473q-16.8936 -8.89941 -32.1602 -14.5t-38.0586 -7.66602t-34.9053 -2.52441q-12.1143 -0.459961 -32.0557 -0.411133
q-4.16992 0.0107422 -6.13086 0.0107422q-3.14355 0 -94.8574 9.42871t-94.8574 9.42871q-0.678711 0 -54.7461 1.18262q-54.0674 1.18359 -109.745 2.11035q-55.6787 0.926758 -65.7939 0.420898q-6.95996 0 -20.4258 -0.941406q-13.4668 -0.941406 -21.2383 -1.02344
q-7.77148 -0.0810547 -18.7266 2.63965q-10.9551 2.72168 -20.1816 9.04004q-16.1133 11.3525 -16.1133 31.0635q0 1.46875 0.113281 2.93652q1.27637 23.5586 18.6885 42.7295q17.4131 19.1699 40.7402 22.6982q4.02246 0 23.4443 -15.4521
q19.4219 -15.4531 31.127 -18.2617q21.6211 -4.1084 91.2861 -12.6289q69.665 -8.52148 89 -9.37109q17.8926 0 101.25 -3.14258q83.3574 -3.14355 85.6074 -3.14355q4.32812 0 68.8564 7.71484q8.67773 1.01074 15.3818 3.28809q6.7041 2.27637 11.3867 7.87305
q4.68262 5.59766 7.54199 8.2666t5.23926 12.1768q2.38086 9.50781 2.99414 11.3799t2.29102 14.1006q1.67676 12.2295 1.7373 12.6289q0.142578 2.16992 0.142578 4.36523q0 23.9512 -16.7852 43.2656q-16.7842 19.3145 -40.501 22.6553q-19.5518 2.03125 -162.285 5.71387
q-2.48242 0 -26.6787 -1.20117q-24.1973 -1.2002 -43.9727 -0.765625q-19.7764 0.43457 -45.1436 2.88281q-25.3662 2.44824 -44.1094 10.8223t-26.9531 21.9766q-8.92773 14.4414 0.501953 35.4258t30.3555 8.00293q40.7871 -19.7061 86.5713 -25.4287zM780 501.429
q73.3613 -68.1387 134.856 -147.143q16.1182 -25.4668 27.5264 -64.8213q11.4072 -39.3535 11.4072 -69.4922q0 -29.0889 -6.64746 -57.4014q-7.44336 -38.8506 -36.7432 -80.708q-29.3008 -41.8574 -63.2568 -62.1494q-33.2803 -16.4082 -70.3799 -16.4082
q-13.0391 0 -25.9062 2.12305q-61.9014 24.1143 -116.856 61.4287q-10.7041 7.57715 -17.8525 5.2832q-7.14844 -2.29297 -10.3818 -8.30859q-3.23242 -6.0166 -6.40723 -11.7969t-5.93066 -5.17773q-10.8281 3.05176 -11.4277 14.2852q0 18.8418 59.4277 57.1436
q30.7588 24.0664 64 44.5713q8.59082 0 16.4385 -5.61426t7.84766 -11.8145q-16.7119 -18.6055 -36.8574 -33.4287q33.1064 -32.5029 75.7148 -50.8574q19.1377 -8.41895 40.04 -8.41895q14.1406 0 32.0439 6.15039q17.9023 6.15039 29.0586 14.8398
q12.5303 17.9414 21.3984 46.127t8.86816 50.0684q0 11.9609 -1.69531 23.8047q-1.52051 32.8799 -21.9727 71.2256q-20.4531 38.3457 -48.5576 69.5859q-28.1035 31.2402 -55.9912 57.7832q-27.8867 26.543 -47.2539 41.4033l-19.3672 14.8594
q-1.62598 -1.02051 -4.38477 -2.625q-2.75879 -1.60352 -10.2109 -5.10449t-13.6885 -5.36328q-6.2373 -1.86328 -12.6797 -1.40234t-9.32227 4.78125q-7.08203 10.0439 4.94238 24.7549t25.1631 23.4424t23.6094 14.0879q1.64551 0.841797 24.0469 17.0986
q22.4023 16.2559 42 25.8037t27.0957 2.8125q6.6875 -8.41309 1.8623 -18.5078q-4.8252 -10.0957 -14.2002 -18.5088z" />
  </g>

</svg>
