<?xml version="1.0" standalone="no"?>
<!DOCTYPE svg PUBLIC "-//W3C//DTD SVG 1.1//EN" "http://www.w3.org/Graphics/SVG/1.1/DTD/svg11.dtd" >
<svg xmlns="http://www.w3.org/2000/svg" xmlns:xlink="http://www.w3.org/1999/xlink" version="1.1" viewBox="-10 0 410 1000">
  <g transform="matrix(1 0 0 -1 0 800)">
   <path fill="currentColor"
d="M100.701 -44.2861q-36.1738 0 -44.25 26.75q-8.07715 26.751 22.8213 66.3936q14.4766 17.6191 61.6992 67.9473q47.2227 50.3291 79.6494 88.2949q32.4258 37.9658 31.7939 48.3291q-0.6875 11.2666 -70.3389 76.6318q-69.6514 65.3662 -69.9463 78.7969
q-0.244141 11.0752 30.5479 36.6729q30.791 25.5967 62.999 50.6543q32.208 25.0586 34.167 33.8154q2.9209 12.6982 -33.2939 57.4131q-36.2139 44.7139 -73.8887 83.0791l-37.6748 38.3652q-0.770508 -0.674805 -2.07031 -1.76172q-1.30078 -1.08789 -5.46973 -4.42578
t-7.75293 -5.7998t-8.92285 -5.88574q-5.33887 -3.42285 -8.97852 -4.68066q-3.63867 -1.25684 -7.91797 -2.18652t-5.74414 1.59668q-8.54492 8.80762 17.2021 36.8955q25.7461 28.0879 57.7852 51.1621q32.04 23.0732 39.2979 19.9424q8.80371 -6 5.24902 -15.333
q-3.55566 -9.33398 -12.4023 -18l-8.84668 -8.66699q7.43066 -6.36621 19.7734 -17.168t43.96 -40.0029q31.6162 -29.2002 55.8711 -53.6699q24.2549 -24.4688 44.3711 -49.8076q20.1162 -25.3398 20.5957 -36.7793q0.737305 -17.5557 -29.9668 -46.1367
q-30.7031 -28.582 -61.9707 -53.8223q-31.2666 -25.2402 -31.4912 -34.3271q-0.227539 -9.20898 31.5898 -38.5771q31.8164 -29.3691 63.583 -61.7979q31.7656 -32.4287 31.3994 -49.0537q-0.369141 -16.7207 -53.1582 -73.8379q-52.7881 -57.1162 -106.637 -111.753
q-53.8486 -54.6377 -55.6338 -64.123q-1.49121 -7.91992 3.95117 -26.7178q5.44238 -18.7988 2.28809 -29.3262q-3.15527 -10.5273 -23.668 -10.5273z" />
  </g>

</svg>
