<?xml version="1.0" standalone="no"?>
<!DOCTYPE svg PUBLIC "-//W3C//DTD SVG 1.1//EN" "http://www.w3.org/Graphics/SVG/1.1/DTD/svg11.dtd" >
<svg xmlns="http://www.w3.org/2000/svg" xmlns:xlink="http://www.w3.org/1999/xlink" version="1.1" viewBox="-10 0 529 1000">
  <g transform="matrix(1 0 0 -1 0 800)">
   <path fill="currentColor"
d="M134.5 18.5q-48.5 30.5 -75 86.5t-26.5 131q0 79 31 140.5t85.5 96t124.5 34.5q63 0 111.5 -30.5t75 -85.5t26.5 -128q0 -80 -30.5 -142.5t-85 -97.5t-124.5 -35q-64 0 -112.5 30.5zM377.5 128.5q42.5 40.5 42.5 108.5q0 74 -46 120t-121 46q-70 0 -111.5 -41.5
t-41.5 -111.5q0 -73 45 -117.5t119 -44.5q71 0 113.5 40.5z" />
  </g>

</svg>
