<?xml version="1.0" standalone="no"?>
<!DOCTYPE svg PUBLIC "-//W3C//DTD SVG 1.1//EN" "http://www.w3.org/Graphics/SVG/1.1/DTD/svg11.dtd" >
<svg xmlns="http://www.w3.org/2000/svg" xmlns:xlink="http://www.w3.org/1999/xlink" version="1.1" viewBox="-10 0 573 1000">
  <g transform="matrix(1 0 0 -1 0 800)">
   <path fill="currentColor"
d="M163 123l-41 14l-3 10l350 633l43 -17l3 -10zM166.531 535.143q8.94141 -0.104492 24.0576 -0.139648q27.2998 -0.0625 36.54 -1.23633q9.24023 -1.17285 9.40234 -6.33789q1.23145 -8.00684 -7.62988 -10.4775t-19.0264 -3.33008q-10.166 -0.858398 -11.0586 -4.76367
l-8.28516 -83.7148l209.143 23.7148q6.03223 80.5889 22.5713 89.4287q9.99023 4.28906 20.8574 4.28906t20.8574 -4.28906q12.3486 -5.10059 3.42773 -62.5723q-19.8506 -166.216 -57.1426 -329.428q-3.19824 -13.1123 -40.2852 -17.1436q-141.041 -13.3057 -184 -37.7139
q-26.8154 -15.2363 -62.7529 -50.7471q-35.9385 -35.5117 -28.3906 -52.6816q5.25 -11.9424 18.1025 -16.0342q12.8525 -4.09082 24.4619 -1.93164q11.6104 2.15918 17.7217 6.82324q8.30469 6.16113 -0.964844 22.6787q-9.26855 16.5166 0.964844 27.6064
q4.94434 6.34473 30.75 1.71484q25.8057 -4.63086 30.1074 -17.1436q6.54004 -18.0801 -20.3154 -38.251t-53.9707 -28.0342q-14.9531 -6.36035 -31.2021 -6.36035q-23.3975 0 -43.084 12.6455q-9.26855 6.09863 -15.8281 18.2676q-6.55957 12.168 -6.55957 23.2627
q0 15.6465 8.95996 28.4697q13.2549 27.4863 54.3242 53.1055q41.0693 25.6201 85.9609 42.0381q29.9531 10.6221 73.5352 20.1123t64.9297 16.918q21.3486 7.42871 24.3926 20.1123q16.9355 64.2637 24.5713 130.286l15.1426 116q-131.857 -16.874 -204.856 -25.1436
q-5.87012 -94.8701 -16 -108.285q-10.7148 -13.6738 -28.0713 -9.46387q-17.3574 4.20898 -17.3574 19.4639q4.54492 94.4385 7.8252 148.804q3.28027 54.3662 3.60352 61.4814q-1.39746 6.29297 -10.54 3.35449q-9.14355 -2.9375 -19.873 -0.899414
q-10.7305 2.03906 -10.7305 14.4023q-0.336914 11.1426 65.7148 11.1426zM509.388 253.143h-0.571289q9.27148 -0.793945 4.85742 -38q-3.48633 -23.749 -17.3574 -28.1074q-13.8711 -4.35742 -23.7852 16.6787q-1.76074 5.57715 -1.76074 11.4336
q0 15.7324 11.1338 26.8662t26.8662 11.1338q0.333984 0 0.617188 -0.00488281z" />
  </g>

</svg>
