<?xml version="1.0" standalone="no"?>
<!DOCTYPE svg PUBLIC "-//W3C//DTD SVG 1.1//EN" "http://www.w3.org/Graphics/SVG/1.1/DTD/svg11.dtd" >
<svg xmlns="http://www.w3.org/2000/svg" xmlns:xlink="http://www.w3.org/1999/xlink" version="1.1" viewBox="-10 0 579 1000">
  <g transform="matrix(1 0 0 -1 0 800)">
   <path fill="currentColor"
d="M73.0459 484.286q-19.5859 3.05859 -23.7139 9.14258q-4.43945 6.54199 5.92188 34.3301q10.3613 27.7871 20.6494 30.8125q4.7959 1.41113 5.92969 -5.45703q1.13379 -6.86719 0.328125 -16.0459q-0.806641 -9.17773 1.72461 -16.9805
q2.53125 -7.80176 9.73145 -7.80176q17.2861 0 70.5713 -0.857422t70.5713 -0.857422q16.4854 0 17.4287 -20.2852q0.253906 -5.46094 -26.1035 -38.8174q-26.3574 -33.3574 -52.8408 -63.9844l-26.4844 -30.627h99.4287q10.7686 0 11.2861 -14.0361t-5 -22.8213
q-4.25195 -8.90332 -22.1729 -44.2129q-17.9209 -35.3105 -26.2617 -53.873q-8.33984 -18.5625 -17.0957 -47.9756t-8.75586 -52.2246q-0.0722656 -1.81055 -0.0722656 -3.54883q0 -19.6445 11.6582 -41.124q11.6572 -21.4795 28.1289 -32.1836
q27.5381 -16.9375 59.8701 -16.9375q24.9062 0 47.5586 10.3662q42.6943 21.5098 84 133.143q13.1396 42.709 24.5254 104.49q11.3848 61.7812 14.3311 106.367q0.432617 10.6533 0.432617 21.3555q0 48.1514 -8.71777 95.501h-16.8574q-3.88672 -0.143555 -7.23633 5.15527
q-3.34863 5.29785 -1.9082 10.6436q1.44043 5.34473 9.14453 5.34473h85.7139q9.02441 0 10.7861 -5.28613q1.76172 -5.28516 -2.14355 -10.5713q-3.9043 -5.28613 -8.64258 -5.28613h-15.7139q8.92871 -61.8096 8.92871 -124.263q0 -5.54102 -0.0712891 -11.166
q-1.0293 -53.4805 -19.2793 -124.889t-43.0068 -118.825q-15.8359 -29.4414 -48.6523 -59.9141q-32.8154 -30.4717 -63.3477 -44.0859q-35.2666 -15.1211 -73.6367 -15.1211q-25.5029 0 -50.0771 6.83496q-34.1416 8.00391 -58.3057 38.4863
q-24.1631 30.4834 -24.1631 65.5508q0 3.12012 0.182617 6.24902q0.634766 33.2695 18.9922 85.8418q18.3574 52.5713 36.3965 88.5078l18.04 35.9365h-107.714q-7.91504 0 -11.1787 7.89258q-3.26465 7.89258 0.606445 17.5352q2.28613 5.71484 29.9287 38.3574
q27.6436 32.6436 54.1436 62.4287l26.5 29.7861h-114.286z" />
  </g>

</svg>
