<?xml version="1.0" standalone="no"?>
<!DOCTYPE svg PUBLIC "-//W3C//DTD SVG 1.1//EN" "http://www.w3.org/Graphics/SVG/1.1/DTD/svg11.dtd" >
<svg xmlns="http://www.w3.org/2000/svg" xmlns:xlink="http://www.w3.org/1999/xlink" version="1.1" viewBox="-10 0 834 1000">
  <g transform="matrix(1 0 0 -1 0 800)">
   <path fill="currentColor"
d="M756.418 714.286q7.96777 0 14.3037 -16.7139q6.33496 -16.7148 6.05957 -33.4297q-0.276367 -16.7139 -8.36328 -16.7139l-303.429 6v-421.429q31.3457 -13.252 53.5303 -46.7158q22.1846 -33.4648 22.1846 -67.4971q0 -51.3359 -36.332 -87.668t-87.668 -36.332
t-87.668 36.332t-36.332 87.668q0 34.0322 22.1836 67.4971q22.1846 33.4639 53.5303 46.7158l5.14355 417.429l-259.429 2q-15.458 -27.7197 -30.2861 -30.2861q-12.4375 -2.15234 -25.7744 3.87695t-11.9395 16.4092q15.2568 49.457 47.4287 90
q9.45117 9.89941 23.1426 9.89941q13.6885 0 23.1426 -9.89941q2.28516 -2.28516 2.71387 -6.57129q0.428711 -4.28516 -0.285156 -7.42871l-0.713867 -3.14258h614.856zM417.847 33.4287q31.9766 0 42.1309 21.9678q10.1553 21.9678 10.1553 63.7461
q0 41.3516 -10.2061 62.8193q-10.2061 21.4668 -42.0801 21.4668q-31.9648 0 -41.9824 -21.0322t-10.0176 -63.2539q0 -42.5117 10.0508 -64.1123q10.0498 -21.6016 41.9492 -21.6016z" />
  </g>

</svg>
