<?xml version="1.0" standalone="no"?>
<!DOCTYPE svg PUBLIC "-//W3C//DTD SVG 1.1//EN" "http://www.w3.org/Graphics/SVG/1.1/DTD/svg11.dtd" >
<svg xmlns="http://www.w3.org/2000/svg" xmlns:xlink="http://www.w3.org/1999/xlink" version="1.1" viewBox="-10 0 474 1000">
  <g transform="matrix(1 0 0 -1 0 800)">
   <path fill="currentColor"
d="M352 329.5q39 -21.5 61.5 -59.5t22.5 -85q0 -56 -26.5 -101t-74 -70.5t-106.5 -25.5q-55 0 -97 26.5t-65.5 75t-23.5 110.5q0 88 41 166t117.5 138t179.5 94l8 -5l15 -41q-95 -40 -157.5 -102t-88.5 -140l6 -4q34 20 60.5 32t39.5 13q49 0 88 -21.5zM317 79q25 29 25 81
q0 51 -30.5 85.5t-76.5 34.5q-20 0 -45 -9t-46 -23q-3 -22 -3 -45q0 -71 28.5 -112t78.5 -41q44 0 69 29z" />
  </g>

</svg>
