<?xml version="1.0" standalone="no"?>
<!DOCTYPE svg PUBLIC "-//W3C//DTD SVG 1.1//EN" "http://www.w3.org/Graphics/SVG/1.1/DTD/svg11.dtd" >
<svg xmlns="http://www.w3.org/2000/svg" xmlns:xlink="http://www.w3.org/1999/xlink" version="1.1" viewBox="-10 0 374 1000">
  <g transform="matrix(1 0 0 -1 0 800)">
   <path fill="currentColor"
d="M105 211l-24 122l3 15l114 70q55 35 55 80q0 53 -51.5 82.5t-142.5 34.5l-5 12l35 67l14 5q66 -2 120.5 -24.5t86.5 -60.5t32 -84q0 -42 -16.5 -72t-42 -51.5t-72.5 -52.5l-34 -23l-3 -9l18 -89l-4 -10l-73 -17zM99.5 7q-16.5 18 -16.5 46q0 31 19 51t51 20q31 0 48 -18
t17 -47q0 -30 -19.5 -50t-51.5 -20q-31 0 -47.5 18z" />
  </g>

</svg>
