<?xml version="1.0" standalone="no"?>
<!DOCTYPE svg PUBLIC "-//W3C//DTD SVG 1.1//EN" "http://www.w3.org/Graphics/SVG/1.1/DTD/svg11.dtd" >
<svg xmlns="http://www.w3.org/2000/svg" xmlns:xlink="http://www.w3.org/1999/xlink" version="1.1" viewBox="-10 0 929 1000">
  <g transform="matrix(1 0 0 -1 0 800)">
   <path fill="currentColor"
d="M256.5 -157.5q-93.5 53.5 -142 142.5t-48.5 199q0 114 56.5 216t157 163.5t226.5 61.5q102 0 181 -40.5t122.5 -111.5t43.5 -160t-39 -163t-114 -118q-39 -23 -84 -23q-28 0 -28 33l35 9q35 0 100 73.5q53 60.5 53 161.5q0 85 -36.5 146.5t-103.5 94t-156 32.5
q-99 0 -175 -47.5t-118 -128.5t-42 -178q0 -103 39.5 -183.5t121.5 -129.5t203 -55v-11l-28 -41q-131 4 -224.5 57.5zM523.369 492.998q54.9619 -1.04688 93.8613 -40.752q38.8975 -39.7051 38.8975 -94.7607q0 -2.55469 -0.0957031 -5.10352
q0.800781 -41.1904 -12.0566 -82.3896q-12.8555 -41.2002 -26.1582 -75.7305q-13.3018 -34.5303 -13.3018 -58.6855q-0.505859 -4.43457 -0.505859 -8.9043q0 -18.9463 11.6455 -38.9746q11.6445 -20.0283 28.0986 -29.3799q14.623 -8.16113 27.1514 -4.89551
q12.5273 3.26465 18.8936 9.64062q6.36523 6.37598 15.8896 14.9541q9.52637 8.57715 18.1436 11.0439q14.0205 3.87988 15.1484 -7.85254q1.12793 -11.7334 -7.6748 -18.8809q-7.11133 -6.61328 -18.6699 -17.9883t-16.3125 -15.5752q-4.75293 -4.20117 -12.75 -9.20312
q-7.99609 -5.00293 -16.5977 -7.49121q-24.6562 -7.12305 -43.2725 1.8584q-18.6152 8.98145 -28.4912 29.2529t-14.5674 43.1689q-4.69043 22.8965 -4.69043 47.3555q0.246094 34.2607 17.5713 102.458t13.9258 105.793q-4.80762 53.1689 -34.7168 88.7383
q-29.9072 35.5703 -69.9189 35.5703q-66.6719 0 -106.26 -45.8438q-39.5869 -45.8428 -56.2988 -122.04q-12 -40.8027 -2.40234 -116.056q9.59863 -75.252 4.80469 -117.858q-0.461914 -11.3564 -7.5 -23.8115q-7.03906 -12.4541 -16.5234 -18.6943
q-11.0889 -7.31641 -31.0996 -10.7305q-20.0107 -3.41211 -35.6738 -0.639648q-15.6631 2.77344 -14.9062 11.3701q0.981445 8.84766 8.38379 12.1777t16.0635 2.94922q8.66211 -0.380859 17.3359 3.04004q8.6748 3.42188 11.6025 12.3086q7.80859 24.5459 5.37793 73.9209
q-2.43066 49.376 -5.06152 88.6553q-2.63184 39.2803 10.3604 84.9717q26.3242 80.2803 76.8477 128.849q50.5225 48.5684 118.811 61.7588q12.8135 2.4082 25.8506 2.4082q0.376953 0 0.841797 -0.00195312zM406.989 310.678q7.01367 17.7432 25.7842 31.6074
t38.2783 15.1758q25.541 1.96777 51.208 -10.2979q25.667 -12.2646 25.667 -31.1387q-0.365234 -8.95898 -9.34277 -11.5625q-8.97656 -2.60254 -15.748 0.869141q-2.56934 1.07812 -26.6338 16.1689q-24.0645 15.0918 -36.8955 13.5049q-21.9053 -2.56934 -28.8945 -30.208
q-6.99023 -27.6396 9.14258 -43.041q7.2666 -6.94922 23.2979 -21.1621t22.6543 -21.2188q6.62402 -7.00684 16.0391 -19.3896q9.41602 -12.3828 13.3662 -25.7109q3.9502 -13.3262 4.7207 -30.1436q-0.236328 -27.168 -19.5547 -47.7676q-19.3184 -20.6006 -46.377 -22.54
q-5.1084 -0.275391 -10.2139 -0.275391q-27.9102 0 -54.6494 8.02734q-7.09863 3.42676 -7.09863 11.3184q0 6.02734 4.69629 9.80078q4.47559 3.27148 31.0781 -2.4043q26.6035 -5.67578 34.5859 -0.536133q7.8418 6.18164 13.3916 17.6289q5.5498 11.4492 5.5498 21.4434
q0 7.35449 -2.125 14.3936q-3.14258 19.3311 -29.2666 44.667q-26.125 25.3359 -32.6602 37.4043q-8.50293 17.8848 -8.50293 37.6934q0 19.8076 8.50293 37.6934z" />
  </g>

</svg>
