<?xml version="1.0" standalone="no"?>
<!DOCTYPE svg PUBLIC "-//W3C//DTD SVG 1.1//EN" "http://www.w3.org/Graphics/SVG/1.1/DTD/svg11.dtd" >
<svg xmlns="http://www.w3.org/2000/svg" xmlns:xlink="http://www.w3.org/1999/xlink" version="1.1" viewBox="-10 0 886 1000">
  <g transform="matrix(1 0 0 -1 0 800)">
   <path fill="currentColor"
d="M124.402 567.714q325.343 -3.70703 426.857 0q15.7197 0.494141 86.7812 1.08984q71.0615 0.595703 113.219 2.91016q7.16504 0 21.3242 1.89941q14.1602 1.89941 24.1738 2.57812q10.0146 0.679688 20.1006 -0.726562q10.0869 -1.40625 14.0938 -8.73535
q4.00781 -7.33008 1.16504 -20.7295q-2.80566 -13.252 -6.95605 -17.8086q-4.15137 -4.55664 -8.05273 -3.3291q-3.90039 1.22754 -9.4834 -1.84961q-5.58301 -3.07715 -10.3652 -13.2988q-13.376 -56.5957 -20.8574 -114.285q-2.32812 -31.5742 -18.8564 -58.5713
q-8.60352 -15.4092 -56.9268 -20.9648q-48.3223 -5.55664 -92.4336 -3.68945q-44.1104 1.86621 -50.6396 4.93945q-9.39746 5.0791 -12.9688 29.6514q-3.57129 24.5713 -2.44434 46.6025l1.12695 22.0322q-41.7227 -1.98633 -46.2852 4.85742
q-4.08398 5.05566 -2.92871 13.4639q1.1543 8.40723 8.64258 9.39258q45.9893 6.57129 88.2861 6.57129q1.40723 0 7.4375 0.15918t10.3242 0.106445q4.29395 -0.0537109 10.8896 -0.344727q6.59668 -0.290039 11.1738 -1.35742q4.57812 -1.06738 9.00098 -2.75879
q4.42383 -1.69043 6.5459 -4.72168q2.12305 -3.03125 1.77051 -7.08301q-0.761719 -5.84082 -10.4766 -9.62695q-9.71387 -3.78516 -19.0479 -4.65039l-9.33301 -0.865234q-0.689453 -8.60742 -0.689453 -17.2549q0 -25.2803 5.83203 -49.8877
q1.84082 -4.93555 4.35547 -7.69141q2.51465 -2.75488 7.44531 -3.69434q4.93066 -0.94043 8.55957 -1q3.62793 -0.0595703 12.7246 0.418945q9.09766 0.479492 14.915 0.538086q13.2148 0.133789 17.8115 1.0127q4.5957 0.878906 11.4004 9.01074
q6.80566 8.13184 11.3232 24.2031q4.51758 16.0723 12.0371 48.916q6.80859 34.8848 9.71387 70.2861q0 9.23926 -7.15332 15.9287t-21.7441 10.1572q-14.5908 3.46777 -28.125 5.48438q-13.5342 2.01562 -35.2285 2.16797q-21.6953 0.152344 -33.5283 -0.0664062
q-11.833 -0.21875 -31.9551 -0.960938q-8.2793 -0.305664 -11.9795 -0.425781q-41.5234 -1.26953 -92.3096 -1.26953q-50.7861 0 -80.8096 0.634766l-30.0244 0.634766l-37.1426 -477.143l202 -3.71387q19.4648 62.002 37.7139 62.8564q10.0918 0.484375 15.4082 -2.29492
q5.31641 -2.78027 5.54785 -8.38965q0.231445 -5.60938 -0.710938 -10.1162q-0.943359 -4.50586 -3.70996 -11.1318t-3.10645 -7.78125q-2.43848 -7.99707 -7.37988 -25.9707q-4.94238 -17.9736 -8.45801 -29.4404q-3.51465 -11.4658 -8.37012 -24.6299
q-4.85449 -13.1641 -9.96582 -19.9092q-5.11035 -6.74414 -10.3975 -6.90723q-16.127 -0.634766 -21.1982 9.22266q-5.07129 9.85645 -2.0791 20.0312l2.99219 10.1748q-50.3945 3.14355 -105.429 3.42871l-229.429 -4q-0.0986328 0 -3.88086 -0.380859
q-3.78223 -0.381836 -8.27148 -0.554688q-4.49023 -0.172852 -10.4941 -0.09375t-11.3604 1.25977q-5.35645 1.18066 -10.0039 3.22949q-4.64746 2.0498 -7.29297 6.09277q-2.64453 4.04395 -2.41113 9.58984q0 12.5469 4.8125 17.457q4.81348 4.91016 18.6162 5.97168
l87.4287 3.71484l38.2861 477.143l-164.857 3.42871q-17.1709 -32.0029 -31.7139 -33.7148q-37.9492 -4.17383 0 54.2861q3.7793 5.38086 13.2471 23.2969q28.7686 54.4375 44.6729 54.9248q8.97363 0.274414 16.6514 -12.2217q2.66699 -4.57129 -1.61914 -16
q-4.28613 -11.4287 -9.90527 -20.5723z" />
  </g>

</svg>
