<?xml version="1.0" standalone="no"?>
<!DOCTYPE svg PUBLIC "-//W3C//DTD SVG 1.1//EN" "http://www.w3.org/Graphics/SVG/1.1/DTD/svg11.dtd" >
<svg xmlns="http://www.w3.org/2000/svg" xmlns:xlink="http://www.w3.org/1999/xlink" version="1.1" viewBox="-10 0 734 1000">
  <g transform="matrix(1 0 0 -1 0 800)">
   <path fill="currentColor"
d="M680.143 519.714q0.0107422 -1.11035 0.0107422 -2.19434q0 -42.8838 -22.6895 -93.3896q-22.6895 -50.5068 -54.75 -78.9873q-21.2646 -18.0518 -55.5029 -35.4648q-34.2393 -17.4121 -61.3535 -23.9639q-34.2725 -8.79688 -69.4287 -12.5713l-22.8574 -222.285
q4.03125 -0.292969 9.94434 -1.35059q5.91309 -1.05859 15.3496 -7.48926q9.43652 -6.42969 8.4209 -16.5889q-1.21777 -10.2305 -7.60645 -16.2002q-6.3877 -5.96875 -17.9355 -7.44629t-20.6885 -1.44922t-24.1064 1.4668q-14.9668 1.43945 -19.9492 1.62891
q-18.2158 0.669922 -32.5547 2.04688t-30.8242 4.51758q-16.4863 3.14062 -24.7559 9.41992q-8.27051 6.2793 -6.15137 15.1582q3.42871 14.3496 15.4287 21.1348q12 6.78613 22.2861 6.39648l10.2852 -0.388672l18 202.286l-152 -5.42871
q-2.18066 -5.11719 -6.05273 -12.4541q-3.87207 -7.33594 -15.1318 -17.7588q-11.2588 -10.4219 -21.6719 -6.3584q-41.5908 16.5684 -10 84q9.87305 20.543 13.9902 28.2285q4.11816 7.68555 13.1611 20.8604q9.04395 13.1738 18.1611 16.4883
q9.11719 3.31445 20.1162 -0.148438q16.5078 -5.0791 20.2217 -17.7939q3.71484 -12.7139 -0.825195 -22.8887l-4.54004 -10.1748q59.8525 0.00976563 130 5.14258l4.28613 46.8574q-2.14355 0.00585938 -5.32129 0.794922t-8.5 7.93359q-5.32129 7.14453 -5.32129 19.8428
q0 5.24121 1.4668 9.31641q1.46582 4.07422 4.62207 6.66602t6.49805 4.42285q3.3418 1.83203 8.76367 2.54199q5.4209 0.709961 9.63672 1.06934t10.9014 -0.0400391q6.68555 -0.400391 10.7734 -0.741211q4.08789 -0.34082 11.0352 -1.08008
q6.94727 -0.738281 10.0166 -1.01172q4.45508 -0.396484 12.9189 -1.02637q8.46289 -0.629883 13.3516 -1.06641q4.8877 -0.435547 12.4404 -1.27734q7.55273 -0.84082 12.0586 -1.9082q4.50586 -1.06641 10.207 -2.69238q5.70117 -1.62695 8.88379 -3.89844
q3.18262 -2.27148 6.0918 -5.25586q2.90918 -2.98535 3.82812 -7.03516q0.917969 -4.0498 0.219727 -8.9834q-0.904297 -9.65234 -8.40625 -16.4834q-7.50098 -6.83105 -17.1963 -6.83105q-1.4873 0 -2.96875 0.171875l-3.14258 -30q25.959 3.17773 39.7139 6
q70.3213 12.8721 99.8057 30.1182q29.4844 17.2471 36.4805 61.0244q7.08496 41.2773 -4.39355 73.9668q-11.4795 32.6895 -34.4131 53.1602q-22.9336 20.4697 -58.7529 35.1875q-35.8193 14.7168 -70.4814 21.8223q-34.6621 7.10547 -76.5312 11.292l-240.285 28.5713
q-1.25391 -3.74414 -3.84473 -9.29297q-2.5918 -5.5498 -12.4053 -14.8428t-21.75 -9.29297q-13.8242 0 -19.627 10.084q-5.80176 10.083 -5.80176 18.4883q2.34277 36.1709 18 68.8564q20.8613 48.5117 57.1426 33.4287q14.8574 -5.84082 17.8574 -16.7695
q3 -10.9287 -1.42871 -18.9365l-4.42871 -8.00781q294.962 -35.7285 348 -42.5713q30.5039 -3.79785 61.2373 -13.2148q30.7334 -9.41699 62.6963 -26.125q31.9629 -16.708 51.9639 -45.1611q20.002 -28.4521 20.1025 -64.0713z" />
  </g>

</svg>
