<?xml version="1.0" standalone="no"?>
<!DOCTYPE svg PUBLIC "-//W3C//DTD SVG 1.1//EN" "http://www.w3.org/Graphics/SVG/1.1/DTD/svg11.dtd" >
<svg xmlns="http://www.w3.org/2000/svg" xmlns:xlink="http://www.w3.org/1999/xlink" version="1.1" viewBox="-10 0 1082 1000">
  <g transform="matrix(1 0 0 -1 0 800)">
   <path fill="currentColor"
d="M1026.33 386.571q0 -8.22656 -10.9219 -17.542q-10.9209 -9.31543 -15.9346 -9.31543q-9.74805 0 -19.1602 13.1006q-9.41113 13.1006 -9.41113 18.8994q2.31445 9.51465 10.6855 17.8857q8.37109 8.37207 17.8857 10.6865q8.40527 0.572266 17.6309 -13.2012
q9.22559 -13.7744 9.22559 -20.5137zM886.904 561.714q9.75488 2.74902 36.3564 0.250977q26.6025 -2.49805 24.7861 -15.3936l-1.42871 -5.71387q-1.41504 -12.7363 -13.1436 -17.207q-11.7275 -4.46973 -25.5234 -2.91992t-26.4756 -0.444336
q-5.23242 -0.654297 -11.7588 -13.8965q-6.52637 -13.2412 -14.8291 -40.6211q-8.30176 -27.3799 -14.8486 -51.3193q-6.54785 -23.9385 -17.2969 -65.1699q-10.75 -41.2314 -16.6953 -62.9932q-28.832 -102.039 -59.7842 -177.255q-30.9521 -75.2158 -54.502 -81.8887
q-36.6748 -7.94043 -89.1631 -14.6377q-52.4893 -6.69727 -89.9795 -8.21875q-34.6006 -3.82031 -69.4287 -3.82031q-45.0859 0 -89.7139 6.3916q-37.1885 9.39062 -67.5771 42.877q-30.3887 33.4854 -36.1377 71.4082q-4.06543 21.8008 -12.6631 96.8193
q-8.59766 75.0176 -15.9082 112.038q-54.1299 -63.7783 -99.1426 -134.286q-5.0127 -10.5059 3.69043 -19.4141q8.7041 -8.9082 22.2158 -14.3809q13.5117 -5.47363 25.374 -14.0029q11.8623 -8.53027 11.8623 -17.916q0 -20 -33.4287 -20
q-44.9082 8.34668 -88.5713 21.7139q-7.7998 2.48145 -12.3994 7.51465q-4.59961 5.03418 -4.7832 13.0029t4.65039 17.6396q4.83398 9.67188 17.502 22.3965q12.6689 12.7256 32.1729 26.3037q18.2783 12.8848 57.7109 79.9648q39.4326 67.0791 39.4326 106.035
q-6.34668 10.7803 -18.5713 13.4287q-20.8545 3.02734 -43.2695 -8.75098q-22.416 -11.7773 -26.1592 -12.3916q-16.3828 -2.69824 -21.4795 1.16797t-9.66406 15.6885q-2.16602 5.85352 1.52246 11.8252q3.68945 5.97266 12.1123 11.165q8.42383 5.19336 18.2568 9.80957
q9.83398 4.61719 22.1982 8.75684q12.3652 4.13867 21.5459 6.94043q9.18066 2.80176 18.6895 5.42773q9.50879 2.625 11.3896 3.21875q45.4727 14.2969 75.3955 -14.6172q29.9229 -28.9141 38.8896 -77.3828q0 -0.000976563 6.16504 -45.7969
q6.16602 -45.7949 12.915 -89.7197q6.74902 -43.9238 18.3623 -93.4414q11.6143 -49.5166 23.1299 -70.1855q7.93066 -15.1719 25.5107 -27.8135q17.5801 -12.6406 34.4893 -15.3291q28.4102 -4.25977 57.1426 -4.25977t57.1426 4.25977q4.22754 0.262695 15.1074 0.883789
t13.248 0.803711q2.36914 0.181641 10.2305 1.00488t9.79688 1.5791q1.93457 0.756836 7.95312 2.43066q6.01953 1.67383 8.69629 3.65332q2.67773 1.97949 8.0293 5.15332q5.35254 3.17383 9.94727 7.02539q4.59473 3.85254 10.7061 9.18066
q28.6826 25.415 93.4277 233.428q17.2812 55.2139 33.9072 114.562q16.626 59.3486 24.2803 83.4492q7.6543 24.0996 15.8125 36.8467q8.61816 13.9365 39.4912 19.54q30.874 5.60254 53.0811 5.60254z" />
  </g>

</svg>
