<?xml version="1.0" standalone="no"?>
<!DOCTYPE svg PUBLIC "-//W3C//DTD SVG 1.1//EN" "http://www.w3.org/Graphics/SVG/1.1/DTD/svg11.dtd" >
<svg xmlns="http://www.w3.org/2000/svg" xmlns:xlink="http://www.w3.org/1999/xlink" version="1.1" viewBox="-10 0 812 1000">
  <g transform="matrix(1 0 0 -1 0 800)">
   <path fill="currentColor"
d="M658.658 565.429q18.4131 -202.519 -6.85742 -277.429q-26.4971 -78.9238 -68.9512 -137.575q-42.4551 -58.6504 -97.7158 -94.374q-55.2607 -35.7236 -121.904 -48.6221q-20.1396 -3.71484 -40.623 -3.71484h-0.233398q-59.957 0 -105.873 31.7207t-67.873 77.8926
q-21.958 46.1719 -22.2539 96.6729q0 58.707 18.1387 147.13q18.1387 88.4219 31.2461 133.074t24.6152 79.5098q-75.9463 0 -129.715 -5.14258q-14.8906 0 -23.7139 23.7148q-3.33203 8.95605 5.0957 16.8887q8.42871 7.93262 18.6182 6.8252
q72.0566 -4.92871 144.286 -4.92871q72.2275 0 144.285 4.92871q9.57227 0 14.3145 -4.98145q4.74316 -4.98242 9.40039 -18.7324q4.12695 -12.1846 -4.05176 -18.4492q-8.17871 -6.26367 -19.6631 -5.26562q-46.9844 3.95215 -116.285 4.85742
q-53.9463 -245.54 -44.5713 -345.143q7.26758 -78.2422 51.5635 -130.55q44.2949 -52.3076 102.722 -52.3076q50.8252 0 92.0205 19.1816t69.7402 54.1143q28.5449 34.9336 47.6436 78.0547q19.0986 43.1221 30.8818 96.6494q19.7471 88.5977 -5.42871 275.429h-28.5713
q-24.0391 -2.76953 -45.2061 -33.0977t-40.9219 -71.5195q-19.7539 -41.1914 -31.8721 -54.8115q-20.4375 -17.4141 -44.8574 -28.5713q-4.18457 -1.5 -22.7783 -9.65625q-18.5928 -8.15625 -27.0332 -10.1123q-8.44043 -1.95605 -21.5732 1.83594
q-13.1328 3.79102 -21.7578 17.9326q-6.78516 11.7588 14.2852 24.8564q9.74805 5.94824 57.1436 30.2861q14.6445 9.9668 29.2949 28.8027t20.7051 35.4834q4.96777 22.4688 19.7012 50.1777q14.7334 27.709 30.584 44.3936q12.5166 12.1533 45.5088 17.0762
q32.9922 4.92383 51.9199 4.92383h155.429q17.3721 0 22.9717 -6.14941q5.59961 -6.14941 5.59961 -18.708q0 -19.1738 -97.4287 -22.5713z" />
  </g>

</svg>
