<?xml version="1.0" standalone="no"?>
<!DOCTYPE svg PUBLIC "-//W3C//DTD SVG 1.1//EN" "http://www.w3.org/Graphics/SVG/1.1/DTD/svg11.dtd" >
<svg xmlns="http://www.w3.org/2000/svg" xmlns:xlink="http://www.w3.org/1999/xlink" version="1.1" viewBox="-10 0 941 1000">
  <g transform="matrix(1 0 0 -1 0 800)">
   <path fill="currentColor"
d="M411.845 418.571q40.3564 -7.56738 112.705 -18.9668q72.3486 -11.3994 80.1523 -12.7471q15.8779 -2.71094 26.4688 -17.9961q10.5908 -15.2852 12.96 -30.29q5.13965 -32.5547 23.4287 -116q11.3047 -58.877 28.5713 -116.285q11.8369 -33.1904 50.2148 -77.3096
q38.3789 -44.1191 60.6426 -44.1191q0.287109 0 5.45996 -0.192383q5.17285 -0.191406 6.51953 0.0751953q1.34668 0.266602 5.67871 1.79297t6.44824 4.4707q2.11621 2.94531 5.08301 8.63477q2.96777 5.68945 5.0957 13.79q2.95898 11.2617 -7.03809 17.7754
q-9.99707 6.5127 -23.8652 8.87305q-13.8691 2.36035 -25.7686 9.58203q-11.8994 7.2207 -11.8994 19.4834q0 17.1719 14.1104 35.1572q14.1094 17.9863 31.0322 17.9863q19.5557 0 33.5586 -17.0576q14.0029 -17.0586 18.9062 -40.335q4.90332 -23.2773 6.95996 -47.3535
q2.05664 -24.0752 -2.28125 -38.1113q-8.43848 -26.1436 -33.8525 -44.6455q-25.4141 -18.5029 -52.8848 -18.5029q-0.438477 0 -0.977539 0.00585938q-31.1455 0 -56.9834 12.9941q-25.8369 12.9941 -45.7559 38.417q-19.9199 25.4238 -33.1182 49.252
q-13.1992 23.8281 -28.4277 58.7646q-14.0137 32.0664 -23.3613 71.5215q-9.34766 39.4561 -15.1826 75.7197q-5.83496 36.2646 -8.88477 47.3311q-1.51074 5.48047 -5.09375 20.2861q-3.58301 14.8066 -5.53613 20.25q-1.95312 5.44238 -6.29492 14.5156
q-4.34082 9.07324 -10.542 13.5293q-6.2002 4.45605 -15.1045 6.84668q-45.9688 12.0635 -119.254 26.3496q-73.2861 14.2861 -123.588 22.54l-50.3018 8.25391q1.44141 -10.998 3.9375 -29.4375t9.57715 -66.8301q7.08008 -48.3916 13.4395 -87.0762
q6.36035 -38.6846 13.8975 -74.5791q7.53711 -35.8945 12.5771 -44.9346q7.47949 -16.3223 25.4775 -28.042q17.999 -11.7197 35.9512 -11.958q4.30859 0.339844 16.9814 2.51465q12.6738 2.17578 19.0723 2.40332q6.39746 0.227539 13.1426 -4.00098
q6.74414 -4.22852 7.94629 -14.3457q1.375 -14.9863 -1.48242 -24.2041q-2.8584 -9.21777 -7.15332 -13.0078t-13.6621 -3.59766q-9.36621 0.191406 -15.4697 1.71387q-6.10449 1.52246 -18.4883 5.39355q-12.3828 3.87207 -17.1729 5.13086
q-36.1768 9.50488 -84.2617 17.2549t-72.5947 3.60254q-20.6279 -3.91504 -47.333 -15.2998q-26.7041 -11.3848 -43.8105 -23.5576q-6.52832 0 -12.0166 2.08105q-5.48926 2.08008 -9.40918 5.25488q-3.91992 3.17383 -7.0459 8.35938q-3.12695 5.18555 -5.09766 9.93555
t-3.38281 11.5381q-1.41309 6.78809 -2.08203 11.6113q-0.669922 4.82324 -1.01562 11.7129q-0.34668 6.88965 -0.363281 10.2852q-0.015625 3.39453 0.0556641 8.88379q0.0722656 5.48926 0.0722656 6.05176q0 13.7832 6.86816 22.0918q6.86816 8.30859 21.7031 3.62305
q7.0918 -2.23926 27.8936 -22.6719q20.8008 -20.4326 40.1064 -19.6143q16.749 0.749023 27.3506 6.79785q10.6006 6.04883 14.3193 16.5752q3.71973 10.5254 4.55469 17.0557q0.834961 6.53027 0.670898 16.3291q-0.0380859 2.27441 -0.0380859 3.24219
q0 18.7939 -9.71484 91.7227q-9.71387 72.9287 -19.4277 136.46l-9.71484 63.5322q-1.11816 0.125 -3.0625 0.371094q-1.94531 0.246094 -7.86035 1.1875q-5.91602 0.941406 -11.6074 2.06738q-5.69238 1.12695 -13.3301 3.06152q-7.63867 1.93555 -14.0674 4.11621
q-6.42871 2.18066 -12.7803 5.28418q-6.35059 3.10254 -10.5068 6.51172q-4.15527 3.40918 -6.20898 7.85449q-2.05469 4.44531 -0.862305 9.25977q4.97656 20.0986 13.4287 23.0361t25.4287 -0.75q3.66406 -0.22168 60.8174 -13.0244q57.1543 -12.8027 130.461 -28.9033
q73.3057 -16.1006 107.293 -22.3584zM560.131 524q0 -14.3584 -15.333 -24.3223q-15.333 -9.96387 -29.5244 -9.96387q-1.5918 -0.12793 -3.17676 -0.12793q-14.3643 0 -25.8232 10.083q-11.458 10.084 -13.2852 24.3311q0 16.2842 14.5527 26.5703
q14.5537 10.2871 30.3037 10.2871q15.3193 -0.0234375 27.29 -10.8223q11.9717 -10.7998 13.5674 -26.0352h1.42871z" />
  </g>

</svg>
